<svg width="28" height="28" viewBox="0 0 28 28" fill="none" xmlns="http://www.w3.org/2000/svg">
<path fill-rule="evenodd" clip-rule="evenodd" d="M2.27344 13.6569C2.27344 7.37131 7.36862 2.27612 13.6542 2.27612C19.9399 2.27612 25.035 7.37131 25.035 13.6569C25.035 19.9425 19.9399 25.0377 13.6542 25.0377C7.36862 25.0377 2.27344 19.9425 2.27344 13.6569ZM13.6542 4.55228C11.2395 4.55228 8.92374 5.51152 7.21628 7.21897C5.50883 8.92642 4.5496 11.2422 4.5496 13.6569C4.5496 16.0716 5.50883 18.3874 7.21628 20.0949C8.92374 21.8023 11.2395 22.7616 13.6542 22.7616C16.0689 22.7616 18.3847 21.8023 20.0922 20.0949C21.7996 18.3874 22.7589 16.0716 22.7589 13.6569C22.7589 11.2422 21.7996 8.92642 20.0922 7.21897C18.3847 5.51152 16.0689 4.55228 13.6542 4.55228Z" fill="black" fill-opacity="0.5"/>
<path fill-rule="evenodd" clip-rule="evenodd" d="M14.7947 7.96657C14.7947 7.66473 14.6748 7.37526 14.4613 7.16183C14.2479 6.9484 13.9584 6.82849 13.6566 6.82849C13.3548 6.82849 13.0653 6.9484 12.8519 7.16183C12.6384 7.37526 12.5185 7.66473 12.5185 7.96657V12.5189H7.9662C7.66437 12.5189 7.37489 12.6388 7.16146 12.8522C6.94803 13.0657 6.82812 13.3551 6.82812 13.657C6.82812 13.9588 6.94803 14.2483 7.16146 14.4617C7.37489 14.6751 7.66437 14.795 7.9662 14.795H12.5185V19.3474C12.5185 19.6492 12.6384 19.9387 12.8519 20.1521C13.0653 20.3655 13.3548 20.4854 13.6566 20.4854C13.9584 20.4854 14.2479 20.3655 14.4613 20.1521C14.6748 19.9387 14.7947 19.6492 14.7947 19.3474V14.795H19.347C19.6488 14.795 19.9383 14.6751 20.1517 14.4617C20.3652 14.2483 20.4851 13.9588 20.4851 13.657C20.4851 13.3551 20.3652 13.0657 20.1517 12.8522C19.9383 12.6388 19.6488 12.5189 19.347 12.5189H14.7947V7.96657Z" fill="black" fill-opacity="0.5"/>
</svg>
