<svg width="16" height="16" viewBox="0 0 16 16" fill="none" xmlns="http://www.w3.org/2000/svg">
<path d="M5.89323 9.61462H4.40365C3.41599 9.61462 2.46879 10.007 1.77041 10.7053C1.07203 11.4037 0.679688 12.3509 0.679688 13.3386V14.0834H5.93047M13.6949 10.0056L10.0082 13.6924M10.362 4.02869C10.362 4.91758 10.0089 5.77006 9.38033 6.3986C8.75179 7.02714 7.89931 7.38025 7.01042 7.38025C6.12153 7.38025 5.26904 7.02714 4.6405 6.3986C4.01196 5.77006 3.65885 4.91758 3.65885 4.02869C3.65885 3.1398 4.01196 2.28731 4.6405 1.65877C5.26904 1.03023 6.12153 0.677124 7.01042 0.677124C7.89931 0.677124 8.75179 1.03023 9.38033 1.65877C10.0089 2.28731 10.362 3.1398 10.362 4.02869ZM14.2215 14.2189C13.5929 14.8475 12.7405 15.2006 11.8516 15.2006C10.9627 15.2006 10.1102 14.8475 9.48164 14.2189C8.85309 13.5904 8.49998 12.7379 8.49998 11.849C8.49998 10.9601 8.85309 10.1076 9.48164 9.47907C10.1102 8.85053 10.9627 8.49742 11.8516 8.49742C12.7405 8.49742 13.5929 8.85053 14.2215 9.47907C14.85 10.1076 15.2031 10.9601 15.2031 11.849C15.2031 12.7379 14.85 13.5904 14.2215 14.2189Z" stroke="black" stroke-width="1.35417" stroke-linecap="square"/>
</svg>
