<svg width="20" height="20" viewBox="0 0 20 20" fill="none" xmlns="http://www.w3.org/2000/svg">
<path d="M17.5816 6.10768C17.8233 5.86662 18.0151 5.58023 18.146 5.26492C18.2769 4.9496 18.3442 4.61157 18.3442 4.27018C18.3442 3.92879 18.2769 3.59076 18.146 3.27545C18.0151 2.96013 17.8233 2.67374 17.5816 2.43268C17.3405 2.19095 17.0541 1.99915 16.7388 1.86829C16.4235 1.73742 16.0855 1.67006 15.7441 1.67006C15.4027 1.67006 15.0647 1.73742 14.7494 1.86829C14.4341 1.99915 14.1477 2.19095 13.9066 2.43268L6.5066 9.81601C5.91494 9.86601 5.3316 10.041 4.8316 10.3493C3.8566 10.9493 3.32327 11.9243 3.32327 13.091C3.32327 13.341 3.33994 13.5827 3.3566 13.8077C3.42327 14.666 3.44827 14.991 2.1316 15.6493C1.86494 15.7827 1.68994 16.041 1.67327 16.3327C1.6566 16.6243 1.78994 16.9077 2.0316 17.0743C2.86494 17.6493 4.3316 18.316 5.8816 18.316C7.0066 18.316 8.16494 17.966 9.14827 16.9827C10.0816 16.0493 10.5733 14.6077 10.4399 13.241L17.5733 6.10768H17.5816ZM15.0816 3.60768C15.4483 3.24101 16.0399 3.24101 16.4066 3.60768C16.7733 3.97435 16.7733 4.56601 16.4066 4.92435L9.8566 11.4743C9.51541 10.9404 9.04168 10.504 8.4816 10.2077L15.0816 3.60768ZM7.97327 15.8077C6.77327 17.0077 5.21494 16.7243 4.1566 16.316C5.06494 15.4993 5.09827 14.6577 5.02327 13.6827C5.00339 13.486 4.99227 13.2886 4.98994 13.091C4.98994 12.5077 5.2316 12.066 5.7066 11.766C6.27327 11.416 7.08994 11.3577 7.6316 11.6327C8.17327 11.8993 8.4566 12.3077 8.61494 12.6993L8.57327 12.741L8.6566 12.8243C8.69827 12.9577 8.7316 13.091 8.7566 13.216C8.9066 14.1243 8.57327 15.191 7.9566 15.8077H7.97327ZM1.93994 5.40768L3.7816 6.22435L4.59827 8.06601C4.63249 8.14596 4.68942 8.2141 4.76201 8.26199C4.8346 8.30987 4.91964 8.3354 5.0066 8.3354C5.09356 8.3354 5.17861 8.30987 5.2512 8.26199C5.32378 8.2141 5.38072 8.14596 5.41494 8.06601L6.2316 6.22435L8.07327 5.40768C8.15321 5.37346 8.22135 5.31653 8.26924 5.24394C8.31713 5.17135 8.34266 5.08631 8.34266 4.99935C8.34266 4.91239 8.31713 4.82734 8.26924 4.75475C8.22135 4.68217 8.15321 4.62523 8.07327 4.59101L6.2316 3.77435L5.41494 1.93268C5.38114 1.85435 5.32538 1.78748 5.2544 1.74016C5.18341 1.69283 5.10024 1.66708 5.01494 1.66601C4.83994 1.64935 4.6816 1.76601 4.6066 1.92435L3.7816 3.70768L1.92327 4.59935C1.84728 4.63699 1.78358 4.69548 1.73961 4.76799C1.69564 4.8405 1.67322 4.92402 1.67497 5.00881C1.67672 5.09359 1.70256 5.17612 1.74948 5.24675C1.79641 5.31739 1.86246 5.3732 1.93994 5.40768ZM18.1399 15.5243L16.7566 14.9077L16.1399 13.5243C16.1135 13.4664 16.0715 13.4169 16.0185 13.3816C15.9655 13.3462 15.9036 13.3264 15.8399 13.3243C15.7066 13.316 15.5899 13.3993 15.5316 13.516L14.9149 14.8493L13.5233 15.516C13.4066 15.5743 13.3316 15.691 13.3316 15.8243C13.3316 15.9577 13.4149 16.0743 13.5316 16.1243L14.9149 16.741L15.5316 18.1243C15.5579 18.1843 15.601 18.2352 15.6558 18.271C15.7105 18.3068 15.7745 18.3258 15.8399 18.3258C15.9053 18.3258 15.9693 18.3068 16.0241 18.271C16.0789 18.2352 16.122 18.1843 16.1483 18.1243L16.7649 16.741L18.1483 16.1243C18.2082 16.0981 18.2591 16.0549 18.2949 16.0002C18.3307 15.9454 18.3497 15.8814 18.3497 15.816C18.3497 15.7506 18.3307 15.6866 18.2949 15.6319C18.2591 15.5771 18.2082 15.5339 18.1483 15.5077L18.1399 15.5243Z" fill="#F4FDFF"/>
</svg>
