<svg width="33" height="33" viewBox="0 0 33 33" fill="none" xmlns="http://www.w3.org/2000/svg">
<circle cx="16.1812" cy="16.1812" r="16.1812" fill="#23D166"/>
<path d="M13.5335 13.3151L9.08882 13.9595L9.0101 13.9755C8.89093 14.0071 8.78229 14.0698 8.69527 14.1572C8.60826 14.2445 8.54598 14.3534 8.51482 14.4727C8.48365 14.592 8.4847 14.7174 8.51786 14.8362C8.55102 14.9549 8.6151 15.0628 8.70357 15.1487L11.9235 18.2829L11.1642 22.7102L11.1551 22.7868C11.1478 22.9101 11.1734 23.0331 11.2293 23.1432C11.2851 23.2533 11.3692 23.3466 11.473 23.4135C11.5768 23.4804 11.6965 23.5185 11.8198 23.524C11.9432 23.5294 12.0658 23.502 12.175 23.4445L16.1501 21.3545L20.1162 23.4445L20.1859 23.4765C20.3009 23.5218 20.4259 23.5357 20.548 23.5168C20.6701 23.4978 20.785 23.4467 20.8809 23.3687C20.9767 23.2907 21.0501 23.1886 21.0935 23.0729C21.1369 22.9572 21.1487 22.832 21.1278 22.7102L20.3677 18.2829L23.5891 15.148L23.6434 15.0888C23.721 14.9931 23.7719 14.8787 23.7909 14.757C23.8099 14.6353 23.7963 14.5108 23.7515 14.3961C23.7066 14.2814 23.6322 14.1806 23.5358 14.104C23.4393 14.0275 23.3243 13.9778 23.2024 13.9602L18.7577 13.3151L16.7709 9.28837C16.7134 9.17171 16.6244 9.07346 16.5139 9.00477C16.4035 8.93607 16.276 8.89966 16.146 8.89966C16.0159 8.89966 15.8884 8.93607 15.778 9.00477C15.6676 9.07346 15.5786 9.17171 15.5211 9.28837L13.5335 13.3151Z" fill="#F4FDFF"/>
</svg>
