<svg width="60" height="60" viewBox="0 0 60 60" fill="none" xmlns="http://www.w3.org/2000/svg">
<path d="M30.0107 49.7743C47.7493 49.7743 60 35.4386 60 30.96C60 26.459 47.7279 12.1458 30.0107 12.1458C12.5143 12.1447 0 26.4579 0 30.959C0 35.4375 12.4918 49.7743 30.0107 49.7743ZM30.0107 46.304C15.5657 46.304 3.84214 34.0532 3.84214 30.9579C3.84214 28.3458 15.5657 15.6129 30.0107 15.6129C44.4129 15.6129 56.1579 28.3458 56.1579 30.9579C56.1579 34.0543 44.4129 46.304 30.0107 46.304ZM30.0107 43.2525C36.8389 43.2525 42.3268 37.6543 42.3268 30.9579C42.3268 24.0868 36.8389 18.6643 30.0107 18.6643C23.1396 18.6643 17.6293 24.0857 17.6732 30.9579C17.6946 37.6543 23.1396 43.2525 30.0107 43.2525ZM30.0107 35.0422C27.7286 35.0422 25.8836 33.1972 25.8836 30.9579C25.8836 28.6972 27.7275 26.8758 30.0107 26.8758C32.2714 26.8758 34.1164 28.6972 34.1164 30.9579C34.1164 33.1972 32.2725 35.0422 30.0107 35.0422Z" fill="#F4FDFF"/>
</svg>
