<svg width="20" height="20" viewBox="0 0 20 20" fill="none" xmlns="http://www.w3.org/2000/svg">
<path fill-rule="evenodd" clip-rule="evenodd" d="M3.33203 4.16675C3.33203 3.50371 3.59542 2.86782 4.06426 2.39898C4.53311 1.93014 5.16899 1.66675 5.83203 1.66675H14.1654C14.8284 1.66675 15.4643 1.93014 15.9331 2.39898C16.402 2.86782 16.6654 3.50371 16.6654 4.16675V15.8334C16.6654 16.4965 16.402 17.1323 15.9331 17.6012C15.4643 18.07 14.8284 18.3334 14.1654 18.3334H5.83203C5.16899 18.3334 4.53311 18.07 4.06426 17.6012C3.59542 17.1323 3.33203 16.4965 3.33203 15.8334V4.16675ZM10.832 3.33341H14.1654C14.3864 3.33341 14.5983 3.42121 14.7546 3.57749C14.9109 3.73377 14.9987 3.94573 14.9987 4.16675V10.8334H10.832V3.33341ZM10.832 12.5001V16.6667H14.1654C14.3864 16.6667 14.5983 16.579 14.7546 16.4227C14.9109 16.2664 14.9987 16.0544 14.9987 15.8334V12.5001H10.832ZM9.16536 3.33341H5.83203C5.61102 3.33341 5.39906 3.42121 5.24278 3.57749C5.0865 3.73377 4.9987 3.94573 4.9987 4.16675V6.66675H9.16536V3.33341ZM4.9987 15.8334V8.33341H9.16536V16.6667H5.83203C5.61102 16.6667 5.39906 16.579 5.24278 16.4227C5.0865 16.2664 4.9987 16.0544 4.9987 15.8334Z" fill="#9B7AE6"/>
</svg>
