<svg width="66" height="66" viewBox="0 0 66 66" fill="none" xmlns="http://www.w3.org/2000/svg">
<path d="M33 7.56256C31.7201 7.56217 30.4717 7.95868 29.4265 8.69745C28.3814 9.43622 27.5911 10.4809 27.1645 11.6876C26.9758 12.1947 26.5952 12.6074 26.105 12.8366C25.6148 13.0658 25.0541 13.0931 24.5439 12.9127C24.0337 12.7323 23.6149 12.3586 23.3777 11.8722C23.1405 11.3858 23.104 10.8256 23.276 10.3126C23.987 8.30138 25.3041 6.56009 27.0458 5.32849C28.7875 4.09688 30.8682 3.43555 33.0014 3.43555C35.1345 3.43555 37.2153 4.09688 38.957 5.32849C40.6987 6.56009 42.0157 8.30138 42.7267 10.3126C42.9091 10.8286 42.879 11.3959 42.643 11.8897C42.4071 12.3835 41.9846 12.7633 41.4686 12.9457C40.9526 13.128 40.3853 13.0979 39.8915 12.862C39.3977 12.626 39.0178 12.2036 38.8355 11.6876C38.4089 10.4809 37.6186 9.43622 36.5735 8.69745C35.5283 7.95868 34.2799 7.56217 33 7.56256ZM7.5625 16.5001C7.5625 15.9531 7.7798 15.4284 8.16659 15.0417C8.55339 14.6549 9.07799 14.4376 9.625 14.4376H56.375C56.922 14.4376 57.4466 14.6549 57.8334 15.0417C58.2202 15.4284 58.4375 15.9531 58.4375 16.5001C58.4375 17.0471 58.2202 17.5717 57.8334 17.9585C57.4466 18.3453 56.922 18.5626 56.375 18.5626H9.625C9.07799 18.5626 8.55339 18.3453 8.16659 17.9585C7.7798 17.5717 7.5625 17.0471 7.5625 16.5001ZM16.2662 23.2376C16.2298 22.6916 15.9779 22.1826 15.5661 21.8223C15.1543 21.4621 14.6163 21.2802 14.0704 21.3167C13.5245 21.3532 13.0154 21.605 12.6552 22.0168C12.2949 22.4286 12.113 22.9666 12.1495 23.5126L13.4255 42.6306C13.6592 46.1561 13.849 49.0051 14.2945 51.2436C14.7592 53.5673 15.5457 55.5088 17.1737 57.0296C18.8018 58.5503 20.79 59.2103 23.1412 59.5156C25.4018 59.8126 28.2563 59.8126 31.7927 59.8126H34.21C37.7437 59.8126 40.601 59.8126 42.8615 59.5156C45.21 59.2103 47.201 58.5531 48.829 57.0296C50.4543 55.5088 51.2407 53.5646 51.7055 51.2436C52.151 49.0051 52.338 46.1561 52.5745 42.6306L53.8505 23.5126C53.887 22.9666 53.7051 22.4286 53.3448 22.0168C52.9846 21.605 52.4755 21.3532 51.9296 21.3167C51.3837 21.2802 50.8457 21.4621 50.4339 21.8223C50.0221 22.1826 49.7702 22.6916 49.7337 23.2376L48.4688 42.2126C48.2212 45.9168 48.0452 48.4963 47.6602 50.4351C47.2835 52.3188 46.761 53.3143 46.0103 54.0183C45.2568 54.7223 44.2282 55.1788 42.3252 55.4263C40.3645 55.6821 37.7795 55.6876 34.0643 55.6876H31.9357C28.2232 55.6876 25.6383 55.6821 23.6748 55.4263C21.7718 55.1788 20.7432 54.7223 19.9897 54.0183C19.239 53.3143 18.7165 52.3188 18.3398 50.4351C17.9548 48.4963 17.7788 45.9168 17.5312 42.2126L16.2662 23.2376Z" fill="#FF0B0B"/>
<path d="M25.918 28.1985C26.4621 28.144 27.0055 28.3077 27.4289 28.6538C27.8523 28.9998 28.1209 29.4997 28.1758 30.0438L29.5508 43.7938C29.5911 44.3302 29.4201 44.8612 29.0744 45.2735C28.7288 45.6857 28.2357 45.9465 27.7004 46.0003C27.1651 46.0541 26.63 45.8967 26.2091 45.5615C25.7883 45.2264 25.5151 44.74 25.4478 44.2063L24.0728 30.4563C24.0183 29.9122 24.182 29.3688 24.528 28.9454C24.874 28.522 25.374 28.2534 25.918 28.1985ZM41.9258 30.4563C41.9661 29.9198 41.7951 29.3888 41.4494 28.9766C41.1038 28.5644 40.6107 28.3035 40.0754 28.2497C39.5401 28.1959 39.005 28.3534 38.5841 28.6885C38.1633 29.0237 37.8901 29.51 37.8228 30.0438L36.4478 43.7938C36.4075 44.3302 36.5784 44.8612 36.9241 45.2735C37.2698 45.6857 37.7629 45.9465 38.2982 46.0003C38.8335 46.0541 39.3686 45.8967 39.7894 45.5615C40.2103 45.2264 40.4835 44.74 40.5508 44.2063L41.9258 30.4563Z" fill="#FF0B0B"/>
</svg>
