<svg width="16" height="16" viewBox="0 0 16 16" fill="none" xmlns="http://www.w3.org/2000/svg">
<g clip-path="url(#clip0_4064_4267)">
<path d="M8.00286 13.2731C12.7331 13.2731 16 9.4502 16 8.25591C16 7.05563 12.7274 3.23877 8.00286 3.23877C3.33714 3.23848 0 7.05534 0 8.25563C0 9.44991 3.33114 13.2731 8.00286 13.2731ZM8.00286 12.3476C4.15086 12.3476 1.02457 9.08077 1.02457 8.25534C1.02457 7.55877 4.15086 4.16334 8.00286 4.16334C11.8434 4.16334 14.9754 7.55877 14.9754 8.25534C14.9754 9.08106 11.8434 12.3476 8.00286 12.3476ZM8.00286 11.5339C9.82372 11.5339 11.2871 10.0411 11.2871 8.25534C11.2871 6.42305 9.82372 4.97706 8.00286 4.97706C6.17057 4.97706 4.70114 6.42277 4.71286 8.25534C4.71857 10.0411 6.17057 11.5339 8.00286 11.5339ZM8.00286 9.34448C7.39429 9.34448 6.90229 8.85248 6.90229 8.25534C6.90229 7.65248 7.394 7.16677 8.00286 7.16677C8.60571 7.16677 9.09771 7.65248 9.09771 8.25534C9.09771 8.85248 8.606 9.34448 8.00286 9.34448Z" fill="black"/>
</g>
<defs>
<clipPath id="clip0_4064_4267">
<rect width="16" height="16" fill="white"/>
</clipPath>
</defs>
</svg>
