<svg width="20" height="20" viewBox="0 0 20 20" fill="none" xmlns="http://www.w3.org/2000/svg">
<path d="M8.33854 7.49984C8.33854 7.72085 8.25074 7.93281 8.09446 8.08909C7.93818 8.24537 7.72622 8.33317 7.50521 8.33317C7.28419 8.33317 7.07223 8.24537 6.91595 8.08909C6.75967 7.93281 6.67187 7.72085 6.67187 7.49984C6.67187 7.27882 6.75967 7.06686 6.91595 6.91058C7.07223 6.7543 7.28419 6.6665 7.50521 6.6665C7.72622 6.6665 7.93818 6.7543 8.09446 6.91058C8.25074 7.06686 8.33854 7.27882 8.33854 7.49984ZM12.5052 8.33317C12.7262 8.33317 12.9382 8.24537 13.0945 8.08909C13.2507 7.93281 13.3385 7.72085 13.3385 7.49984C13.3385 7.27882 13.2507 7.06686 13.0945 6.91058C12.9382 6.7543 12.7262 6.6665 12.5052 6.6665C12.2842 6.6665 12.0722 6.7543 11.916 6.91058C11.7597 7.06686 11.6719 7.27882 11.6719 7.49984C11.6719 7.72085 11.7597 7.93281 11.916 8.08909C12.0722 8.24537 12.2842 8.33317 12.5052 8.33317ZM1.67188 4.99984C1.67188 4.11578 2.02306 3.26794 2.64819 2.64281C3.27331 2.01769 4.12115 1.6665 5.00521 1.6665L15.0052 1.6665C15.8893 1.6665 16.7371 2.01769 17.3622 2.64281C17.9873 3.26794 18.3385 4.11578 18.3385 4.99984V12.4998C18.3387 12.6093 18.3173 12.7178 18.2756 12.8191C18.2338 12.9203 18.1725 13.0123 18.0952 13.0898L13.0952 18.0898C13.0177 18.1672 12.9257 18.2285 12.8244 18.2702C12.7232 18.312 12.6147 18.3334 12.5052 18.3332H5.00521C4.12115 18.3332 3.27331 17.982 2.64819 17.3569C2.02306 16.7317 1.67188 15.8839 1.67188 14.9998L1.67188 4.99984ZM5.00521 3.33317C4.56318 3.33317 4.13926 3.50876 3.8267 3.82133C3.51414 4.13389 3.33854 4.55781 3.33854 4.99984L3.33854 14.9998C3.33854 15.4419 3.51414 15.8658 3.8267 16.1783C4.13926 16.4909 4.56318 16.6665 5.00521 16.6665H10.0052L10.0052 13.3498H9.99854C8.86854 13.3498 8.04521 12.7798 7.54021 12.2715C7.24224 11.9709 6.98656 11.6311 6.78021 11.2615L6.76687 11.2365L6.76354 11.2282L6.76187 11.2248L6.76021 11.2232C6.66539 11.0232 6.65392 10.7937 6.72831 10.5852C6.8027 10.3767 6.95686 10.2063 7.15687 10.1115C7.35689 10.0167 7.58638 10.0052 7.79486 10.0796C8.00334 10.154 8.17373 10.3082 8.26854 10.5082C8.28521 10.5415 8.3141 10.5882 8.35521 10.6482C8.43687 10.7715 8.55854 10.9348 8.72021 11.0948C9.04521 11.4215 9.46854 11.6832 9.99854 11.6832C10.1652 11.6839 10.3308 11.6569 10.4885 11.6032C11.0719 10.6415 12.1302 9.99984 13.3385 9.99984L16.6719 9.99984V4.99984C16.6719 4.55781 16.4963 4.13389 16.1837 3.82133C15.8712 3.50876 15.4472 3.33317 15.0052 3.33317L5.00521 3.33317ZM16.6719 11.6665L13.3385 11.6665C12.8965 11.6665 12.4726 11.8421 12.16 12.1547C11.8475 12.4672 11.6719 12.8911 11.6719 13.3332L11.6719 16.6665H12.1602L16.6719 12.1548V11.6665Z" fill="#F4FDFF"/>
</svg>
