<svg width="20" height="17" viewBox="0 0 20 17" fill="none" xmlns="http://www.w3.org/2000/svg">
<path d="M0.695884 4.01131L3.98092 9.14282L6.06012 14.8712C6.65488 16.5104 8.81796 16.8606 9.9005 15.4935L19.0365 3.95085C20.2033 2.47763 19.1329 0.310652 17.2539 0.341883L2.53559 0.583292C0.791578 0.611193 -0.244393 2.54281 0.695884 4.01131Z" fill="#9B7AE6"/>
<path d="M3.98092 9.14282L0.695884 4.01131C-0.244393 2.54281 0.791578 0.611193 2.53559 0.583292L17.2539 0.341883C19.1329 0.310652 20.2033 2.47763 19.0365 3.95085L9.9005 15.4935C8.81796 16.8606 6.65488 16.5103 6.06012 14.8712L3.98092 9.14282ZM3.98092 9.14282L10.9712 5.68997" stroke="#F4FDFF" stroke-width="0.682848" stroke-linecap="round" stroke-linejoin="round"/>
</svg>
