<svg width="22" height="22" viewBox="0 0 22 22" fill="none" xmlns="http://www.w3.org/2000/svg">
<g clip-path="url(#clip0_4006_2480)">
<path d="M2.90325 9.66667C2.65504 9.91519 2.51563 10.2521 2.51563 10.6033C2.51563 10.9545 2.65504 11.2914 2.90325 11.5399L7.90096 16.5403C8.1496 16.7889 8.48684 16.9286 8.83847 16.9286C9.19011 16.9286 9.52734 16.7889 9.77599 16.5403C10.0246 16.2917 10.1643 15.9544 10.1643 15.6028C10.1643 15.2511 10.0246 14.9139 9.77599 14.6653L7.04032 11.9287H17.2328C17.5843 11.9287 17.9214 11.7891 18.17 11.5405C18.4186 11.292 18.5582 10.9548 18.5582 10.6033C18.5582 10.2518 18.4186 9.91465 18.17 9.66609C17.9214 9.41752 17.5843 9.27788 17.2328 9.27788H7.04032L9.77599 6.54222C9.8991 6.4191 9.99676 6.27294 10.0634 6.11208C10.13 5.95123 10.1643 5.77882 10.1643 5.60471C10.1643 5.43059 10.13 5.25819 10.0634 5.09733C9.99676 4.93647 9.8991 4.79031 9.77599 4.66719C9.65287 4.54408 9.50671 4.44642 9.34585 4.37979C9.18499 4.31316 9.01259 4.27886 8.83847 4.27886C8.66436 4.27886 8.49195 4.31316 8.3311 4.37979C8.17024 4.44642 8.02408 4.54408 7.90096 4.66719L2.90325 9.66667Z" fill="#9B7AE6"/>
</g>
<defs>
<clipPath id="clip0_4006_2480">
<rect width="21.2067" height="21.2067" fill="white" transform="matrix(0 -1 1 0 0 21.2067)"/>
</clipPath>
</defs>
</svg>
