<svg width="16" height="16" viewBox="0 0 16 16" fill="none" xmlns="http://www.w3.org/2000/svg">
<path d="M14 11C14 11.3229 13.9245 11.6068 13.7734 11.8516C13.6224 12.0964 13.4245 12.3047 13.1797 12.4766C12.9349 12.6484 12.6641 12.7786 12.3672 12.8672C12.0703 12.9557 11.7812 13 11.5 13C11.2188 13 10.9297 12.9557 10.6328 12.8672C10.3359 12.7786 10.0677 12.651 9.82812 12.4844C9.58854 12.3177 9.39062 12.1094 9.23438 11.8594C9.07812 11.6094 9 11.3229 9 11C9 10.6823 9.07552 10.3984 9.22656 10.1484C9.3776 9.89844 9.57552 9.6901 9.82031 9.52344C10.0651 9.35677 10.3359 9.22656 10.6328 9.13281C10.9297 9.03906 11.2188 8.99479 11.5 9C11.7656 9 12.026 9.03125 12.2812 9.09375C12.5365 9.15625 12.776 9.25781 13 9.39844V1.76562L6 3.51562V13C6 13.3229 5.92448 13.6068 5.77344 13.8516C5.6224 14.0964 5.42448 14.3047 5.17969 14.4766C4.9349 14.6484 4.66406 14.7786 4.36719 14.8672C4.07031 14.9557 3.78125 15 3.5 15C3.21875 15 2.92969 14.9557 2.63281 14.8672C2.33594 14.7786 2.06771 14.651 1.82812 14.4844C1.58854 14.3177 1.39062 14.1094 1.23438 13.8594C1.07812 13.6094 1 13.3229 1 13C1 12.6823 1.07552 12.3984 1.22656 12.1484C1.3776 11.8984 1.57552 11.6901 1.82031 11.5234C2.0651 11.3568 2.33594 11.2266 2.63281 11.1328C2.92969 11.0391 3.21875 10.9948 3.5 11C3.76562 11 4.02604 11.0312 4.28125 11.0938C4.53646 11.1562 4.77604 11.2578 5 11.3984V2.73438L14 0.484375V11Z" fill="#9B7AE6"/>
</svg>
