<svg width="16" height="17" viewBox="0 0 16 17" fill="none" xmlns="http://www.w3.org/2000/svg">
<path d="M5.66989 13.0966L5.66989 3.70328C5.66996 3.42901 5.76022 3.16238 5.92677 2.94447C6.09333 2.72657 6.32692 2.56949 6.59156 2.49745L13.3832 0.644949C13.5687 0.59433 13.7633 0.587161 13.9519 0.623998C14.1406 0.660836 14.3182 0.740689 14.471 0.857347C14.6238 0.974006 14.7476 1.12433 14.8328 1.29663C14.918 1.46893 14.9624 1.65856 14.9624 1.85078V11.4074M5.66989 13.0966C5.66989 13.7687 5.4029 14.4133 4.92765 14.8885C4.45241 15.3638 3.80783 15.6308 3.13573 15.6308C2.46363 15.6308 1.81905 15.3638 1.3438 14.8885C0.868554 14.4133 0.601563 13.7687 0.601563 13.0966C0.601563 12.4245 0.868554 11.7799 1.3438 11.3047C1.81905 10.8294 2.46363 10.5624 3.13573 10.5624C3.80783 10.5624 4.45241 10.8294 4.92765 11.3047C5.4029 11.7799 5.66989 12.4245 5.66989 13.0966ZM5.67073 6.38995L14.9624 3.85662" stroke="#F4FDFF" stroke-width="1.20171" stroke-linecap="round" stroke-linejoin="round"/>
<path d="M14.7661 12.3765C14.8934 12.069 14.959 11.7395 14.959 11.4067C14.959 10.7346 14.692 10.09 14.2167 9.6148C13.7415 9.13955 13.0969 8.87256 12.4248 8.87256C11.7527 8.87256 11.1081 9.13955 10.6329 9.6148C10.1576 10.09 9.89062 10.7346 9.89062 11.4067C9.89062 11.7395 9.95617 12.069 10.0835 12.3765C10.2109 12.684 10.3975 12.9633 10.6329 13.1987C10.8682 13.434 11.1475 13.6206 11.455 13.748C11.7625 13.8753 12.092 13.9409 12.4248 13.9409C12.7576 13.9409 13.0871 13.8753 13.3946 13.748C13.702 13.6206 13.9814 13.434 14.2167 13.1987C14.452 12.9633 14.6387 12.684 14.7661 12.3765Z" stroke="#F4FDFF" stroke-width="1.20171" stroke-linecap="round" stroke-linejoin="round"/>
</svg>
