<svg width="26" height="26" viewBox="0 0 26 26" fill="none" xmlns="http://www.w3.org/2000/svg">
<path d="M10.0216 23.8334L9.58828 20.3667C9.35356 20.2765 9.13256 20.1681 8.92528 20.0417C8.718 19.9154 8.5147 19.7799 8.31536 19.6355L5.09245 20.9897L2.11328 15.8438L4.90286 13.7313C4.88481 13.6049 4.87578 13.4832 4.87578 13.3662V12.635C4.87578 12.5173 4.88481 12.3952 4.90286 12.2688L2.11328 10.1563L5.09245 5.0105L8.31536 6.36466C8.51398 6.22022 8.72161 6.0848 8.93828 5.95841C9.15495 5.83203 9.37161 5.72369 9.58828 5.63341L10.0216 2.16675H15.9799L16.4133 5.63341C16.648 5.72369 16.8694 5.83203 17.0774 5.95841C17.2854 6.0848 17.4883 6.22022 17.6862 6.36466L20.9091 5.0105L23.8883 10.1563L21.0987 12.2688C21.1168 12.3952 21.1258 12.5173 21.1258 12.635V13.3652C21.1258 13.4829 21.1077 13.6049 21.0716 13.7313L23.8612 15.8438L20.882 20.9897L17.6862 19.6355C17.4876 19.7799 17.2799 19.9154 17.0633 20.0417C16.8466 20.1681 16.6299 20.2765 16.4133 20.3667L15.9799 23.8334H10.0216ZM13.0549 16.7917C14.1022 16.7917 14.9959 16.4216 15.7362 15.6813C16.4765 14.9411 16.8466 14.0473 16.8466 13.0001C16.8466 11.9529 16.4765 11.0591 15.7362 10.3188C14.9959 9.57855 14.1022 9.20841 13.0549 9.20841C11.9897 9.20841 11.0912 9.57855 10.3596 10.3188C9.628 11.0591 9.26256 11.9529 9.26328 13.0001C9.264 14.0473 9.62981 14.9411 10.3607 15.6813C11.0916 16.4216 11.9897 16.7917 13.0549 16.7917Z" fill="black"/>
</svg>
