<svg width="58" height="58" viewBox="0 0 58 58" fill="none" xmlns="http://www.w3.org/2000/svg">
<path d="M28.8203 53.8313C16.1781 53.8313 2.53906 45.9016 2.53906 28.5016C2.53906 11.1016 16.1781 3.17188 28.8203 3.17188C35.8438 3.17188 42.3234 5.48281 47.1266 9.69688C52.3375 14.3188 55.1016 20.8438 55.1016 28.5016C55.1016 36.1594 52.3375 42.6391 47.1266 47.2609C42.3234 51.475 35.7984 53.8313 28.8203 53.8313Z" fill="url(#paint0_radial_2105_2512)"/>
<path d="M50.5161 13.4442C52.9313 17.3411 54.1909 21.9811 54.1909 27.1422C54.1909 34.8 51.4269 41.2797 46.2159 45.9016C41.4128 50.1156 34.8878 52.4719 27.9097 52.4719C19.7263 52.4719 11.1441 49.1414 6.07812 42.0772C10.9538 50.0794 20.125 53.8312 28.8159 53.8312C35.7941 53.8312 42.3191 51.475 47.1222 47.2609C52.3331 42.6391 55.0972 36.1594 55.0972 28.5016C55.0972 22.7287 53.5248 17.5994 50.5161 13.4442Z" fill="#EB8F00"/>
<path d="M28.999 35.9781C33.8927 35.9781 37.3365 38.5156 38.3787 40.1016C38.574 40.3475 38.6983 40.6421 38.7383 40.9536C38.7782 41.2651 38.7322 41.5816 38.6052 41.8688C38.4059 42.2358 38.0252 42.4624 37.6084 42.4578C37.4543 42.4488 37.3002 42.4171 37.1552 42.3672C34.5027 41.6107 31.7573 41.2294 28.999 41.2344C26.253 41.2163 23.5162 41.615 20.888 42.4125C20.743 42.4624 20.589 42.4941 20.4349 42.5031C20.018 42.5167 19.6284 42.2902 19.438 41.9141C19.1752 41.3296 19.2659 40.6453 19.6646 40.1469C20.6615 38.5156 24.1505 35.9781 28.999 35.9781Z" fill="#422B0D"/>
<path d="M16.7656 47.3515C13.8203 47.3515 11.5547 44.4969 11.5547 42.05C11.5547 40.3281 12.325 38.3344 13.4125 35.5703C13.5484 35.1625 13.7297 34.7547 13.9109 34.3015C14.5453 32.6612 15.2703 31.0572 16.0859 29.4984C16.2491 29.1858 16.6206 29.0498 16.9469 29.1812C17.0828 29.2492 17.1961 29.3625 17.2641 29.4984C17.9437 30.9031 18.7141 32.625 19.4844 34.3922C21.3875 38.6515 21.9313 40.3734 21.9313 42.0953C21.9766 44.4969 19.6656 47.3515 16.7656 47.3515Z" fill="url(#paint1_radial_2105_2512)"/>
<path d="M19.9406 44.0846C19.2745 45.1132 17.7656 44.9183 17.7656 43.21C17.7656 42.118 17.9877 36.5083 18.9256 37.2922C20.4662 38.57 20.9012 42.63 19.9406 44.0846Z" fill="#81D4FA"/>
<path d="M13.597 21.1609C13.0306 21.9992 11.6848 21.46 12.079 20.445C13.0079 18.2383 14.7434 16.4711 16.9365 15.5105C17.7385 15.1298 18.604 14.8897 19.4876 14.7945C19.9362 14.7039 20.3757 14.9939 20.4663 15.4425C20.557 15.8911 20.267 16.3306 19.8138 16.4213H19.7549C17.226 17.2605 15.0556 18.9311 13.597 21.1609ZM44.0878 21.1609C44.6542 21.9992 45.9999 21.46 45.6057 20.445C44.6737 18.2341 42.926 16.467 40.7256 15.5105C39.9235 15.1298 39.0671 14.8897 38.1835 14.7945C37.7349 14.7039 37.2954 14.9939 37.2093 15.4425C37.1187 15.8911 37.4087 16.3306 37.8573 16.4213H37.9162C40.4492 17.255 42.6287 18.927 44.0878 21.1609ZM20.2443 21.2697C18.3457 21.2697 16.6193 22.8738 16.6193 25.5381C16.6193 28.2025 18.3457 29.802 20.2443 29.802C22.1429 29.802 23.8693 28.198 23.8693 25.5381C23.8693 22.8783 22.1429 21.2697 20.2443 21.2697Z" fill="#422B0D"/>
<path d="M20.0682 23.0505C19.7579 22.9029 19.4019 22.8839 19.0776 22.9976C18.7534 23.1113 18.4873 23.3486 18.3372 23.6577C18.0971 24.1606 18.2058 24.7633 18.6091 25.153C19.2525 25.4611 20.0274 25.1892 20.34 24.5458C20.5802 24.0428 20.4714 23.4402 20.0682 23.0505Z" fill="#896024"/>
<path d="M37.6094 21.2697C35.7108 21.2697 33.9844 22.8737 33.9844 25.5381C33.9844 28.2025 35.7108 29.802 37.6094 29.802C39.508 29.802 41.2344 28.1979 41.2344 25.5381C41.2344 22.8782 39.517 21.2697 37.6094 21.2697Z" fill="#422B0D"/>
<path d="M37.4432 23.0505C37.1329 22.9029 36.7769 22.8839 36.4526 22.9976C36.1284 23.1113 35.8623 23.3486 35.7122 23.6577C35.4721 24.1606 35.5808 24.7633 35.9841 25.153C36.6275 25.4611 37.4024 25.1892 37.715 24.5458C37.9552 24.0428 37.8464 23.4402 37.4432 23.0505Z" fill="#896024"/>
<defs>
<radialGradient id="paint0_radial_2105_2512" cx="0" cy="0" r="1" gradientUnits="userSpaceOnUse" gradientTransform="translate(28.8203 28.5016) scale(25.81 25.81)">
<stop offset="0.5" stop-color="#FDE030"/>
<stop offset="0.92" stop-color="#F7C02B"/>
<stop offset="1" stop-color="#F4A223"/>
</radialGradient>
<radialGradient id="paint1_radial_2105_2512" cx="0" cy="0" r="1" gradientUnits="userSpaceOnUse" gradientTransform="translate(17.1372 31.4436) scale(11.9716 18.4362)">
<stop offset="0.46" stop-color="#29B6F6"/>
<stop offset="1" stop-color="#1E88E5"/>
</radialGradient>
</defs>
</svg>
