<svg width="57" height="54" viewBox="0 0 57 54" fill="none" xmlns="http://www.w3.org/2000/svg">
<path d="M16.2551 46.9913H13.6562V22.6382L26.4596 4.35307C27.1729 3.33603 28.2061 2.58923 29.3933 2.2327C30.5804 1.87616 31.8525 1.9306 33.0051 2.38727C34.1577 2.84393 35.1238 3.6763 35.7483 4.75058C36.3727 5.82487 36.6191 7.07868 36.448 8.31051L35.4899 15.2382H43.9265C47.6149 15.2382 54.996 18.9403 54.996 26.3445C54.996 33.7488 47.5768 50.6935 39.7294 50.6935C29.3976 50.6935 20.5582 48.2254 16.2551 46.9913Z" fill="#D7E0FF"/>
<path d="M2 21.6809C2 20.1291 2.61416 18.6409 3.70738 17.5436C4.8006 16.4463 6.28332 15.8298 7.82936 15.8298C9.3754 15.8298 10.8581 16.4463 11.9513 17.5436C13.0446 18.6409 13.6587 20.1291 13.6587 21.6809V46.149C13.6587 47.7008 13.0446 49.189 11.9513 50.2863C10.8581 51.3836 9.3754 52 7.82936 52C6.28332 52 4.8006 51.3836 3.70738 50.2863C2.61416 49.189 2 47.7008 2 46.149V21.6809Z" fill="white"/>
<path d="M16.2576 46.9913H13.6587V22.6382L26.4621 4.35307C27.1754 3.33603 28.2086 2.58923 29.3958 2.2327C30.5829 1.87616 31.855 1.9306 33.0076 2.38727C34.1602 2.84393 35.1263 3.6763 35.7507 4.75058C36.3752 5.82487 36.6216 7.07868 36.4505 8.31051L35.4923 15.2382H43.929C47.6174 15.2382 54.9984 18.9403 54.9984 26.3445C54.9984 33.7488 47.5792 50.6935 39.7319 50.6935C29.4001 50.6935 20.5607 48.2254 16.2576 46.9913ZM2 21.6807C2 18.4467 4.61155 15.8297 7.82936 15.8297C11.0514 15.8297 13.6587 18.4509 13.6587 21.6807V46.1488C13.6587 49.3828 11.0472 51.9998 7.82936 51.9998C4.60731 51.9998 2 49.3786 2 46.1488V21.6807Z" stroke="#4147D5" stroke-width="4" stroke-linecap="round" stroke-linejoin="round"/>
</svg>
