<svg width="58" height="58" viewBox="0 0 58 58" fill="none" xmlns="http://www.w3.org/2000/svg">
<path d="M46.7289 46.4136C37.7887 55.3537 22.5366 59.3911 10.2342 47.0842C-2.06813 34.7773 1.96468 19.5297 10.9048 10.5895C15.8575 5.62326 22.088 2.67795 28.4634 2.26561C35.4189 1.84873 41.9847 4.50858 47.3995 9.92342C52.8144 15.3383 55.4425 21.8723 55.0256 28.8278C54.6087 35.1987 51.6544 41.479 46.7289 46.4136Z" fill="url(#paint0_radial_2105_2535)"/>
<path d="M33.5281 2.51025C37.9869 3.55697 42.1375 5.94947 45.8123 9.59713C51.2498 15.0346 53.8553 21.5506 53.4384 28.5015C53.0125 34.8906 50.0581 41.1573 45.1236 46.0918C39.3372 51.8782 30.9045 55.6074 22.3359 54.1801C31.4438 56.3913 40.5788 52.5624 46.7277 46.4135C51.6531 41.479 54.6075 35.1987 55.0244 28.8232C55.4413 21.8678 52.8131 15.3337 47.3983 9.91885C43.3156 5.83619 38.5759 3.32135 33.5281 2.51025Z" fill="#EB8F00"/>
<path d="M43.8232 17.9256C42.568 17.5631 41.2358 18.1839 40.7057 19.3801C38.3718 23.6241 35.4404 27.5109 32.0011 30.9212C28.5936 34.3604 24.7058 37.2921 20.46 39.6212C19.884 39.88 19.4202 40.3372 19.1532 40.9095C18.8861 41.4818 18.8337 42.131 19.0055 42.7387C19.3771 43.9848 20.6232 44.5965 21.7968 45.036C28.3716 47.4965 35.608 45.6659 41.1678 40.1378L41.2222 40.0879C46.7458 34.5281 48.5764 27.2917 46.116 20.7123C45.681 19.5432 45.0647 18.2926 43.8232 17.9256Z" fill="#422B0D"/>
<path d="M40.8159 39.6847L40.7887 39.7119V39.7391L40.8159 39.6847ZM32.4467 31.2656L32.3969 31.3109L32.3516 31.3608L32.4467 31.2656Z" fill="#422B0D"/>
<path d="M32.4467 31.2656L32.3969 31.3109L32.3516 31.3608L32.4467 31.2656ZM40.8159 39.6847L40.7887 39.7119V39.7391L40.8159 39.6847Z" fill="#422B0D"/>
<path d="M45.0403 33.7035C44.8092 33.7035 44.5871 33.7352 44.3696 33.7533C41.9092 33.9119 39.5982 34.9858 37.89 36.7621C36.0593 38.5202 34.8993 40.8674 34.6093 43.3913C34.5821 43.6133 34.555 43.8444 34.5414 44.0619C34.5278 44.2794 34.5776 44.4607 34.6048 44.6419C37.0544 43.5643 39.28 42.0365 41.1661 40.1379L41.2204 40.088C43.0375 38.2801 44.5146 36.1594 45.5795 33.8304C45.4028 33.776 45.2215 33.7352 45.0403 33.7035Z" fill="#ED7770"/>
<path d="M40.7057 19.3801C38.3718 23.6241 35.4404 27.5109 32.0011 30.9212C28.5936 34.3604 24.7058 37.2921 20.46 39.6212C19.884 39.88 19.4202 40.3372 19.1532 40.9095C18.8861 41.4818 18.8337 42.131 19.0055 42.7387C19.0644 42.9245 19.1414 43.1012 19.2411 43.2689C19.4269 43.2054 19.6036 43.1329 19.7803 43.0468C25.5678 41.1273 30.8126 37.8523 35.0779 33.4949C39.2594 29.4045 42.4506 24.4123 44.4077 18.8998C44.4847 18.714 44.5527 18.5237 44.6116 18.3289C44.376 18.1476 44.1086 18.0071 43.8232 17.9256C42.568 17.5631 41.2358 18.1839 40.7057 19.3801Z" fill="white"/>
<path d="M32.3514 31.6009C35.0112 29.0272 36.7512 26.4988 38.8446 23.4175C39.3657 22.6472 39.8596 21.8588 40.3354 21.0477L40.6798 20.4359C40.7704 20.2773 40.8701 20.1233 40.9879 19.9828C41.1964 19.7245 41.4637 19.5252 41.7718 19.3983C42.4878 19.1355 43.2717 19.1219 43.9967 19.362C45.4693 20.0689 46.7517 22.5883 46.5885 22.117C46.5885 22.117 46.3212 21.0613 46.3121 21.0477C45.9496 20.1414 45.5781 19.1173 44.6401 18.3289C44.1473 17.953 43.5619 17.7174 42.946 17.6472C42.3302 17.577 41.7068 17.6748 41.142 17.9302C40.6044 18.1743 40.1369 18.5498 39.7826 19.0222C39.6104 19.2397 39.4564 19.4753 39.3295 19.7245L39.0259 20.3227C38.6045 21.1156 38.1559 21.8995 37.6665 22.6653C35.9265 25.5698 33.8739 28.275 31.5448 30.7309L31.4723 30.8034C29.0681 33.1049 26.4145 35.1309 23.5607 36.8436C22.7904 37.2967 22.011 37.7498 21.2181 38.203L20.6018 38.5156C20.3526 38.6425 20.117 38.792 19.8995 38.9688C19.4246 39.3216 19.0473 39.7894 18.8029 40.3281C18.5645 40.8896 18.4808 41.5047 18.5605 42.1095C18.6402 42.7143 18.8804 43.2867 19.256 43.7673C20.4749 45.3578 23.2571 45.5798 23.2707 45.5798C23.7239 45.743 20.9779 44.5739 20.271 43.1013C20.0218 42.4023 20.0218 41.6388 20.271 40.9398C20.3889 40.6227 20.5837 40.3417 20.842 40.1242C20.9824 40.0064 21.1365 39.9067 21.2951 39.8206L21.9068 39.4763C22.7134 39.0231 23.5018 38.502 24.2767 37.9809C27.3534 35.8875 29.7142 34.3559 32.2743 31.6734" fill="#EB8F00"/>
<path d="M52.1711 14.201C52.7149 17.6628 49.5339 20.9435 46.6475 21.3332C44.6175 21.605 42.3519 21.1383 38.9444 20.291C38.4414 20.1958 37.9294 20.0463 37.3675 19.9058C35.2922 19.3303 33.2531 18.6371 31.2549 17.8305C31.0656 17.761 30.9087 17.624 30.8142 17.4459C30.7197 17.2678 30.6943 17.061 30.7428 16.8653C30.8017 16.6932 30.9195 16.5436 31.0691 16.4439C32.5978 14.8768 34.3164 13.5068 36.1849 12.3658C40.9019 9.44769 42.6963 9.05347 44.7263 8.78159C47.5266 8.32394 51.582 10.4219 52.1711 14.201Z" fill="url(#paint1_radial_2105_2535)"/>
<path d="M47.817 10.9611C49.1356 11.5864 49.1447 13.3944 47.1328 13.6798C45.8414 13.852 39.194 14.4773 39.9689 13.2494C41.2376 11.233 45.9547 10.0775 47.817 10.9611Z" fill="#81D4FA"/>
<path d="M32.9234 14.0922L28.7411 17.8441L30.2907 11.8855C30.3043 11.813 30.3179 11.745 30.3225 11.6725C30.3633 11.4267 30.3552 11.1753 30.2987 10.9326C30.2421 10.69 30.1383 10.4608 29.9931 10.2584C29.8479 10.0559 29.6641 9.88409 29.4524 9.75275C29.2407 9.62142 29.0051 9.53314 28.7592 9.493C28.5145 9.45221 28.2608 9.46128 28.0161 9.51565C27.4782 9.66351 26.9988 9.97327 26.6429 10.4029C26.2871 10.8325 26.072 11.3612 26.0268 11.9172C25.7686 14.5499 25.1614 20.7532 24.9258 23.1683C24.8533 23.4085 24.9892 23.6622 25.2293 23.7347C25.3879 23.7846 25.5601 23.7392 25.6779 23.6214L35.0531 17.6946L35.2389 17.5632C36.3717 16.6932 36.6481 15.0347 35.7328 14.0741C35.035 13.34 33.8297 13.3989 32.9234 14.0922Z" fill="#422B0D"/>
<path d="M11.7397 47.1251C11.5766 45.1721 11.5721 43.414 13.3347 38.3979C14.0235 36.4132 14.9569 34.5237 16.1124 32.7701C16.1758 32.6069 16.2936 32.471 16.4432 32.3804C16.8011 32.1991 17.2361 32.3215 17.4536 32.6568C18.6182 34.3605 19.683 36.1277 20.6527 37.9493C20.8974 38.4477 21.1421 38.8918 21.3369 39.3449C22.8322 42.3763 23.7339 44.4018 23.8971 46.3548C24.1282 49.1324 21.713 52.7846 18.3644 52.993C14.7168 53.2015 11.9119 49.8438 11.7397 47.1251Z" fill="url(#paint2_radial_2105_2535)"/>
<path d="M14.9506 41.7646C15.9339 40.7813 16.7178 47.1251 16.822 48.3711C16.9806 50.3105 15.286 50.673 14.4341 49.5719C13.2197 48.0313 13.333 43.3596 14.9506 41.7646Z" fill="#81D4FA"/>
<path d="M13.6737 35.6881L16.6915 30.9439L11.0682 33.4542L10.8779 33.5312C9.88557 33.8666 8.80713 33.3364 8.46729 32.344C8.38572 32.1084 8.35401 31.8592 8.37213 31.61C8.42917 31.0548 8.65599 30.5307 9.02168 30.109C9.38737 29.6874 9.87416 29.3887 10.4157 29.2537L21.2998 26.3039C21.5263 26.1951 21.7982 26.2903 21.907 26.5169C21.9795 26.6664 21.9659 26.8431 21.8662 26.9745L17.5751 37.1925C17.5479 37.265 17.5162 37.333 17.4799 37.4009C16.8093 38.6606 15.2143 39.2134 14.1178 38.4612C13.2795 37.8903 13.1435 36.7031 13.6737 35.6881Z" fill="#422B0D"/>
<defs>
<radialGradient id="paint0_radial_2105_2535" cx="0" cy="0" r="1" gradientUnits="userSpaceOnUse" gradientTransform="translate(28.0339 27.5516) rotate(-45) scale(25.81)">
<stop offset="0.5" stop-color="#FDE030"/>
<stop offset="0.92" stop-color="#F7C02B"/>
<stop offset="1" stop-color="#F4A223"/>
</radialGradient>
<radialGradient id="paint1_radial_2105_2535" cx="0" cy="0" r="1" gradientTransform="matrix(-1.86144 -14.1756 -21.9077 3.00694 35.1128 13.822)" gradientUnits="userSpaceOnUse">
<stop offset="0.46" stop-color="#29B6F6"/>
<stop offset="1" stop-color="#1E88E5"/>
</radialGradient>
<radialGradient id="paint2_radial_2105_2535" cx="0" cy="0" r="1" gradientTransform="matrix(-13.7116 1.09692 -1.7825 -20.9787 17.876 33.392)" gradientUnits="userSpaceOnUse">
<stop offset="0.46" stop-color="#29B6F6"/>
<stop offset="1" stop-color="#1E88E5"/>
</radialGradient>
</defs>
</svg>
