<svg width="52" height="52" viewBox="0 0 52 52" fill="none" xmlns="http://www.w3.org/2000/svg">
<path d="M14.4476 16.5466C14.216 19.0166 14.0535 23.3878 15.5119 25.2485C15.5119 25.2485 14.8254 20.4466 20.9801 14.4219C23.4582 11.9966 24.031 8.69783 23.1657 6.22377C22.6741 4.82221 21.7763 3.6644 20.9963 2.85596C20.5413 2.38065 20.8907 1.59658 21.5529 1.62502C25.5585 1.80377 32.0504 2.91689 34.8088 9.83939C36.0194 12.8781 36.1088 16.0185 35.5319 19.2116C35.1663 21.251 33.8663 25.7847 36.8319 26.3413C38.9485 26.7394 39.9722 25.0575 40.4313 23.8469C40.6222 23.3431 41.2844 23.2172 41.6419 23.6194C45.2169 27.686 45.5216 32.4756 44.7822 36.5991C43.3522 44.5697 35.2801 50.371 27.2607 50.371C17.2426 50.371 9.26787 44.6388 7.20006 34.2631C6.36725 30.0747 6.78975 21.7872 13.2491 15.9372C13.7285 15.4985 14.5126 15.8885 14.4476 16.5466Z" fill="url(#paint0_radial_2105_2632)"/>
<path d="M30.9219 31.4518C27.2291 26.6987 28.8825 21.2753 29.7885 19.114C29.9104 18.8296 29.5854 18.5615 29.3294 18.7362C27.741 19.8168 24.4869 22.36 22.9716 25.939C20.92 30.7775 21.0663 33.1459 22.281 36.0384C23.0122 37.7812 22.1632 38.1509 21.7366 38.2159C21.3222 38.2809 20.9404 38.0046 20.6357 37.7162C19.7593 36.8746 19.1347 35.8054 18.8319 34.6287C18.7669 34.3768 18.4379 34.3078 18.2875 34.515C17.15 36.0871 16.561 38.61 16.5325 40.3934C16.4432 45.9062 20.9972 50.375 26.506 50.375C33.4488 50.375 38.5066 42.6968 34.5172 36.2781C33.3594 34.4093 32.2707 33.1865 30.9219 31.4518Z" fill="url(#paint1_radial_2105_2632)"/>
<defs>
<radialGradient id="paint0_radial_2105_2632" cx="0" cy="0" r="1" gradientTransform="matrix(-28.676 -0.124454 -0.20446 47.0515 25.2765 50.4973)" gradientUnits="userSpaceOnUse">
<stop offset="0.314" stop-color="#FF9800"/>
<stop offset="0.662" stop-color="#FF6D00"/>
<stop offset="0.972" stop-color="#F44336"/>
</radialGradient>
<radialGradient id="paint1_radial_2105_2632" cx="0" cy="0" r="1" gradientTransform="matrix(-0.303057 30.0026 22.5792 0.228043 26.8878 21.9612)" gradientUnits="userSpaceOnUse">
<stop offset="0.214" stop-color="#FFF176"/>
<stop offset="0.328" stop-color="#FFF27D"/>
<stop offset="0.487" stop-color="#FFF48F"/>
<stop offset="0.672" stop-color="#FFF7AD"/>
<stop offset="0.793" stop-color="#FFF9C4"/>
<stop offset="0.822" stop-color="#FFF8BD" stop-opacity="0.804"/>
<stop offset="0.863" stop-color="#FFF6AB" stop-opacity="0.529"/>
<stop offset="0.91" stop-color="#FFF38D" stop-opacity="0.209"/>
<stop offset="0.941" stop-color="#FFF176" stop-opacity="0"/>
</radialGradient>
</defs>
</svg>
