<svg width="56" height="56" viewBox="0 0 56 56" fill="none" xmlns="http://www.w3.org/2000/svg">
<path d="M41.1188 3.92432C31.5331 3.92432 28.0113 13.7199 28.0113 13.7199C28.0113 13.7199 24.5375 3.92432 14.8863 3.92432C7.63252 3.92432 -0.636229 9.67306 2.41752 22.7412C5.47127 35.8093 28.0375 52.0887 28.0375 52.0887C28.0375 52.0887 50.5206 35.8093 53.5788 22.7412C56.6325 9.67306 48.9588 3.92432 41.1188 3.92432Z" fill="#F44336"/>
<path d="M13.4131 4.89994C20.9381 4.89994 24.6744 12.9893 25.8819 16.2662C26.0525 16.7343 26.7044 16.7474 26.9012 16.2924L28.0037 13.7156C26.4506 8.75432 22.1806 3.92432 14.8919 3.92432C11.8731 3.92432 8.68375 4.92182 6.20312 7.02619C8.395 5.58682 10.9631 4.89994 13.4131 4.89994ZM41.1244 3.92432C38.81 3.92432 36.7013 4.42744 35.0562 5.44244C36.2113 4.99619 37.6419 4.89994 39.0594 4.89994C46.1512 4.89994 52.4994 10.2768 49.6337 22.7062C47.175 33.3768 32.8075 46.3224 28.4194 51.2618C28.1394 51.5768 28.0431 52.0843 28.0431 52.0843C28.0431 52.0843 50.5262 35.8049 53.5844 22.7368C56.6381 9.67307 48.9775 3.92432 41.1244 3.92432Z" fill="#CC3333"/>
<path d="M7.45782 10.8588C9.09845 8.8113 12.0297 7.11818 14.5147 9.06943C15.8578 10.1238 15.2716 12.2851 14.0684 13.1951C12.3184 14.5251 10.7959 15.3257 9.72845 17.4082C9.0897 18.6594 8.7047 20.0288 8.50782 21.4244C8.42907 21.9757 7.7072 22.1113 7.43595 21.6257C5.5897 18.3532 5.0647 13.8469 7.45782 10.8588ZM33.7603 15.1638C32.9903 15.1638 32.4478 14.4201 32.7278 13.7026C33.2485 12.3813 33.9222 11.1038 34.7316 9.9663C35.9303 8.2863 38.2097 7.3063 39.6535 8.32568C41.1322 9.36693 40.9397 11.4494 39.9028 12.4557C37.6759 14.6126 34.8672 15.1638 33.7603 15.1638Z" fill="#FF8A80"/>
</svg>
