<svg width="52" height="52" viewBox="0 0 52 52" fill="none" xmlns="http://www.w3.org/2000/svg">
<path d="M26 52C29.4144 52 32.7953 51.3275 35.9498 50.0209C39.1042 48.7142 41.9705 46.7991 44.3848 44.3848C46.7991 41.9705 48.7142 39.1042 50.0209 35.9498C51.3275 32.7953 52 29.4144 52 26C52 22.5856 51.3275 19.2047 50.0209 16.0502C48.7142 12.8958 46.7991 10.0295 44.3848 7.61522C41.9705 5.2009 39.1042 3.28575 35.9498 1.97913C32.7953 0.67251 29.4144 -5.08781e-08 26 0C19.1044 1.02753e-07 12.4912 2.73928 7.61522 7.61522C2.73928 12.4912 0 19.1044 0 26C0 32.8956 2.73928 39.5088 7.61522 44.3848C12.4912 49.2607 19.1044 52 26 52Z" fill="#F3BA2F"/>
<path fill-rule="evenodd" clip-rule="evenodd" d="M26 51C32.0337 51 39.2335 47.7665 43.5 43.5C47.7665 39.2335 51 32.0337 51 26C51 19.9663 48.2665 13.2665 44 9C39.7335 4.73355 32.0337 1 26 1C19.9663 1 12.7665 4.23355 8.5 8.5C4.23355 12.7665 1 19.9663 1 26C1 32.0337 4.23355 39.2335 8.5 43.5C12.7665 47.7665 19.9663 51 26 51ZM26 52C29.4144 52 32.7953 51.3275 35.9498 50.0209C39.1042 48.7142 41.9705 46.7991 44.3848 44.3848C46.7991 41.9705 48.7142 39.1042 50.0209 35.9498C51.3275 32.7953 52 29.4144 52 26C52 22.5856 51.3275 19.2047 50.0209 16.0502C48.7142 12.8958 46.7991 10.0295 44.3848 7.61522C41.9705 5.2009 39.1042 3.28575 35.9498 1.97913C32.7953 0.67251 29.4144 -5.08781e-08 26 0C19.1044 1.02753e-07 12.4912 2.73928 7.61522 7.61522C2.73928 12.4912 0 19.1044 0 26C0 32.8956 2.73928 39.5088 7.61522 44.3848C12.4912 49.2607 19.1044 52 26 52Z" fill="#2194EA"/>
<path d="M19.5 21.1264C21.2969 21.1264 22.7529 19.3064 22.7529 17.0618C22.7529 14.82 21.2969 13 19.5 13C17.7089 13 16.25 14.82 16.25 17.0618C16.25 19.3064 17.706 21.1264 19.5 21.1264ZM32.5 21.1264C34.2969 21.1264 35.75 19.3064 35.75 17.0618C35.75 14.82 34.2969 13 32.5 13C30.706 13 29.2529 14.82 29.2529 17.0618C29.2529 19.3064 30.706 21.1264 32.5 21.1264ZM26 43.8764C30.4893 43.8764 34.1264 39.5113 34.1264 34.1264C34.1264 28.7416 30.4864 24.3736 26.0029 24.3736C21.5136 24.3736 17.8764 28.7416 17.8764 34.1264C17.8764 39.5113 21.5164 43.8736 26.0029 43.8736" fill="black"/>
</svg>
