<svg width="20" height="20" viewBox="0 0 20 20" fill="none" xmlns="http://www.w3.org/2000/svg">
<path d="M17.5 1.66675H2.5V18.3334H17.5V1.66675Z" fill="#D7E0FF"/>
<path d="M17.5 1.66675H2.5V9.63591H17.5V1.66675ZM6.98583 13.0734L2.5 16.6201V18.3334H14.4533L6.98583 13.0734Z" fill="white"/>
<path d="M17.5 1.66675H2.5V18.3334H17.5V1.66675Z" stroke="#4147D5" stroke-width="1.5"/>
<path d="M13.6191 11.5359C13.9853 11.5359 14.3366 11.6814 14.5955 11.9403C14.8545 12.1993 14.9999 12.5505 14.9999 12.9167C14.9999 13.2829 14.8545 13.6342 14.5955 13.8931C14.3366 14.1521 13.9853 14.2976 13.6191 14.2976C13.2529 14.2976 12.9017 14.1521 12.6427 13.8931C12.3838 13.6342 12.2383 13.2829 12.2383 12.9167C12.2383 12.5505 12.3838 12.1993 12.6427 11.9403C12.9017 11.6814 13.2529 11.5359 13.6191 11.5359Z" fill="white"/>
<path d="M2.5 16.6201L6.98583 13.0734L14.4525 18.3334M10.2242 4.16675H4.99917M15 6.95341H5M17.5 9.63591H2.5M13.6192 11.5359C13.9854 11.5359 14.3366 11.6814 14.5956 11.9404C14.8545 12.1993 15 12.5505 15 12.9167C15 13.283 14.8545 13.6342 14.5956 13.8931C14.3366 14.1521 13.9854 14.2976 13.6192 14.2976C13.2529 14.2976 12.9017 14.1521 12.6428 13.8931C12.3838 13.6342 12.2383 13.283 12.2383 12.9167C12.2383 12.5505 12.3838 12.1993 12.6428 11.9404C12.9017 11.6814 13.2529 11.5359 13.6192 11.5359Z" stroke="#4147D5" stroke-width="1.5"/>
</svg>
