<svg width="40" height="32" viewBox="0 0 40 32" fill="none" xmlns="http://www.w3.org/2000/svg">
<g clip-path="url(#clip0_4062_3161)">
<path d="M12 16C15.8688 16 19 12.8688 19 9C19 5.13125 15.8688 2 12 2C8.13125 2 5 5.13125 5 9C5 12.8688 8.13125 16 12 16ZM16.8 18H16.2813C14.9813 18.625 13.5375 19 12 19C10.4625 19 9.025 18.625 7.71875 18H7.2C3.225 18 0 21.225 0 25.2V27C0 28.6563 1.34375 30 3 30H21C22.6563 30 24 28.6563 24 27V25.2C24 21.225 20.775 18 16.8 18ZM30 16C33.3125 16 36 13.3125 36 10C36 6.6875 33.3125 4 30 4C26.6875 4 24 6.6875 24 10C24 13.3125 26.6875 16 30 16ZM33 18H32.7625C31.8938 18.3 30.975 18.5 30 18.5C29.025 18.5 28.1063 18.3 27.2375 18H27C25.725 18 24.55 18.3688 23.5188 18.9625C25.0438 20.6063 26 22.7875 26 25.2V27.6C26 27.7375 25.9688 27.8688 25.9625 28H37C38.6563 28 40 26.6563 40 25C40 21.1313 36.8688 18 33 18Z" fill="black"/>
</g>
<defs>
<clipPath id="clip0_4062_3161">
<rect width="40" height="32" fill="white"/>
</clipPath>
</defs>
</svg>
