<svg width="54" height="54" viewBox="0 0 54 54" fill="none" xmlns="http://www.w3.org/2000/svg">
<g clip-path="url(#clip0_4128_2530)">
<path d="M54 27C54 12.0884 41.9116 0 27 0C12.0884 0 0 12.0884 0 27C0 40.4764 9.87356 51.6466 22.7812 53.672V34.8047H15.9258V27H22.7812V21.0516C22.7812 14.2847 26.8123 10.5469 32.9797 10.5469C35.9336 10.5469 39.0234 11.0742 39.0234 11.0742V17.7188H35.6189C32.2648 17.7188 31.2188 19.8001 31.2188 21.9354V27H38.707L37.51 34.8047H31.2188V53.672C44.1264 51.6466 54 40.4766 54 27Z" fill="#1877F2"/>
<path d="M37.5061 34.8047L38.7031 27H31.2148V21.9354C31.2148 19.7999 32.2609 17.7188 35.615 17.7188H39.0195V11.0742C39.0195 11.0742 35.9297 10.5469 32.9755 10.5469C26.8084 10.5469 22.7773 14.2847 22.7773 21.0516V27H15.9219V34.8047H22.7773V53.672C24.1729 53.8907 25.5835 54.0003 26.9961 54C28.4087 54.0003 29.8192 53.8907 31.2148 53.672V34.8047H37.5061Z" fill="white"/>
</g>
<defs>
<clipPath id="clip0_4128_2530">
<rect width="54" height="54" fill="white"/>
</clipPath>
</defs>
</svg>
