<svg width="22" height="22" viewBox="0 0 22 22" fill="none" xmlns="http://www.w3.org/2000/svg">
<rect width="22" height="22" rx="5" fill="#010101"/>
<path d="M14.52 4.5H12.4V14.1C12.4 15.28 11.44 16.24 10.26 16.24C9.08 16.24 8.12 15.28 8.12 14.1C8.12 12.94 9.06 11.99 10.2 11.96V9.82C7.88 9.85 6 11.76 6 14.1C6 16.47 7.91 18.38 10.28 18.38C12.65 18.38 14.56 16.47 14.56 14.1V9.38C15.48 10.02 16.58 10.38 17.76 10.38V8.26C16.14 8.26 14.76 7.14 14.52 5.62V4.5Z" fill="#25F4EE"/>
<path d="M14.52 5.62C14.76 7.14 16.14 8.26 17.76 8.26V10.38C16.58 10.38 15.48 10.02 14.56 9.38V14.1C14.56 16.47 12.65 18.38 10.28 18.38C7.91 18.38 6 16.47 6 14.1C6 11.76 7.88 9.85 10.2 9.82V11.96C9.06 11.99 8.12 12.94 8.12 14.1C8.12 15.28 9.08 16.24 10.26 16.24C11.44 16.24 12.4 15.28 12.4 14.1V4.5H14.52V5.62Z" fill="#FE2C55"/>
<path d="M14.52 4.5V5.62C14.76 7.14 16.14 8.26 17.76 8.26V10.38C16.58 10.38 15.48 10.02 14.56 9.38V4.5H14.52Z" fill="white"/>
</svg>
