<svg width="60" height="49" viewBox="0 0 60 49" fill="none" xmlns="http://www.w3.org/2000/svg">
<g clip-path="url(#clip0_4128_2535)">
<path d="M60 5.96666C57.7533 6.96244 55.3701 7.61599 52.9298 7.90556C55.4716 6.38163 57.4233 3.96844 58.3423 1.09315C55.9259 2.52741 53.2823 3.53798 50.5256 4.08121C48.2801 1.68818 45.0811 0.192627 41.5404 0.192627C34.7421 0.192627 29.2303 5.70595 29.2303 12.5059C29.2303 13.4712 29.3393 14.4108 29.5491 15.3123C19.3186 14.7986 10.2483 9.8965 4.1768 2.44663C3.11742 4.26525 2.51039 6.38069 2.51039 8.63704C2.51039 12.9092 4.68375 16.678 7.98656 18.8862C6.03174 18.8251 4.11992 18.297 2.41078 17.3459C2.41016 17.3975 2.40992 17.4491 2.41008 17.5009C2.41008 23.4669 6.6532 28.4438 12.2843 29.575C10.4716 30.0681 8.57023 30.1403 6.72539 29.786C8.29172 34.6781 12.8379 38.238 18.2243 38.3376C14.0114 41.6401 8.70352 43.6087 2.93648 43.6087C1.94273 43.6087 0.963047 43.5504 0 43.4366C5.44758 46.9304 11.918 48.969 18.8695 48.969C41.5118 48.969 53.8931 30.2057 53.8931 13.934C53.8931 13.3999 53.8813 12.8689 53.8575 12.3409C56.2672 10.598 58.3473 8.4395 60 5.96666Z" fill="#55ACEE"/>
</g>
<defs>
<clipPath id="clip0_4128_2535">
<rect width="60" height="49" fill="white"/>
</clipPath>
</defs>
</svg>
