<svg width="65" height="66" viewBox="0 0 65 66" fill="none" xmlns="http://www.w3.org/2000/svg">
<g clip-path="url(#clip0_4128_2524)">
<path d="M1.38652 32.6051C1.385 38.1503 2.82312 43.5649 5.5577 48.3374L1.125 64.6435L17.6878 60.268C22.2689 62.7806 27.4016 64.0972 32.6175 64.0975H32.6312C49.8499 64.0975 63.8662 49.981 63.8736 32.6299C63.8769 24.222 60.63 16.3158 54.7307 10.3677C48.8325 4.41999 40.988 1.14275 32.6299 1.13892C15.4093 1.13892 1.39389 15.2547 1.38678 32.6051" fill="url(#paint0_linear_4128_2524)"/>
<path d="M0.27168 32.5948C0.269902 38.3396 1.75957 43.9478 4.59164 48.8912L0 65.7818L17.1567 61.2495C21.8839 63.8463 27.2063 65.2154 32.6221 65.2175H32.6361C50.4725 65.2175 64.9924 50.5931 65 32.6209C65.003 23.9109 61.6393 15.7205 55.5293 9.55926C49.4185 3.39874 41.2935 0.0035814 32.6361 0C14.7966 0 0.278789 14.6223 0.27168 32.5948ZM10.4891 48.0398L9.84852 47.0153C7.15559 42.7012 5.73422 37.7159 5.73625 32.5968C5.74184 17.6586 17.8085 5.50512 32.6463 5.50512C39.8318 5.50819 46.5847 8.33033 51.6638 13.4507C56.7427 18.5716 59.5375 25.3788 59.5357 32.6188C59.5291 47.5571 47.4622 59.7121 32.6361 59.7121H32.6254C27.7979 59.7095 23.0633 58.4033 18.9343 55.935L17.9517 55.3479L7.77055 58.0373L10.4891 48.0398Z" fill="url(#paint1_linear_4128_2524)"/>
<path d="M24.5436 18.9682C23.9377 17.6116 23.3002 17.5843 22.7241 17.5605C22.2523 17.54 21.713 17.5415 21.1742 17.5415C20.6349 17.5415 19.7587 17.7459 19.018 18.5607C18.2766 19.3762 16.1875 21.347 16.1875 25.3554C16.1875 29.3637 19.0853 33.2378 19.4893 33.7819C19.8938 34.325 25.0836 42.8139 33.3031 46.0796C40.1342 48.7936 41.5243 48.2538 43.0069 48.1177C44.4897 47.9821 47.7915 46.1474 48.4651 44.2449C49.1392 42.3427 49.1392 40.7121 48.9371 40.3714C48.735 40.0319 48.1957 39.828 47.387 39.4208C46.5783 39.0135 42.6024 37.0422 41.8612 36.7703C41.1198 36.4986 40.5808 36.363 40.0415 37.1788C39.5022 37.9933 37.9536 39.828 37.4816 40.3714C37.0101 40.916 36.5381 40.9838 35.7296 40.5763C34.9204 40.1675 32.3161 39.3082 29.2263 36.5329C26.8224 34.3733 25.1994 31.7065 24.7276 30.8907C24.2559 30.0762 24.6771 29.6346 25.0826 29.2286C25.4459 28.8636 25.8915 28.2773 26.2963 27.8017C26.6995 27.3259 26.834 26.9864 27.1037 26.4431C27.3736 25.8992 27.2385 25.4234 27.0367 25.0159C26.834 24.6084 25.2626 20.5791 24.5436 18.9682Z" fill="white"/>
</g>
<defs>
<linearGradient id="paint0_linear_4128_2524" x1="32.4993" y1="64.6435" x2="32.4993" y2="1.13892" gradientUnits="userSpaceOnUse">
<stop stop-color="#1FAF38"/>
<stop offset="1" stop-color="#60D669"/>
</linearGradient>
<linearGradient id="paint1_linear_4128_2524" x1="32.5" y1="65.7818" x2="32.5" y2="0" gradientUnits="userSpaceOnUse">
<stop stop-color="#F9F9F9"/>
<stop offset="1" stop-color="white"/>
</linearGradient>
<clipPath id="clip0_4128_2524">
<rect width="65" height="66" fill="white"/>
</clipPath>
</defs>
</svg>
