<svg width="22" height="22" viewBox="0 0 22 22" fill="none" xmlns="http://www.w3.org/2000/svg">
<path d="M6.02367 21.0513C5.57646 21.0513 5.19396 20.8921 4.87615 20.5736C4.55835 20.2552 4.39911 19.8733 4.39844 19.4281V10.608C4.39844 10.1615 4.55768 9.7793 4.87615 9.46149C5.19463 9.14369 5.5768 8.98411 6.02267 8.98277H7.41558V6.97134C7.41558 5.85098 7.80613 4.90058 8.58724 4.12014C9.36767 3.33904 10.3181 2.94849 11.4384 2.94849C12.5588 2.94849 13.5095 3.33904 14.2906 4.12014C15.0717 4.90125 15.462 5.85165 15.4613 6.97134V8.98277H16.8542C17.3007 8.98277 17.6829 9.14201 18.0007 9.46049C18.3185 9.77896 18.4778 10.1611 18.4784 10.607V19.4271C18.4784 19.8737 18.3192 20.2558 18.0007 20.5736C17.6822 20.8914 17.3001 21.0507 16.8542 21.0513H6.02367ZM12.5105 16.0891C12.8015 15.7988 12.947 15.4415 12.947 15.0171C12.947 14.5926 12.8015 14.2353 12.5105 13.945C12.2195 13.6547 11.8622 13.5092 11.4384 13.5085C11.0147 13.5078 10.6573 13.6533 10.3663 13.945C10.0754 14.2353 9.92987 14.5926 9.92987 15.0171C9.92987 15.4415 10.0754 15.7988 10.3663 16.0891C10.6567 16.3801 11.014 16.5256 11.4384 16.5256C11.8628 16.5256 12.2202 16.3801 12.5105 16.0891ZM8.42129 8.98277H14.4556V6.97134C14.4556 6.13325 14.1622 5.42087 13.5756 4.8342C12.9889 4.24753 12.2765 3.9542 11.4384 3.9542C10.6003 3.9542 9.88796 4.24753 9.30129 4.8342C8.71463 5.42087 8.42129 6.13325 8.42129 6.97134V8.98277Z" fill="#C2B8B8"/>
</svg>
