<svg width="32" height="32" viewBox="0 0 32 32" fill="none" xmlns="http://www.w3.org/2000/svg">
<path d="M10.2822 5.28101L7.00125 8.56301L5.72025 7.28001L4.28125 8.72001L6.28125 10.72L7.00025 11.407L7.71925 10.72L11.7193 6.72001L10.2822 5.28101ZM15.0012 7.00001V9.00001H28.0012V7.00001H15.0012ZM10.2822 13.281L7.00125 16.562L5.72025 15.282L4.28225 16.719L6.28225 18.719L7.00125 19.406L7.72025 18.719L11.7202 14.719L10.2822 13.281ZM15.0012 15V17H28.0012V15H15.0012ZM10.2822 21.281L7.00125 24.563L5.72025 23.28L4.28125 24.72L6.28125 26.72L7.00025 27.407L7.71925 26.72L11.7193 22.72L10.2822 21.281ZM15.0012 23V25H28.0012V23H15.0012Z" fill="#9B7AE6"/>
</svg>
