<svg width="26" height="26" viewBox="0 0 26 26" fill="none" xmlns="http://www.w3.org/2000/svg">
<path d="M17.0624 13C16.0184 13 15.0088 12.5338 14.2187 11.6878C13.4504 10.8626 12.9812 9.76219 12.8984 8.59016C12.81 7.33992 13.1914 6.19023 13.9719 5.35234C14.7524 4.51445 15.8437 4.0625 17.0624 4.0625C18.2726 4.0625 19.3669 4.52258 20.1449 5.35844C20.9305 6.20242 21.3128 7.35008 21.2245 8.58965C21.1397 9.7632 20.671 10.8631 19.9042 11.6873C19.116 12.5338 18.107 13 17.0624 13ZM23.7569 21.9375H10.3685C10.1532 21.9387 9.94055 21.8904 9.74687 21.7965C9.55319 21.7025 9.38364 21.5654 9.25127 21.3957C9.11086 21.2116 9.0139 20.9982 8.96764 20.7714C8.92139 20.5446 8.92703 20.3103 8.98416 20.086C9.41174 18.3691 10.471 16.9452 12.0473 15.9687C13.4463 15.1023 15.2272 14.625 17.0624 14.625C18.9337 14.625 20.6679 15.082 22.0751 15.9479C23.6549 16.9193 24.7157 18.3513 25.1412 20.0891C25.1977 20.3135 25.2027 20.5479 25.1559 20.7745C25.1091 21.0012 25.0118 21.2144 24.8711 21.3982C24.7388 21.5672 24.5697 21.7036 24.3766 21.7971C24.1834 21.8906 23.9715 21.9386 23.7569 21.9375ZM7.46479 13.2031C5.67779 13.2031 4.10662 11.5416 3.96088 9.49965C3.88877 8.45355 4.21479 7.48617 4.87494 6.77676C5.52799 6.07445 6.44916 5.6875 7.46479 5.6875C8.48041 5.6875 9.39447 6.07648 10.0511 6.78285C10.7163 7.49785 11.0413 8.4632 10.9651 9.50066C10.8194 11.5421 9.24873 13.2031 7.46479 13.2031ZM10.7991 14.8002C9.90584 14.3635 8.7465 14.1451 7.46529 14.1451C5.96928 14.1451 4.51643 14.5351 3.37385 15.243C2.07842 16.0469 1.20701 17.2174 0.855098 18.6306C0.803599 18.8339 0.798728 19.0462 0.84085 19.2516C0.882972 19.457 0.970997 19.6503 1.09834 19.8169C1.21917 19.972 1.37397 20.0973 1.55084 20.1833C1.7277 20.2692 1.92191 20.3134 2.11854 20.3125H7.75525C7.85039 20.3125 7.94251 20.2791 8.01554 20.2181C8.08858 20.1571 8.1379 20.0725 8.1549 19.9789C8.16049 19.9469 8.1676 19.9149 8.17572 19.8834C8.60635 18.1538 9.61537 16.6923 11.1063 15.6269C11.1611 15.5874 11.2053 15.5348 11.2346 15.4739C11.264 15.413 11.2777 15.3458 11.2746 15.2783C11.2714 15.2107 11.2514 15.1451 11.2164 15.0872C11.1815 15.0294 11.1326 14.9812 11.0743 14.947C10.9946 14.9002 10.9032 14.851 10.7991 14.8002Z" fill="#9B7AE6"/>
</svg>
