<svg width="30" height="30" viewBox="0 0 30 30" fill="none" xmlns="http://www.w3.org/2000/svg">
<path d="M26.25 20.525V24.945C26.2501 25.2615 26.1302 25.5662 25.9145 25.7977C25.6987 26.0293 25.4032 26.1703 25.0875 26.1925C24.5417 26.2308 24.0958 26.25 23.75 26.25C12.7038 26.25 3.75 17.2963 3.75 6.25C3.75 5.905 3.76917 5.45917 3.8075 4.9125C3.82965 4.59681 3.97073 4.30126 4.20225 4.08551C4.43378 3.86976 4.73853 3.74986 5.055 3.75H9.475C9.63005 3.74984 9.77962 3.80732 9.89466 3.91128C10.0097 4.01523 10.082 4.15823 10.0975 4.3125C10.1258 4.59917 10.1525 4.82917 10.1775 5.0025C10.4259 6.73616 10.935 8.4223 11.6875 10.0038C11.8063 10.2538 11.7288 10.5525 11.5038 10.7125L8.80625 12.64C10.4559 16.4828 13.5184 19.5454 17.3612 21.195L19.2862 18.5025C19.3646 18.3921 19.4794 18.3129 19.6104 18.2788C19.7414 18.2448 19.8803 18.258 20.0025 18.3162C21.5838 19.0673 23.2695 19.5752 25.0025 19.8225C25.1758 19.8475 25.405 19.8742 25.69 19.9025C25.844 19.9183 25.9867 19.9907 26.0904 20.1057C26.1941 20.2207 26.2502 20.3701 26.25 20.525Z" fill="#9B7AE6"/>
</svg>
