<svg width="28" height="28" viewBox="0 0 28 28" fill="none" xmlns="http://www.w3.org/2000/svg">
<path fill-rule="evenodd" clip-rule="evenodd" d="M7.29036 6.41668C7.29028 5.63691 7.53061 4.87608 7.97861 4.23785C8.42661 3.59963 9.06049 3.11504 9.79388 2.85013C10.5273 2.58522 11.3245 2.55286 12.0769 2.75747C12.8294 2.96207 13.5005 3.39369 13.9987 3.99351C14.6331 3.22176 15.5465 2.73157 16.5403 2.62948C17.5341 2.52739 18.528 2.82165 19.3061 3.44832C20.0842 4.07498 20.5835 4.98339 20.6955 5.97614C20.8075 6.96888 20.5232 7.96572 19.9044 8.75001H20.9987C21.3817 8.75001 21.761 8.82545 22.1149 8.97203C22.4687 9.1186 22.7903 9.33345 23.0611 9.60428C23.3319 9.87512 23.5468 10.1967 23.6933 10.5505C23.8399 10.9044 23.9154 11.2837 23.9154 11.6667V13.125C23.9154 13.3571 23.8232 13.5796 23.6591 13.7437C23.495 13.9078 23.2724 14 23.0404 14H15.2237C15.1777 14 15.1322 13.991 15.0898 13.9734C15.0473 13.9558 15.0087 13.93 14.9762 13.8975C14.9437 13.865 14.9179 13.8264 14.9003 13.7839C14.8828 13.7415 14.8737 13.696 14.8737 13.65V9.61334C14.5444 9.40151 14.2493 9.14067 13.9987 8.83984C13.748 9.14026 13.4529 9.40069 13.1237 9.61218V13.65C13.1237 13.7428 13.0868 13.8319 13.0212 13.8975C12.9555 13.9631 12.8665 14 12.7737 14H4.95703C4.72497 14 4.50241 13.9078 4.33831 13.7437C4.17422 13.5796 4.08203 13.3571 4.08203 13.125V11.6667C4.08203 11.2837 4.15747 10.9044 4.30405 10.5505C4.45063 10.1967 4.66547 9.87512 4.9363 9.60428C5.20714 9.33345 5.52867 9.1186 5.88254 8.97203C6.2364 8.82545 6.61568 8.75001 6.9987 8.75001H8.09303C7.572 8.08392 7.28938 7.26234 7.29036 6.41668ZM13.1237 6.41668C13.1237 5.87519 12.9086 5.35589 12.5257 4.973C12.1428 4.59011 11.6235 4.37501 11.082 4.37501C10.5405 4.37501 10.0212 4.59011 9.63835 4.973C9.25547 5.35589 9.04036 5.87519 9.04036 6.41668C9.04036 6.95816 9.25547 7.47747 9.63835 7.86035C10.0212 8.24324 10.5405 8.45834 11.082 8.45834C11.6235 8.45834 12.1428 8.24324 12.5257 7.86035C12.9086 7.47747 13.1237 6.95816 13.1237 6.41668ZM14.8737 6.41668C14.8737 6.68479 14.9265 6.95028 15.0291 7.19799C15.1317 7.4457 15.2821 7.67077 15.4717 7.86035C15.6613 8.04994 15.8863 8.20033 16.1341 8.30293C16.3818 8.40554 16.6472 8.45834 16.9154 8.45834C17.1835 8.45834 17.449 8.40554 17.6967 8.30293C17.9444 8.20033 18.1695 8.04994 18.359 7.86035C18.5486 7.67077 18.699 7.4457 18.8016 7.19799C18.9042 6.95028 18.957 6.68479 18.957 6.41668C18.957 5.87519 18.7419 5.35589 18.359 4.973C17.9762 4.59011 17.4568 4.37501 16.9154 4.37501C16.3739 4.37501 15.8546 4.59011 15.4717 4.973C15.0888 5.35589 14.8737 5.87519 14.8737 6.41668Z" fill="#9B7AE6"/>
<path d="M13.1268 15.925C13.1268 15.8321 13.0899 15.7431 13.0242 15.6775C12.9586 15.6118 12.8696 15.575 12.7768 15.575H6.59226C6.36304 15.5745 6.1411 15.6554 5.96593 15.8033C5.79075 15.9511 5.6737 16.1563 5.63559 16.3823C5.37668 17.8942 5.37668 19.4391 5.63559 20.951L5.89692 22.4781C5.98311 22.9784 6.2293 23.4372 6.59851 23.7855C6.96772 24.1339 7.44001 24.3531 7.94442 24.4101L9.18692 24.549C10.3793 24.682 11.5735 24.7656 12.7698 24.7998C12.8162 24.8007 12.8624 24.7924 12.9056 24.7753C12.9488 24.7582 12.9881 24.7327 13.0214 24.7002C13.0546 24.6677 13.081 24.629 13.0991 24.5862C13.1172 24.5434 13.1266 24.4974 13.1268 24.451V15.925ZM15.2338 24.7998C15.1873 24.8007 15.1411 24.7924 15.0979 24.7753C15.0547 24.7582 15.0154 24.7327 14.9821 24.7002C14.9489 24.6677 14.9225 24.629 14.9044 24.5862C14.8863 24.5434 14.8769 24.4974 14.8768 24.451V15.925C14.8768 15.8321 14.9136 15.7431 14.9793 15.6775C15.0449 15.6118 15.1339 15.575 15.2268 15.575H21.4113C21.8849 15.575 22.2886 15.9156 22.3679 16.3823C22.6281 17.8943 22.6281 19.439 22.3679 20.951L22.1078 22.4781C22.0215 22.9785 21.7751 23.4375 21.4057 23.7859C21.0363 24.1343 20.5637 24.3533 20.0591 24.4101L18.8166 24.549C17.6263 24.6822 16.431 24.7659 15.2338 24.7998Z" fill="#9B7AE6"/>
</svg>
