<svg width="28" height="28" viewBox="0 0 28 28" fill="none" xmlns="http://www.w3.org/2000/svg">
<path d="M11.0833 11.6667C11.6196 11.6667 12.1505 11.561 12.646 11.3558C13.1414 11.1506 13.5915 10.8499 13.9707 10.4707C14.3499 10.0915 14.6506 9.64137 14.8558 9.14596C15.061 8.65055 15.1667 8.11956 15.1667 7.58333C15.1667 7.0471 15.061 6.51612 14.8558 6.02071C14.6506 5.5253 14.3499 5.07515 13.9707 4.69598C13.5915 4.31681 13.1414 4.01603 12.646 3.81083C12.1505 3.60562 11.6196 3.5 11.0833 3.5C10.0004 3.5 8.96175 3.93021 8.19598 4.69598C7.43021 5.46175 7 6.50037 7 7.58333C7 8.6663 7.43021 9.70491 8.19598 10.4707C8.96175 11.2365 10.0004 11.6667 11.0833 11.6667Z" fill="#9B7AE6" stroke="#9B7AE6" stroke-width="2" stroke-linecap="round" stroke-linejoin="round"/>
<path d="M19.25 4.66634C19.25 4.66634 20.5625 7.29134 19.25 10.4997M23.3333 2.33301C23.3333 2.33301 25.9583 7.05801 23.3333 12.833" stroke="#9B7AE6" stroke-width="2" stroke-linecap="round" stroke-linejoin="round"/>
<path d="M2.33398 23.7997V24.4997H19.834V23.7997C19.834 21.1863 19.834 19.8797 19.3253 18.881C18.8779 18.003 18.164 17.2891 17.286 16.8417C16.2873 16.333 14.9807 16.333 12.3673 16.333H9.80065C7.18732 16.333 5.88065 16.333 4.88198 16.8417C4.00393 17.2891 3.29005 18.003 2.84265 18.881C2.33398 19.8797 2.33398 21.1863 2.33398 23.7997Z" fill="#9B7AE6" stroke="#9B7AE6" stroke-width="2" stroke-linecap="round" stroke-linejoin="round"/>
</svg>
