<svg width="28" height="28" viewBox="0 0 28 28" fill="none" xmlns="http://www.w3.org/2000/svg">
<g clip-path="url(#clip0_3001_2280)">
<path d="M15.152 6.69663C15.6002 6.44236 15.9517 6.04682 16.1515 5.57177C16.3514 5.09671 16.3883 4.56886 16.2565 4.07061C16.1248 3.57236 15.8318 3.13175 15.4233 2.81754C15.0148 2.50334 14.5137 2.33322 13.9984 2.33374C13.483 2.33426 12.9823 2.5054 12.5744 2.82043C12.1665 3.13547 11.8744 3.57668 11.7437 4.07519C11.613 4.57371 11.651 5.10148 11.8518 5.57613C12.0526 6.05078 12.4048 6.4456 12.8536 6.69897L12.842 6.71997C12.0778 8.3148 11.0161 10.5991 9.37696 11.4566C8.03063 12.1601 6.09863 11.8066 4.66363 11.543C4.64061 11.2167 4.5266 10.9033 4.33452 10.6386C4.14245 10.3738 3.88 10.1681 3.57697 10.0449C3.27393 9.92176 2.94244 9.88598 2.6201 9.94166C2.29776 9.99734 1.99747 10.1422 1.75332 10.3599C1.50917 10.5776 1.33092 10.8594 1.2388 11.1733C1.14668 11.4872 1.14437 11.8206 1.23215 12.1357C1.31992 12.4508 1.49426 12.735 1.73538 12.9561C1.9765 13.1771 2.27476 13.3262 2.5963 13.3863L6.03563 22.2646C6.29069 22.9228 6.73882 23.4885 7.32117 23.8875C7.90353 24.2864 8.5929 24.4999 9.2988 24.5H18.7021C19.408 24.4999 20.0974 24.2864 20.6798 23.8875C21.2621 23.4885 21.7102 22.9228 21.9653 22.2646L25.4035 13.3863C25.723 13.3268 26.0196 13.1796 26.2602 12.961C26.5007 12.7424 26.6756 12.4612 26.7653 12.1488C26.855 11.8365 26.8559 11.5053 26.768 11.1924C26.6801 10.8795 26.5068 10.5973 26.2675 10.3774C26.0282 10.1574 25.7324 10.0085 25.4132 9.94723C25.094 9.88595 24.7641 9.91477 24.4604 10.0305C24.1567 10.1461 23.8912 10.3441 23.6936 10.6022C23.4961 10.8603 23.3743 11.1682 23.342 11.4916C21.8731 11.6818 19.9796 11.9245 18.624 11.2163C17.0175 10.3763 15.9406 8.24947 15.152 6.69663Z" fill="#9B7AE6"/>
</g>
<defs>
<clipPath id="clip0_3001_2280">
<rect width="28" height="28" fill="white"/>
</clipPath>
</defs>
</svg>
