<svg width="24" height="32" viewBox="0 0 24 32" fill="none" xmlns="http://www.w3.org/2000/svg">
<path d="M0 26.9404V25.2321H2.76067V11.6935C2.76067 9.46132 3.46678 7.49844 4.879 5.80492C6.29122 4.11139 8.08156 3.05678 10.25 2.64108V1.70833C10.25 1.23342 10.4157 0.83025 10.7471 0.498833C11.0785 0.166278 11.4811 0 11.9549 0C12.4287 0 12.8324 0.166278 13.1661 0.498833C13.4998 0.831389 13.6667 1.23456 13.6667 1.70833V2.64108C15.8351 3.05678 17.6254 4.11196 19.0377 5.80663C20.4499 7.50129 21.156 9.46417 21.156 11.6952V25.2304H23.9167V26.9387L0 26.9404ZM11.9532 31.4077C11.1924 31.4077 10.5433 31.1372 10.0057 30.5963C9.46815 30.0553 9.19938 29.4061 9.19938 28.6488H14.7173C14.7173 29.4118 14.4468 30.0621 13.9058 30.5997C13.3637 31.1372 12.7128 31.4077 11.9532 31.4077Z" fill="url(#paint0_linear_2068_829)"/>
<defs>
<linearGradient id="paint0_linear_2068_829" x1="23.9167" y1="9.06325" x2="-0.460388" y2="21.4375" gradientUnits="userSpaceOnUse">
<stop stop-color="#FF4FB1"/>
<stop offset="1" stop-color="#4F6BFF"/>
</linearGradient>
</defs>
</svg>
