<svg width="40" height="40" viewBox="0 0 40 40" fill="none" xmlns="http://www.w3.org/2000/svg">
<path d="M26.7342 20.934C26.7342 22.3662 26.1652 23.7398 25.1525 24.7526C24.1397 25.7653 22.7661 26.3343 21.3339 26.3343C19.9016 26.3343 18.5281 25.7653 17.5153 24.7526C16.5026 23.7398 15.9336 22.3662 15.9336 20.934C15.9336 19.5017 16.5026 18.1281 17.5153 17.1154C18.5281 16.1026 19.9016 15.5337 21.3339 15.5337C22.7661 15.5337 24.1397 16.1026 25.1525 17.1154C26.1652 18.1281 26.7342 19.5017 26.7342 20.934Z" fill="#F8F1F1"/>
<path d="M39.1441 20.1295C35.2595 12.3585 28.3616 8.3335 21.334 8.3335C14.3064 8.3335 7.40844 12.3585 3.52383 20.1295C3.39898 20.3794 3.33398 20.6549 3.33398 20.9342C3.33398 21.2135 3.39898 21.489 3.52383 21.7388C7.40844 29.5098 14.3064 33.5348 21.334 33.5348C28.3616 33.5348 35.2595 29.5098 39.1441 21.7388C39.269 21.489 39.334 21.2135 39.334 20.9342C39.334 20.6549 39.269 20.3794 39.1441 20.1295ZM21.334 29.9347C15.9895 29.9347 10.5298 27.0185 7.16723 20.9342C10.5298 14.8498 15.9877 11.9337 21.334 11.9337C26.6803 11.9337 32.1382 14.8498 35.5007 20.9342C32.1382 27.0185 26.6785 29.9347 21.334 29.9347Z" fill="#F8F1F1"/>
</svg>
