<svg width="40" height="40" viewBox="0 0 40 40" fill="none" xmlns="http://www.w3.org/2000/svg">
<path d="M3.33464 8.11667L5.46797 6L33.3346 33.8667L31.218 36L26.0846 30.8667C24.168 31.5 22.1346 31.8333 20.0013 31.8333C11.668 31.8333 4.5513 26.65 1.66797 19.3333C2.81797 16.4 4.6513 13.8167 6.98464 11.7667L3.33464 8.11667ZM20.0013 14.3333C21.3274 14.3333 22.5992 14.8601 23.5368 15.7978C24.4745 16.7355 25.0013 18.0073 25.0013 19.3333C25.0021 19.9009 24.9063 20.4646 24.718 21L18.3346 14.6167C18.8701 14.4283 19.4337 14.3325 20.0013 14.3333ZM20.0013 6.83333C28.3346 6.83333 35.4513 12.0167 38.3346 19.3333C36.9736 22.7882 34.6622 25.7872 31.668 27.9833L29.3013 25.6C31.6062 24.0057 33.4651 21.8485 34.7013 19.3333C33.3541 16.5831 31.2622 14.2661 28.6636 12.6456C26.0649 11.0251 23.0638 10.1663 20.0013 10.1667C18.1846 10.1667 16.4013 10.4667 14.7346 11L12.168 8.45C14.568 7.41667 17.218 6.83333 20.0013 6.83333ZM5.3013 19.3333C6.64855 22.0836 8.74039 24.4006 11.339 26.0211C13.9377 27.6415 16.9388 28.5004 20.0013 28.5C21.1513 28.5 22.2846 28.3833 23.3346 28.15L19.5346 24.3333C18.3749 24.209 17.2927 23.6915 16.4679 22.8667C15.6432 22.042 15.1256 20.9597 15.0013 19.8L9.33464 14.1167C7.68464 15.5333 6.3013 17.3 5.3013 19.3333Z" fill="#F8F1F1"/>
</svg>
