<svg width="60" height="60" viewBox="0 0 60 60" fill="none" xmlns="http://www.w3.org/2000/svg">
<path d="M39.375 3.75C36.7399 3.7494 34.1412 4.36606 31.7873 5.55058C29.4334 6.7351 27.3897 8.45453 25.82 10.5711C24.2502 12.6877 23.1981 15.1425 22.7479 17.7389C22.2977 20.3353 22.462 23.001 23.2275 25.5225L3.75 45V56.25H15L34.4775 36.7725C36.7986 37.477 39.2442 37.6729 41.6479 37.3468C44.0515 37.0206 46.3565 36.1801 48.4059 34.8826C50.4553 33.585 52.2009 31.8609 53.5237 29.8277C54.8465 27.7945 55.7155 25.5 56.0713 23.1006C56.4272 20.7012 56.2616 18.2533 55.5858 15.9237C54.91 13.5941 53.74 11.4376 52.1554 9.60105C50.5708 7.76454 48.6089 6.29123 46.4034 5.28152C44.1979 4.27181 41.8006 3.74944 39.375 3.75ZM39.375 33.75C38.0841 33.7496 36.8002 33.5588 35.565 33.1838L33.4144 32.5312L31.8263 34.1194L25.8619 40.0838L23.2762 37.5L20.625 40.1512L23.2106 42.7369L20.2369 45.7106L17.6512 43.125L15 45.7762L17.5856 48.3619L13.4475 52.5H7.5V46.5525L25.8787 28.1737L27.4687 26.5856L26.8162 24.435C26.0148 21.7931 26.0669 18.9658 26.965 16.3552C27.8632 13.7446 29.5616 11.4837 31.8188 9.89405C34.076 8.30442 36.777 7.46703 39.5375 7.50099C42.2981 7.53496 44.9777 8.43854 47.1951 10.0832C49.4125 11.7279 51.0548 14.0299 51.8884 16.6618C52.7221 19.2937 52.7046 22.1215 51.8384 24.7428C50.9722 27.3642 49.3015 29.6457 47.0639 31.2628C44.8263 32.8799 42.1358 33.7502 39.375 33.75Z" fill="#F8F1F1"/>
<path d="M41.25 22.5C43.3211 22.5 45 20.8211 45 18.75C45 16.6789 43.3211 15 41.25 15C39.1789 15 37.5 16.6789 37.5 18.75C37.5 20.8211 39.1789 22.5 41.25 22.5Z" fill="#F8F1F1"/>
</svg>
