<svg width="13" height="20" viewBox="0 0 13 20" fill="none" xmlns="http://www.w3.org/2000/svg">
<path d="M0 3.46667C0 2.25333 -6.45717e-08 1.64667 0.236167 1.183C0.443889 0.775334 0.775334 0.443889 1.183 0.236167C1.64667 -6.45717e-08 2.25333 0 3.46667 0H9.53333C10.7467 0 11.3533 -6.45717e-08 11.817 0.236167C12.2247 0.443889 12.5561 0.775334 12.7638 1.183C13 1.64667 13 2.25333 13 3.46667V17.8804C13 18.4069 13 18.6702 12.8906 18.8143C12.8433 18.8769 12.783 18.9286 12.7138 18.9656C12.6445 19.0026 12.5681 19.0242 12.4897 19.0288C12.3088 19.0396 12.09 18.8933 11.6523 18.6019L6.5 15.1667L1.34767 18.6008C0.91 18.8933 0.691166 19.0396 0.509166 19.0288C0.430989 19.024 0.354766 19.0024 0.285754 18.9654C0.216741 18.9283 0.156579 18.8768 0.109416 18.8143C-1.85644e-07 18.6702 0 18.4069 0 17.8804V3.46667Z" fill="url(#paint0_linear_2068_1205)"/>
<defs>
<linearGradient id="paint0_linear_2068_1205" x1="13" y1="5.49125" x2="-0.802111" y2="11.7767" gradientUnits="userSpaceOnUse">
<stop stop-color="#FF4FB1"/>
<stop offset="1" stop-color="#4F6BFF"/>
</linearGradient>
</defs>
</svg>
