<svg width="30" height="30" viewBox="0 0 30 30" fill="none" xmlns="http://www.w3.org/2000/svg">
<path d="M19.754 19.755L26.3828 26.3838M19.754 19.755C18.8869 20.6408 17.8528 21.3446 16.7114 21.828C15.5701 22.3115 14.3441 22.5639 13.1046 22.5705C11.8651 22.5771 10.6366 22.3378 9.49011 21.8665C8.34366 21.3952 7.30205 20.7012 6.42556 19.8247C5.54907 18.9483 4.8551 17.9066 4.38379 16.7602C3.91249 15.6137 3.67322 14.3852 3.67982 13.1457C3.68642 11.9062 3.93877 10.6802 4.42225 9.53888C4.90574 8.39752 5.61077 7.36336 6.49655 6.49626C8.26097 4.76903 10.6355 3.8076 13.1046 3.82075C15.5737 3.8339 17.9379 4.82057 19.6838 6.56649C21.4297 8.31241 22.4164 10.6766 22.4296 13.1457C22.4427 15.6148 21.4813 17.9906 19.754 19.755Z" stroke="black" stroke-opacity="0.5" stroke-width="2" stroke-linecap="square"/>
</svg>
