<svg width="39" height="37" viewBox="0 0 39 37" fill="none" xmlns="http://www.w3.org/2000/svg">
<path d="M6.489 26.5185C6.74051 26.7721 6.93323 27.0784 7.05344 27.4154C7.17364 27.7524 7.21836 28.1119 7.18442 28.4683C7.01371 30.1176 6.69086 31.7474 6.22004 33.3368C9.60023 32.5505 11.6647 31.6401 12.6024 31.163C13.1343 30.8924 13.7468 30.8282 14.3228 30.9829C15.9736 31.4268 17.6757 31.6494 19.3846 31.645C29.0672 31.645 36.3462 24.8121 36.3462 17.0396C36.3462 9.26711 29.0672 2.43423 19.3846 2.43423C9.702 2.43423 2.42308 9.26954 2.42308 17.0396C2.42308 20.613 3.91812 23.9285 6.489 26.5185ZM5.29442 36.0242C4.72029 36.1383 4.14433 36.243 3.56677 36.3382C3.08215 36.4161 2.71385 35.9097 2.90527 35.457C3.11984 34.947 3.31703 34.4298 3.4965 33.9064L3.50377 33.882C4.10469 32.1294 4.59415 30.1138 4.77346 28.2371C1.80035 25.243 0 21.3238 0 17.0396C0 7.62887 8.67946 0 19.3846 0C30.0898 0 38.7692 7.62887 38.7692 17.0396C38.7692 26.4503 30.0898 34.0792 19.3846 34.0792C17.4646 34.0835 15.5524 33.833 13.6977 33.3343C12.4377 33.9745 9.72623 35.1405 5.29442 36.0242Z" fill="url(#paint0_linear_2029_1299)"/>
<defs>
<linearGradient id="paint0_linear_2029_1299" x1="38.7692" y1="10.4883" x2="5.76054" y2="33.9592" gradientUnits="userSpaceOnUse">
<stop stop-color="#FF4FB1"/>
<stop offset="1" stop-color="#4F6BFF"/>
</linearGradient>
</defs>
</svg>
