<svg width="43" height="45" viewBox="0 0 43 45" fill="none" xmlns="http://www.w3.org/2000/svg">
<path fill-rule="evenodd" clip-rule="evenodd" d="M21.4559 0C15.8096 0 10.6659 1.865 7.62214 3.38875C7.34714 3.52625 7.09048 3.66042 6.85214 3.79125C6.37964 4.04875 5.97714 4.28875 5.65714 4.5L9.11964 9.5975L10.7496 10.2462C17.1196 13.46 25.6621 13.46 32.0334 10.2462L33.8834 9.28625L37.1571 4.5C36.4783 4.05889 35.7732 3.6594 35.0459 3.30375C32.0171 1.79625 26.9959 0 21.4571 0M13.4046 5.77C12.1788 5.53931 10.9679 5.23543 9.77839 4.86C12.6296 3.59375 16.8784 2.25 21.4571 2.25C24.6284 2.25 27.6271 2.895 30.1071 3.7125C27.2009 4.12125 24.0996 4.815 21.1446 5.66875C18.8196 6.34125 16.1021 6.26875 13.4046 5.77ZM33.3546 12.1L33.0471 12.255C26.0396 15.79 16.7446 15.79 9.73714 12.255L9.44589 12.1075C-1.08286 23.6588 -9.12036 44.9963 21.4559 44.9963C52.0321 44.9963 43.7996 23.2625 33.3546 12.1ZM20.1571 22.5C19.4941 22.5 18.8582 22.7634 18.3894 23.2322C17.9205 23.7011 17.6571 24.337 17.6571 25C17.6571 25.663 17.9205 26.2989 18.3894 26.7678C18.8582 27.2366 19.4941 27.5 20.1571 27.5V22.5ZM22.6571 20V18.75H20.1571V20C18.8311 20 17.5593 20.5268 16.6216 21.4645C15.6839 22.4021 15.1571 23.6739 15.1571 25C15.1571 26.3261 15.6839 27.5979 16.6216 28.5355C17.5593 29.4732 18.8311 30 20.1571 30V35C19.0696 35 18.1434 34.3063 17.7984 33.3337C17.7472 33.1746 17.6646 33.0274 17.5556 32.9008C17.4465 32.7741 17.3131 32.6707 17.1633 32.5965C17.0136 32.5223 16.8505 32.4789 16.6836 32.4688C16.5168 32.4588 16.3496 32.4823 16.192 32.538C16.0344 32.5936 15.8896 32.6804 15.7661 32.793C15.6426 32.9056 15.543 33.0419 15.4731 33.1937C15.4032 33.3455 15.3644 33.5098 15.3591 33.6768C15.3538 33.8439 15.382 34.0103 15.4421 34.1663C15.7868 35.1413 16.4253 35.9855 17.2697 36.5826C18.1142 37.1796 19.123 37.5002 20.1571 37.5V38.75H22.6571V37.5C23.9832 37.5 25.255 36.9732 26.1927 36.0355C27.1304 35.0979 27.6571 33.8261 27.6571 32.5C27.6571 31.1739 27.1304 29.9021 26.1927 28.9645C25.255 28.0268 23.9832 27.5 22.6571 27.5V22.5C23.7446 22.5 24.6709 23.1938 25.0159 24.1663C25.0671 24.3254 25.1497 24.4726 25.2587 24.5992C25.3678 24.7259 25.5012 24.8293 25.6509 24.9035C25.8007 24.9777 25.9638 25.0211 26.1307 25.0312C26.2975 25.0412 26.4647 25.0177 26.6222 24.962C26.7798 24.9064 26.9247 24.8196 27.0482 24.707C27.1716 24.5944 27.2713 24.4581 27.3412 24.3063C27.4111 24.1545 27.4499 23.9902 27.4552 23.8232C27.4605 23.6561 27.4323 23.4897 27.3721 23.3337C27.0275 22.3587 26.389 21.5145 25.5446 20.9174C24.7001 20.3204 23.6913 19.9998 22.6571 20ZM22.6571 30V35C23.3202 35 23.9561 34.7366 24.4249 34.2678C24.8938 33.7989 25.1571 33.163 25.1571 32.5C25.1571 31.837 24.8938 31.2011 24.4249 30.7322C23.9561 30.2634 23.3202 30 22.6571 30Z" fill="url(#paint0_linear_446_420)"/>
<defs>
<linearGradient id="paint0_linear_446_420" x1="42.8187" y1="12.9845" x2="3.67964" y2="37.8124" gradientUnits="userSpaceOnUse">
<stop stop-color="#FF4FB1"/>
<stop offset="1" stop-color="#4F6BFF"/>
</linearGradient>
</defs>
</svg>
