<svg width="60" height="60" viewBox="0 0 60 60" fill="none" xmlns="http://www.w3.org/2000/svg">
<path d="M30 43.25C33.125 43.25 35.7817 42.1567 37.97 39.97C40.1583 37.7833 41.2517 35.1267 41.25 32C41.2483 28.8733 40.155 26.2175 37.97 24.0325C35.785 21.8475 33.1283 20.7533 30 20.75C26.8717 20.7467 24.2158 21.8408 22.0325 24.0325C19.8492 26.2242 18.755 28.88 18.75 32C18.745 35.12 19.8392 37.7767 22.0325 39.97C24.2258 42.1633 26.8817 43.2567 30 43.25ZM30 38.25C28.25 38.25 26.7708 37.6458 25.5625 36.4375C24.3542 35.2292 23.75 33.75 23.75 32C23.75 30.25 24.3542 28.7708 25.5625 27.5625C26.7708 26.3542 28.25 25.75 30 25.75C31.75 25.75 33.2292 26.3542 34.4375 27.5625C35.6458 28.7708 36.25 30.25 36.25 32C36.25 33.75 35.6458 35.2292 34.4375 36.4375C33.2292 37.6458 31.75 38.25 30 38.25ZM5 52V12H17.875L22.5 7H37.5L42.125 12H55V52H5Z" fill="url(#paint0_linear_446_457)"/>
<defs>
<linearGradient id="paint0_linear_446_457" x1="55" y1="19.9855" x2="13.6116" y2="50.6411" gradientUnits="userSpaceOnUse">
<stop stop-color="#FF4FB1"/>
<stop offset="1" stop-color="#4F6BFF"/>
</linearGradient>
</defs>
</svg>
