<svg width="65" height="65" viewBox="0 0 65 65" fill="none" xmlns="http://www.w3.org/2000/svg">
<path fill-rule="evenodd" clip-rule="evenodd" d="M23.75 10C15.58 10 8.75 16.0475 8.75 23.75C8.75 26.805 9.8375 29.6175 11.655 31.8875L10.045 37.795C9.98768 38.02 9.99365 38.2565 10.0622 38.4783C10.1308 38.7001 10.2594 38.8987 10.4337 39.052C10.608 39.2054 10.8213 39.3076 11.0501 39.3474C11.2788 39.3872 11.5141 39.363 11.73 39.2775L18.73 36.3625C19.036 36.2349 19.2788 35.9909 19.4049 35.6843C19.531 35.3777 19.5301 35.0335 19.4025 34.7275C19.2749 34.4215 19.0309 34.1787 18.7243 34.0526C18.4177 33.9265 18.0735 33.9274 17.7675 34.055L13.1275 35.9875L14.24 31.9125C14.2946 31.7123 14.2985 31.5017 14.2514 31.2996C14.2042 31.0975 14.1075 30.9104 13.97 30.755C12.2575 28.82 11.25 26.3875 11.25 23.75C11.25 17.6475 16.7325 12.5 23.75 12.5C29.525 12.5 34.275 15.995 35.7625 20.6325C27.8125 20.8675 21.25 26.825 21.25 34.375C21.25 42.0775 28.08 48.125 36.25 48.125C38.1174 48.1272 39.9712 47.8075 41.73 47.18L48.27 49.905C49.21 50.295 50.225 49.405 49.955 48.42L48.345 42.5125C50.2164 40.2126 51.2418 37.3401 51.25 34.375C51.25 27.3575 45.5825 21.715 38.395 20.765C36.895 14.535 30.8375 10 23.75 10ZM23.75 34.375C23.75 28.2725 29.2325 23.125 36.25 23.125C43.2675 23.125 48.75 28.2725 48.75 34.375C48.75 37.0125 47.7425 39.445 46.03 41.38C45.8925 41.5354 45.7958 41.7225 45.7486 41.9246C45.7015 42.1267 45.7054 42.3373 45.76 42.5375L46.8725 46.6125L42.2325 44.68C41.9313 44.5546 41.5931 44.5519 41.29 44.6725C39.6846 45.3033 37.9749 45.6264 36.25 45.625C29.2325 45.625 23.75 40.48 23.75 34.375Z" fill="url(#paint0_linear_449_817)"/>
<defs>
<linearGradient id="paint0_linear_449_817" x1="51.25" y1="21.5424" x2="14.9706" y2="47.2389" gradientUnits="userSpaceOnUse">
<stop stop-color="#FF4FB1"/>
<stop offset="1" stop-color="#4F6BFF"/>
</linearGradient>
</defs>
</svg>
