<svg width="60" height="60" viewBox="0 0 60 60" fill="none" xmlns="http://www.w3.org/2000/svg">
<path d="M30 42.5C30.7083 42.5 31.3025 42.26 31.7825 41.78C32.2625 41.3 32.5017 40.7067 32.5 40C32.4983 39.2933 32.2583 38.7 31.78 38.22C31.3017 37.74 30.7083 37.5 30 37.5C29.2917 37.5 28.6983 37.74 28.22 38.22C27.7417 38.7 27.5017 39.2933 27.5 40C27.4983 40.7067 27.7383 41.3008 28.22 41.7825C28.7017 42.2642 29.295 42.5033 30 42.5ZM27.5 32.5H32.5V17.5H27.5V32.5ZM20.625 52.5L7.5 39.375V20.625L20.625 7.5H39.375L52.5 20.625V39.375L39.375 52.5H20.625ZM22.75 47.5H37.25L47.5 37.25V22.75L37.25 12.5H22.75L12.5 22.75V37.25L22.75 47.5Z" fill="url(#paint0_linear_906_438)"/>
<defs>
<linearGradient id="paint0_linear_906_438" x1="52.5" y1="20.4855" x2="12.5623" y2="47.1085" gradientUnits="userSpaceOnUse">
<stop stop-color="#FF4FB1"/>
<stop offset="1" stop-color="#4F6BFF"/>
</linearGradient>
</defs>
</svg>
