<svg width="67" height="67" viewBox="0 0 67 67" fill="none" xmlns="http://www.w3.org/2000/svg">
<path fill-rule="evenodd" clip-rule="evenodd" d="M0 33.3333C0 14.9233 14.9233 0 33.3333 0C51.7433 0 66.6667 14.9233 66.6667 33.3333C66.6667 51.7433 51.7433 66.6667 33.3333 66.6667C14.9233 66.6667 0 51.7433 0 33.3333ZM33.3333 6.66667C26.2609 6.66667 19.4781 9.47618 14.4772 14.4772C9.47618 19.4781 6.66667 26.2609 6.66667 33.3333C6.66667 40.4058 9.47618 47.1885 14.4772 52.1895C19.4781 57.1905 26.2609 60 33.3333 60C40.4058 60 47.1885 57.1905 52.1895 52.1895C57.1905 47.1885 60 40.4058 60 33.3333C60 26.2609 57.1905 19.4781 52.1895 14.4772C47.1885 9.47618 40.4058 6.66667 33.3333 6.66667Z" fill="url(#paint0_linear_174_122)"/>
<path fill-rule="evenodd" clip-rule="evenodd" d="M36.6673 16.6666C36.6673 15.7826 36.3161 14.9347 35.691 14.3096C35.0659 13.6845 34.218 13.3333 33.334 13.3333C32.4499 13.3333 31.6021 13.6845 30.977 14.3096C30.3518 14.9347 30.0007 15.7826 30.0007 16.6666V30H16.6673C15.7833 30 14.9354 30.3512 14.3103 30.9763C13.6852 31.6014 13.334 32.4493 13.334 33.3333C13.334 34.2174 13.6852 35.0652 14.3103 35.6903C14.9354 36.3155 15.7833 36.6666 16.6673 36.6666H30.0007V50C30.0007 50.884 30.3518 51.7319 30.977 52.357C31.6021 52.9821 32.4499 53.3333 33.334 53.3333C34.218 53.3333 35.0659 52.9821 35.691 52.357C36.3161 51.7319 36.6673 50.884 36.6673 50V36.6666H50.0006C50.8847 36.6666 51.7326 36.3155 52.3577 35.6903C52.9828 35.0652 53.334 34.2174 53.334 33.3333C53.334 32.4493 52.9828 31.6014 52.3577 30.9763C51.7326 30.3512 50.8847 30 50.0006 30H36.6673V16.6666Z" fill="url(#paint1_linear_174_122)"/>
<defs>
<linearGradient id="paint0_linear_174_122" x1="66.6667" y1="19.2378" x2="7.49969" y2="58.6793" gradientUnits="userSpaceOnUse">
<stop stop-color="#FF4FB1"/>
<stop offset="1" stop-color="#4F6BFF"/>
</linearGradient>
<linearGradient id="paint1_linear_174_122" x1="53.334" y1="24.876" x2="17.8338" y2="48.5409" gradientUnits="userSpaceOnUse">
<stop stop-color="#FF4FB1"/>
<stop offset="1" stop-color="#4F6BFF"/>
</linearGradient>
</defs>
</svg>
