<svg width="65" height="65" viewBox="0 0 65 65" fill="none" xmlns="http://www.w3.org/2000/svg">
<path fill-rule="evenodd" clip-rule="evenodd" d="M58 35C58 48.8075 46.8075 60 33 60C29 60 25.22 59.06 21.87 57.39C20.9854 56.9317 19.9635 56.8135 18.9975 57.0575L13.4325 58.5475C12.8817 58.6945 12.3019 58.694 11.7513 58.5461C11.2008 58.3981 10.6988 58.108 10.2958 57.7047C9.89283 57.3015 9.603 56.7993 9.45542 56.2487C9.30784 55.698 9.30771 55.1182 9.45503 54.5675L10.9425 49.0025C11.1852 48.037 11.066 47.0161 10.6075 46.1325C8.88661 42.6742 7.99391 38.8629 8.00003 35C8.00003 21.1925 19.1925 10 33 10C46.8075 10 58 21.1925 58 35ZM21.75 32.77C21.75 36.1925 25.0475 39.7825 28.0725 42.355C30.13 44.105 31.16 44.9825 33 44.9825C34.84 44.9825 35.87 44.1075 37.9275 42.355C40.9525 39.78 44.25 36.1925 44.25 32.77C44.25 26.0775 38.0625 23.58 33 28.75C27.9375 23.58 21.75 26.0775 21.75 32.77Z" fill="url(#paint0_linear_449_813)"/>
<defs>
<linearGradient id="paint0_linear_449_813" x1="58" y1="24.4284" x2="13.6248" y2="54.0095" gradientUnits="userSpaceOnUse">
<stop stop-color="#FF4FB1"/>
<stop offset="1" stop-color="#4F6BFF"/>
</linearGradient>
</defs>
</svg>
