<svg width="20" height="26" viewBox="0 0 20 26" fill="none" xmlns="http://www.w3.org/2000/svg">
<path fill-rule="evenodd" clip-rule="evenodd" d="M9.0775 25.6465C9.0775 25.6465 0 17.856 0 10.1903C0 7.48769 1.05357 4.89574 2.92893 2.98468C4.8043 1.07362 7.34784 0 10 0C12.6522 0 15.1957 1.07362 17.0711 2.98468C18.9464 4.89574 20 7.48769 20 10.1903C20 17.856 10.9225 25.6465 10.9225 25.6465C10.4175 26.1204 9.58625 26.1153 9.0775 25.6465ZM10 14.6486C10.5745 14.6486 11.1434 14.5333 11.6742 14.3092C12.205 14.0852 12.6873 13.7568 13.0936 13.3428C13.4998 12.9288 13.8221 12.4373 14.042 11.8964C14.2618 11.3555 14.375 10.7758 14.375 10.1903C14.375 9.60486 14.2618 9.02513 14.042 8.48423C13.8221 7.94332 13.4998 7.45185 13.0936 7.03786C12.6873 6.62387 12.205 6.29548 11.6742 6.07143C11.1434 5.84738 10.5745 5.73206 10 5.73206C8.83968 5.73206 7.72688 6.20177 6.90641 7.03786C6.08594 7.87395 5.625 9.00793 5.625 10.1903C5.625 11.3727 6.08594 12.5067 6.90641 13.3428C7.72688 14.1789 8.83968 14.6486 10 14.6486Z" fill="url(#paint0_linear_174_453)"/>
<defs>
<linearGradient id="paint0_linear_174_453" x1="20" y1="7.50276" x2="-0.30001" y2="17.9122" gradientUnits="userSpaceOnUse">
<stop stop-color="#FF4FB1"/>
<stop offset="1" stop-color="#4F6BFF"/>
</linearGradient>
</defs>
</svg>
