<svg width="60" height="60" viewBox="0 0 60 60" fill="none" xmlns="http://www.w3.org/2000/svg">
<path d="M31.482 58.145L31.4545 58.15L31.277 58.2375L31.227 58.2475L31.192 58.2375L31.0145 58.15C30.9878 58.1416 30.9678 58.1458 30.9545 58.1625L30.9445 58.1875L30.902 59.2575L30.9145 59.3075L30.9395 59.34L31.1995 59.525L31.237 59.535L31.267 59.525L31.527 59.34L31.557 59.3L31.567 59.2575L31.5245 58.19C31.5178 58.1633 31.5036 58.1483 31.482 58.145ZM32.1445 57.8625L32.112 57.8675L31.6495 58.1L31.6245 58.125L31.617 58.1525L31.662 59.2275L31.6745 59.2575L31.6945 59.275L32.197 59.5075C32.2286 59.5158 32.2528 59.5091 32.2695 59.4875L32.2795 59.4525L32.1945 57.9175C32.1861 57.8875 32.1695 57.8691 32.1445 57.8625ZM30.357 57.8675C30.3459 57.8608 30.3328 57.8586 30.3202 57.8614C30.3076 57.8642 30.2966 57.8718 30.2895 57.8825L30.2745 57.9175L30.1895 59.4525C30.1911 59.4825 30.2053 59.5025 30.232 59.5125L30.2695 59.5075L30.772 59.275L30.797 59.255L30.807 59.2275L30.8495 58.1525L30.842 58.1225L30.817 58.0975L30.357 57.8675Z" fill="url(#paint0_linear_446_422)"/>
<path d="M50 43.75C50.963 43.7505 51.889 44.1214 52.586 44.786C53.2829 45.4506 53.6975 46.3579 53.7438 47.3198C53.7901 48.2817 53.4645 49.2246 52.8346 49.953C52.2046 50.6814 51.3185 51.1396 50.36 51.2325L50 51.25H10C9.03696 51.2495 8.11101 50.8786 7.41403 50.214C6.71705 49.5494 6.30247 48.6421 6.25619 47.6802C6.20991 46.7183 6.53548 45.7754 7.16544 45.047C7.7954 44.3186 8.68145 43.8604 9.64 43.7675L10 43.75H50ZM50 26.25C50.9946 26.25 51.9484 26.6451 52.6516 27.3483C53.3549 28.0516 53.75 29.0054 53.75 30C53.75 30.9946 53.3549 31.9484 52.6516 32.6517C51.9484 33.3549 50.9946 33.75 50 33.75H10C9.00544 33.75 8.05161 33.3549 7.34835 32.6517C6.64509 31.9484 6.25 30.9946 6.25 30C6.25 29.0054 6.64509 28.0516 7.34835 27.3483C8.05161 26.6451 9.00544 26.25 10 26.25H50ZM50 8.75C50.9946 8.75 51.9484 9.14509 52.6516 9.84835C53.3549 10.5516 53.75 11.5054 53.75 12.5C53.75 13.4946 53.3549 14.4484 52.6516 15.1517C51.9484 15.8549 50.9946 16.25 50 16.25H10C9.00544 16.25 8.05161 15.8549 7.34835 15.1517C6.64509 14.4484 6.25 13.4946 6.25 12.5C6.25 11.5054 6.64509 10.5516 7.34835 9.84835C8.05161 9.14509 9.00544 8.75 10 8.75H50Z" fill="url(#paint1_linear_446_422)"/>
<defs>
<linearGradient id="paint0_linear_446_422" x1="32.2795" y1="58.3435" x2="30.6961" y2="59.6607" gradientUnits="userSpaceOnUse">
<stop stop-color="#FF4FB1"/>
<stop offset="1" stop-color="#4F6BFF"/>
</linearGradient>
<linearGradient id="paint1_linear_446_422" x1="53.75" y1="21.0141" x2="14.5947" y2="50.1863" gradientUnits="userSpaceOnUse">
<stop stop-color="#FF4FB1"/>
<stop offset="1" stop-color="#4F6BFF"/>
</linearGradient>
</defs>
</svg>
