<svg width="64" height="60" viewBox="0 0 64 60" fill="none" xmlns="http://www.w3.org/2000/svg">
<path d="M10.712 43.7766C11.1272 44.1952 11.4453 44.7008 11.6438 45.2571C11.8422 45.8135 11.916 46.407 11.86 46.9953C11.5782 49.718 11.0452 52.4085 10.268 55.0321C15.848 53.7342 19.256 52.2313 20.804 51.4437C21.682 50.9969 22.6932 50.8911 23.644 51.1463C26.3692 51.8791 29.1789 52.2466 32 52.2393C47.984 52.2393 60 40.9596 60 28.1289C60 15.2981 47.984 4.01841 32 4.01841C16.016 4.01841 4 15.3021 4 28.1289C4 34.0279 6.468 39.501 10.712 43.7766ZM8.74 59.4684C7.79223 59.6569 6.84143 59.8298 5.888 59.9868C5.088 60.1154 4.48 59.2796 4.796 58.5322C5.15022 57.6903 5.47574 56.8366 5.772 55.9724L5.784 55.9322C6.776 53.039 7.584 49.7117 7.88 46.6135C2.972 41.6709 0 35.2013 0 28.1289C0 12.5937 14.328 0 32 0C49.672 0 64 12.5937 64 28.1289C64 43.664 49.672 56.2577 32 56.2577C28.8304 56.2648 25.6738 55.8514 22.612 55.0281C20.532 56.0849 16.056 58.0098 8.74 59.4684Z" fill="url(#paint0_linear_906_320)"/>
<path d="M33.3207 47.4294L33.3023 47.4327L33.184 47.4911L33.1507 47.4977L33.1273 47.4911L33.009 47.4327C32.9912 47.4272 32.9779 47.4299 32.969 47.4411L32.9623 47.4577L32.934 48.1711L32.9423 48.2044L32.959 48.2261L33.1323 48.3494L33.1573 48.3561L33.1773 48.3494L33.3507 48.2261L33.3707 48.1994L33.3773 48.1711L33.349 47.4594C33.3445 47.4416 33.3351 47.4316 33.3207 47.4294ZM33.7623 47.2411L33.7407 47.2444L33.4323 47.3994L33.4157 47.4161L33.4107 47.4344L33.4407 48.1511L33.449 48.1711L33.4623 48.1827L33.7973 48.3377C33.8184 48.3433 33.8345 48.3388 33.8457 48.3244L33.8523 48.3011L33.7957 47.2777C33.7901 47.2577 33.779 47.2455 33.7623 47.2411ZM32.5707 47.2444C32.5633 47.2399 32.5545 47.2385 32.5461 47.2404C32.5378 47.2422 32.5304 47.2472 32.5257 47.2544L32.5157 47.2777L32.459 48.3011C32.4601 48.3211 32.4695 48.3344 32.4873 48.3411L32.5123 48.3377L32.8473 48.1827L32.864 48.1694L32.8707 48.1511L32.899 47.4344L32.894 47.4144L32.8773 47.3977L32.5707 47.2444Z" fill="url(#paint1_linear_906_320)"/>
<path d="M33.9771 18.2327C34.6175 17.8695 35.1196 17.3044 35.4051 16.6258C35.6906 15.9471 35.7433 15.193 35.5551 14.4812C35.3669 13.7695 34.9483 13.14 34.3648 12.6911C33.7812 12.2423 33.0654 11.9993 32.3291 12C31.5929 12.0007 30.8776 12.2452 30.2949 12.6953C29.7123 13.1453 29.295 13.7756 29.1082 14.4878C28.9215 15.2 28.9757 15.9539 29.2626 16.632C29.5494 17.3101 30.0527 17.8741 30.6938 18.236L30.6771 18.266C29.5855 20.5444 28.0688 23.8077 25.7271 25.0327C23.8038 26.0377 21.0438 25.5327 18.9938 25.156C18.9609 24.6899 18.798 24.2423 18.5236 23.864C18.2493 23.4858 17.8743 23.192 17.4414 23.016C17.0085 22.84 16.535 22.7889 16.0745 22.8685C15.614 22.948 15.185 23.155 14.8362 23.466C14.4874 23.777 14.2328 24.1795 14.1012 24.6279C13.9696 25.0763 13.9663 25.5526 14.0917 26.0028C14.2171 26.453 14.4661 26.859 14.8106 27.1748C15.1551 27.4906 15.5811 27.7035 16.0405 27.7894L20.9538 40.4727C21.3182 41.413 21.9584 42.2211 22.7903 42.791C23.6222 43.3609 24.6071 43.6659 25.6155 43.666H39.0488C40.0572 43.6659 41.042 43.3609 41.874 42.791C42.7059 42.2211 43.3461 41.413 43.7105 40.4727L48.6221 27.7894C49.0786 27.7044 49.5024 27.494 49.846 27.1818C50.1896 26.8696 50.4395 26.4678 50.5676 26.0216C50.6958 25.5753 50.6971 25.1022 50.5715 24.6552C50.4459 24.2082 50.1983 23.8051 49.8564 23.4909C49.5146 23.1767 49.092 22.9639 48.6361 22.8764C48.1801 22.7889 47.7088 22.83 47.2749 22.9953C46.841 23.1606 46.4617 23.4434 46.1795 23.8121C45.8973 24.1807 45.7234 24.6207 45.6771 25.0827C43.5788 25.3544 40.8738 25.701 38.9371 24.6894C36.6421 23.4894 35.1038 20.451 33.9771 18.2327Z" fill="url(#paint2_linear_906_320)"/>
<defs>
<linearGradient id="paint0_linear_906_320" x1="64" y1="17.3141" x2="9.50946" y2="56.0597" gradientUnits="userSpaceOnUse">
<stop stop-color="#FF4FB1"/>
<stop offset="1" stop-color="#4F6BFF"/>
</linearGradient>
<linearGradient id="paint1_linear_906_320" x1="33.8523" y1="47.5617" x2="32.7967" y2="48.4399" gradientUnits="userSpaceOnUse">
<stop stop-color="#FF4FB1"/>
<stop offset="1" stop-color="#4F6BFF"/>
</linearGradient>
<linearGradient id="paint2_linear_906_320" x1="50.6647" y1="21.1378" x2="21.2113" y2="43.8712" gradientUnits="userSpaceOnUse">
<stop stop-color="#FF4FB1"/>
<stop offset="1" stop-color="#4F6BFF"/>
</linearGradient>
</defs>
</svg>
