<svg width="28" height="28" viewBox="0 0 28 28" fill="none" xmlns="http://www.w3.org/2000/svg">
<g clip-path="url(#clip0_906_1089)">
<path d="M14.584 24.6035C21.3495 24.6035 26.834 19.9018 26.834 14.1035C26.834 8.30518 21.3495 3.60352 14.584 3.60352C7.81848 3.60352 2.33398 8.30518 2.33398 14.1035C2.33398 17.7552 4.50982 20.9728 7.81032 22.8535C7.81032 24.5008 5.83398 26.3535 5.83398 26.3535C7.24682 26.5122 10.349 26.3138 11.4538 24.257C12.4525 24.4833 13.5025 24.6035 14.584 24.6035Z" stroke="url(#paint0_linear_906_1089)" stroke-linejoin="round"/>
<path d="M22 12.0443C22.0002 11.806 21.9404 11.571 21.8252 11.3582C21.7101 11.1454 21.5429 10.9607 21.3371 10.8191C21.1314 10.6775 20.8928 10.583 20.6406 10.543C20.3884 10.503 20.1297 10.5188 19.8853 10.5891C19.6408 10.6593 19.4175 10.7821 19.2333 10.9474C19.0491 11.1128 18.9092 11.3162 18.8248 11.5411C18.7405 11.7661 18.714 12.0064 18.7476 12.2427C18.7811 12.4789 18.8738 12.7045 19.0181 12.9013L17.4554 14.6945L16.0502 11.6857C16.3065 11.4847 16.4902 11.2152 16.5766 10.9137C16.6629 10.6122 16.6476 10.2932 16.5328 10.0001C16.418 9.70693 16.2092 9.45374 15.9348 9.27484C15.6603 9.09595 15.3334 9 14.9985 9C14.6635 9 14.3366 9.09595 14.0621 9.27484C13.7877 9.45374 13.5789 9.70693 13.4641 10.0001C13.3493 10.2932 13.334 10.6122 13.4204 10.9137C13.5067 11.2152 13.6905 11.4847 13.9467 11.6857L12.545 14.6929L10.9823 12.8997C11.1831 12.6256 11.2822 12.298 11.2646 11.9667C11.2469 11.6353 11.1136 11.3184 10.8847 11.0642C10.6559 10.81 10.3442 10.6325 9.997 10.5586C9.64983 10.4847 9.28626 10.5186 8.96165 10.655C8.63704 10.7914 8.36919 11.0229 8.19888 11.3143C8.02858 11.6056 7.96516 11.9409 8.01827 12.2689C8.07139 12.5969 8.23814 12.8998 8.49313 13.1314C8.74811 13.363 9.07735 13.5106 9.43072 13.5518L10.2754 18.2735C10.3117 18.4765 10.4241 18.6609 10.5926 18.7939C10.7612 18.9269 10.9749 19 11.1958 19H18.8046C19.0255 19 19.2392 18.9269 19.4078 18.7939C19.5763 18.6609 19.6888 18.4765 19.7251 18.2735L20.5691 13.5539C20.9641 13.508 21.3275 13.3292 21.591 13.0512C21.8545 12.7732 21.9999 12.4152 22 12.0443ZM15.0002 9.87068C15.1387 9.87068 15.274 9.90892 15.3891 9.98057C15.5042 10.0522 15.5939 10.1541 15.6469 10.2732C15.6999 10.3924 15.7138 10.5235 15.6867 10.65C15.6597 10.7765 15.5931 10.8927 15.4952 10.9839C15.3973 11.0751 15.2726 11.1372 15.1368 11.1623C15.001 11.1875 14.8602 11.1746 14.7323 11.1252C14.6044 11.0759 14.4951 10.9923 14.4182 10.8851C14.3413 10.7778 14.3002 10.6517 14.3002 10.5228C14.3002 10.3498 14.374 10.184 14.5053 10.0617C14.6365 9.93938 14.8146 9.87068 15.0002 9.87068ZM8.93373 12.0443C8.93373 11.9154 8.97478 11.7893 9.0517 11.682C9.12861 11.5748 9.23794 11.4912 9.36584 11.4419C9.49374 11.3925 9.63449 11.3796 9.77027 11.4048C9.90605 11.4299 10.0308 11.492 10.1287 11.5832C10.2266 11.6744 10.2932 11.7906 10.3202 11.9171C10.3472 12.0436 10.3334 12.1747 10.2804 12.2939C10.2274 12.413 10.1377 12.5149 10.0226 12.5865C9.90749 12.6582 9.77215 12.6964 9.63371 12.6964C9.44806 12.6964 9.27002 12.6277 9.13875 12.5054C9.00748 12.3831 8.93373 12.2173 8.93373 12.0443ZM20.3667 12.6964C20.2283 12.6964 20.0929 12.6582 19.9778 12.5865C19.8627 12.5149 19.773 12.413 19.72 12.2939C19.667 12.1747 19.6532 12.0436 19.6802 11.9171C19.7072 11.7906 19.7739 11.6744 19.8718 11.5832C19.9697 11.492 20.0944 11.4299 20.2302 11.4048C20.3659 11.3796 20.5067 11.3925 20.6346 11.4419C20.7625 11.4912 20.8718 11.5748 20.9487 11.682C21.0256 11.7893 21.0667 11.9154 21.0667 12.0443C21.0667 12.2173 20.9929 12.3831 20.8617 12.5054C20.7304 12.6277 20.5524 12.6964 20.3667 12.6964Z" fill="url(#paint1_linear_906_1089)"/>
<path d="M23.0007 25.3335C22.8173 25.3335 22.6604 25.2683 22.53 25.1378C22.3995 25.0074 22.3342 24.8504 22.334 24.6668V21.3335C22.334 21.1502 22.3993 20.9933 22.53 20.8628C22.6607 20.7324 22.8175 20.6671 23.0007 20.6668H23.334V20.0002C23.334 19.5391 23.4965 19.1461 23.8217 18.8212C24.1468 18.4963 24.5398 18.3337 25.0007 18.3335C25.4615 18.3333 25.8547 18.4958 26.18 18.8212C26.5053 19.1465 26.6678 19.5395 26.6673 20.0002V20.6668H27.0007C27.184 20.6668 27.341 20.7322 27.4717 20.8628C27.6023 20.9935 27.6675 21.1504 27.6673 21.3335V24.6668C27.6673 24.8502 27.6021 25.0072 27.4717 25.1378C27.3412 25.2685 27.1842 25.3337 27.0007 25.3335H23.0007ZM23.0007 24.6668H27.0007V21.3335H23.0007V24.6668ZM25.0007 23.6668C25.184 23.6668 25.341 23.6016 25.4717 23.4712C25.6023 23.3407 25.6675 23.1837 25.6673 23.0002C25.6671 22.8166 25.6019 22.6597 25.4717 22.5295C25.3414 22.3993 25.1844 22.3339 25.0007 22.3335C24.8169 22.3331 24.66 22.3984 24.53 22.5295C24.4 22.6606 24.3347 22.8175 24.334 23.0002C24.3333 23.1828 24.3987 23.3398 24.53 23.4712C24.6613 23.6025 24.8182 23.6677 25.0007 23.6668ZM24.0007 20.6668H26.0007V20.0002C26.0007 19.7224 25.9034 19.4863 25.709 19.2918C25.5145 19.0974 25.2784 19.0002 25.0007 19.0002C24.7229 19.0002 24.4868 19.0974 24.2923 19.2918C24.0979 19.4863 24.0007 19.7224 24.0007 20.0002V20.6668Z" fill="url(#paint2_linear_906_1089)"/>
</g>
<defs>
<linearGradient id="paint0_linear_906_1089" x1="26.834" y1="10.1807" x2="6.08243" y2="25.0502" gradientUnits="userSpaceOnUse">
<stop stop-color="#FF4FB1"/>
<stop offset="1" stop-color="#4F6BFF"/>
</linearGradient>
<linearGradient id="paint1_linear_906_1089" x1="22" y1="11.8857" x2="12.408" y2="20.8375" gradientUnits="userSpaceOnUse">
<stop stop-color="#FF4FB1"/>
<stop offset="1" stop-color="#4F6BFF"/>
</linearGradient>
<linearGradient id="paint2_linear_906_1089" x1="27.6673" y1="20.3535" x2="22.2325" y2="23.1138" gradientUnits="userSpaceOnUse">
<stop stop-color="#FF4FB1"/>
<stop offset="1" stop-color="#4F6BFF"/>
</linearGradient>
<clipPath id="clip0_906_1089">
<rect width="28" height="28" fill="white"/>
</clipPath>
</defs>
</svg>
