<svg width="16" height="16" viewBox="0 0 16 16" fill="none" xmlns="http://www.w3.org/2000/svg">
<path d="M1.33203 7.99992C1.33203 4.85725 1.33203 3.28592 2.30803 2.30925C3.28536 1.33325 4.85603 1.33325 7.9987 1.33325C11.1414 1.33325 12.7127 1.33325 13.6887 2.30925C14.6654 3.28659 14.6654 4.85725 14.6654 7.99992C14.6654 11.1426 14.6654 12.7139 13.6887 13.6899C12.7134 14.6666 11.1414 14.6666 7.9987 14.6666C4.85603 14.6666 3.2847 14.6666 2.30803 13.6899C1.33203 12.7146 1.33203 11.1426 1.33203 7.99992Z" stroke="url(#paint0_linear_my_photos)" stroke-width="1"/>
<path d="M10.6654 6.66667C11.4017 6.66667 11.9987 6.06971 11.9987 5.33333C11.9987 4.59695 11.4017 4 10.6654 4C9.92898 4 9.33203 4.59695 9.33203 5.33333C9.33203 6.06971 9.92898 6.66667 10.6654 6.66667Z" stroke="url(#paint0_linear_my_photos)" stroke-width="1"/>
<path d="M1.33203 8.33334L2.50003 7.31134C2.79279 7.05539 3.17186 6.92023 3.56051 6.93323C3.94916 6.94623 4.31836 7.10641 4.59336 7.38134L7.45336 10.2413C7.6753 10.4632 7.9684 10.5997 8.28106 10.6268C8.59373 10.6539 8.90592 10.5698 9.1627 10.3893L9.36203 10.2493C9.73243 9.9892 10.1801 9.86239 10.6319 9.88964C11.0837 9.91688 11.5129 10.0966 11.8494 10.3993L13.9987 12.3333" stroke="url(#paint0_linear_my_photos)" stroke-width="1" stroke-linecap="round"/>
<defs>
<linearGradient id="paint0_linear_my_photos" x1="14.6654" y1="2.66659" x2="1.33203" y2="14.6666" gradientUnits="userSpaceOnUse">
<stop stop-color="#FF4FB1"/>
<stop offset="1" stop-color="#4F6BFF"/>
</linearGradient>
</defs>
</svg>
