<svg width="60" height="60" viewBox="0 0 60 60" fill="none" xmlns="http://www.w3.org/2000/svg">
<g clip-path="url(#clip0_446_416)">
<path d="M26.2501 5C30.2401 4.99973 34.1494 6.12277 37.5309 8.24058C40.9124 10.3584 43.6293 13.3854 45.3707 16.9752C47.1121 20.5651 47.8077 24.5726 47.3779 28.5393C46.9481 32.506 45.4101 36.2715 42.9401 39.405L52.0701 48.535C52.5255 49.0065 52.7775 49.638 52.7718 50.2935C52.7661 50.949 52.5032 51.576 52.0397 52.0395C51.5762 52.5031 50.9491 52.766 50.2936 52.7717C49.6382 52.7774 49.0066 52.5254 48.5351 52.07L39.4051 42.94C36.7438 45.0374 33.6194 46.4679 30.2927 47.1123C26.966 47.7566 23.5335 47.5961 20.2814 46.644C17.0294 45.6919 14.0522 43.976 11.5982 41.6393C9.14426 39.3026 7.28466 36.413 6.17459 33.2115C5.06452 30.0099 4.73616 26.5894 5.21692 23.2351C5.69767 19.8809 6.97359 16.6902 8.93824 13.9294C10.9029 11.1685 13.4993 8.91756 16.5108 7.36423C19.5223 5.81091 22.8616 5.00029 26.2501 5ZM26.2501 10C21.9404 10 17.8071 11.712 14.7597 14.7595C11.7122 17.807 10.0001 21.9402 10.0001 26.25C10.0001 30.5598 11.7122 34.693 14.7597 37.7405C17.8071 40.788 21.9404 42.5 26.2501 42.5C30.5599 42.5 34.6932 40.788 37.7406 37.7405C40.7881 34.693 42.5001 30.5598 42.5001 26.25C42.5001 21.9402 40.7881 17.807 37.7406 14.7595C34.6932 11.712 30.5599 10 26.2501 10ZM26.2501 12.5C29.8969 12.5 33.3942 13.9487 35.9729 16.5273C38.5515 19.1059 40.0001 22.6033 40.0001 26.25C40.0001 29.8967 38.5515 33.3941 35.9729 35.9727C33.3942 38.5513 29.8969 40 26.2501 40C22.6034 40 19.1061 38.5513 16.5274 35.9727C13.9488 33.3941 12.5001 29.8967 12.5001 26.25C12.5001 22.6033 13.9488 19.1059 16.5274 16.5273C19.1061 13.9487 22.6034 12.5 26.2501 12.5Z" fill="url(#paint0_linear_446_416)"/>
</g>
<defs>
<linearGradient id="paint0_linear_446_416" x1="52.7719" y1="18.7854" x2="10.3749" y2="47.0467" gradientUnits="userSpaceOnUse">
<stop stop-color="#FF4FB1"/>
<stop offset="1" stop-color="#4F6BFF"/>
</linearGradient>
<clipPath id="clip0_446_416">
<rect width="60" height="60" fill="white"/>
</clipPath>
</defs>
</svg>
