<svg width="60" height="60" viewBox="0 0 60 60" fill="none" xmlns="http://www.w3.org/2000/svg">
<path fill-rule="evenodd" clip-rule="evenodd" d="M15.625 13.75C15.6248 12.0791 16.1398 10.4487 17.0998 9.08107C18.0598 7.71345 19.4181 6.67505 20.9897 6.10738C22.5612 5.53971 24.2696 5.47038 25.8819 5.90882C27.4943 6.34726 28.9323 7.27215 30 8.55748C31.3185 6.95903 33.1979 5.92472 35.2537 5.6661C37.3096 5.40748 39.3866 5.94409 41.0599 7.16618C42.7332 8.38827 43.8764 10.2035 44.2556 12.2406C44.6348 14.2776 44.2214 16.3826 43.1 18.125H45C46.8234 18.125 48.572 18.8493 49.8614 20.1386C51.1507 21.4279 51.875 23.1766 51.875 25V30C51.8756 30.9564 51.5627 31.8866 50.9843 32.6483C50.4059 33.41 49.5939 33.9612 48.6725 34.2175C49.0325 38.7825 48.8225 43.38 48.0475 47.9C47.8218 49.2133 47.1756 50.4178 46.2063 51.3322C45.2369 52.2465 43.9968 52.8213 42.6725 52.97L40.385 53.225C33.4823 53.9965 26.5152 53.9965 19.6125 53.225L17.3275 52.97C16.0032 52.8213 14.7631 52.2465 13.7937 51.3322C12.8244 50.4178 12.1782 49.2133 11.9525 47.9C11.1749 43.383 10.9649 38.7865 11.3275 34.2175C10.4061 33.9612 9.59405 33.41 9.01568 32.6483C8.4373 31.8866 8.12445 30.9564 8.125 30V25C8.125 23.1766 8.84933 21.4279 10.1386 20.1386C11.428 18.8493 13.1766 18.125 15 18.125H16.9C16.0651 16.8187 15.6226 15.3003 15.625 13.75ZM28.125 13.75C28.125 12.5897 27.6641 11.4769 26.8436 10.6564C26.0231 9.83592 24.9103 9.37498 23.75 9.37498C22.5897 9.37498 21.4769 9.83592 20.6564 10.6564C19.8359 11.4769 19.375 12.5897 19.375 13.75C19.375 14.9103 19.8359 16.0231 20.6564 16.8436C21.4769 17.664 22.5897 18.125 23.75 18.125C24.9103 18.125 26.0231 17.664 26.8436 16.8436C27.6641 16.0231 28.125 14.9103 28.125 13.75ZM36.25 18.125C36.8245 18.125 37.3934 18.0118 37.9242 17.792C38.455 17.5721 38.9373 17.2498 39.3436 16.8436C39.7498 16.4373 40.0721 15.955 40.292 15.4242C40.5118 14.8934 40.625 14.3245 40.625 13.75C40.625 13.1755 40.5118 12.6065 40.292 12.0757C40.0721 11.5449 39.7498 11.0626 39.3436 10.6564C38.9373 10.2501 38.455 9.92788 37.9242 9.70801C37.3934 9.48815 36.8245 9.37498 36.25 9.37498C35.0897 9.37498 33.9769 9.83592 33.1564 10.6564C32.3359 11.4769 31.875 12.5897 31.875 13.75C31.875 14.9103 32.3359 16.0231 33.1564 16.8436C33.9769 17.664 35.0897 18.125 36.25 18.125ZM11.875 25C11.875 23.275 13.275 21.875 15 21.875H28.125V30.625H12.5C12.3342 30.625 12.1753 30.5591 12.0581 30.4419C11.9408 30.3247 11.875 30.1657 11.875 30V25ZM31.875 34.375H44.9225C45.2725 38.675 45.0825 43.0075 44.3525 47.265C44.2642 47.7773 44.012 48.2471 43.6337 48.6037C43.2555 48.9604 42.7716 49.1845 42.255 49.2425L39.97 49.5C37.2783 49.8 34.58 49.9783 31.875 50.035V34.375ZM31.875 30.625H47.5C47.6658 30.625 47.8247 30.5591 47.9419 30.4419C48.0592 30.3247 48.125 30.1657 48.125 30V25C48.125 23.275 46.725 21.875 45 21.875H31.875V30.625ZM28.125 34.375V50.035C25.42 49.9784 22.7189 49.7999 20.03 49.5L17.745 49.2425C17.2287 49.1846 16.7452 48.9609 16.3669 48.6047C15.9887 48.2486 15.7363 47.7793 15.6475 47.2675C14.9177 43.0109 14.7262 38.6794 15.0775 34.375H28.125Z" fill="url(#paint0_linear_906_1000)"/>
<defs>
<linearGradient id="paint0_linear_906_1000" x1="51.875" y1="19.5118" x2="10.8217" y2="44.3513" gradientUnits="userSpaceOnUse">
<stop stop-color="#FF4FB1"/>
<stop offset="1" stop-color="#4F6BFF"/>
</linearGradient>
</defs>
</svg>
