<svg width="65" height="65" viewBox="0 0 65 65" fill="none" xmlns="http://www.w3.org/2000/svg">
<path d="M18 18.5C18 15.7 18 14.3 18.545 13.23C19.0244 12.2892 19.7892 11.5244 20.73 11.045C21.8 10.5 23.2 10.5 26 10.5H40C42.8 10.5 44.2 10.5 45.27 11.045C46.2108 11.5244 46.9756 12.2892 47.455 13.23C48 14.3 48 15.7 48 18.5V51.7625C48 52.9775 48 53.585 47.7475 53.9175C47.6384 54.0621 47.4992 54.1813 47.3394 54.2667C47.1797 54.3522 47.0033 54.4019 46.8225 54.4125C46.405 54.4375 45.9 54.1 44.89 53.4275L33 45.5L21.11 53.425C20.1 54.1 19.595 54.4375 19.175 54.4125C18.9946 54.4016 18.8187 54.3517 18.6594 54.2662C18.5002 54.1808 18.3613 54.0618 18.2525 53.9175C18 53.585 18 52.9775 18 51.7625V18.5Z" fill="url(#paint0_linear_449_820)"/>
<defs>
<linearGradient id="paint0_linear_449_820" x1="48" y1="23.1721" x2="16.149" y2="37.6771" gradientUnits="userSpaceOnUse">
<stop stop-color="#FF4FB1"/>
<stop offset="1" stop-color="#4F6BFF"/>
</linearGradient>
</defs>
</svg>
