<svg width="75" height="60" viewBox="0 0 75 60" fill="none" xmlns="http://www.w3.org/2000/svg">
<g clip-path="url(#clip0_446_428)">
<path d="M22.5 30C29.7539 30 35.625 24.1289 35.625 16.875C35.625 9.62109 29.7539 3.75 22.5 3.75C15.2461 3.75 9.375 9.62109 9.375 16.875C9.375 24.1289 15.2461 30 22.5 30ZM31.5 33.75H30.5273C28.0898 34.9219 25.3828 35.625 22.5 35.625C19.6172 35.625 16.9219 34.9219 14.4727 33.75H13.5C6.04688 33.75 0 39.7969 0 47.25V50.625C0 53.7305 2.51953 56.25 5.625 56.25H39.375C42.4805 56.25 45 53.7305 45 50.625V47.25C45 39.7969 38.9531 33.75 31.5 33.75ZM56.25 30C62.4609 30 67.5 24.9609 67.5 18.75C67.5 12.5391 62.4609 7.5 56.25 7.5C50.0391 7.5 45 12.5391 45 18.75C45 24.9609 50.0391 30 56.25 30ZM61.875 33.75H61.4297C59.8008 34.3125 58.0781 34.6875 56.25 34.6875C54.4219 34.6875 52.6992 34.3125 51.0703 33.75H50.625C48.2344 33.75 46.0312 34.4414 44.0977 35.5547C46.957 38.6367 48.75 42.7266 48.75 47.25V51.75C48.75 52.0078 48.6914 52.2539 48.6797 52.5H69.375C72.4805 52.5 75 49.9805 75 46.875C75 39.6211 69.1289 33.75 61.875 33.75Z" fill="url(#paint0_linear_446_428)"/>
</g>
<defs>
<linearGradient id="paint0_linear_446_428" x1="75" y1="18.8998" x2="24.5818" y2="66.9132" gradientUnits="userSpaceOnUse">
<stop stop-color="#FF4FB1"/>
<stop offset="1" stop-color="#4F6BFF"/>
</linearGradient>
<clipPath id="clip0_446_428">
<rect width="75" height="60" fill="white"/>
</clipPath>
</defs>
</svg>
