<svg width="40" height="40" viewBox="0 0 40 40" fill="none" xmlns="http://www.w3.org/2000/svg">
<path d="M20.9886 38.7633L20.9703 38.7667L20.852 38.825L20.8186 38.8317L20.7953 38.825L20.677 38.7667C20.6592 38.7611 20.6458 38.7639 20.637 38.775L20.6303 38.7917L20.602 39.505L20.6103 39.5383L20.627 39.56L20.8003 39.6833L20.8253 39.69L20.8453 39.6833L21.0186 39.56L21.0386 39.5333L21.0453 39.505L21.017 38.7933C21.0125 38.7756 21.0031 38.7656 20.9886 38.7633ZM21.4303 38.575L21.4086 38.5783L21.1003 38.7333L21.0836 38.75L21.0786 38.7683L21.1086 39.485L21.117 39.505L21.1303 39.5167L21.4653 39.6717C21.4864 39.6772 21.5025 39.6728 21.5136 39.6583L21.5203 39.635L21.4636 38.6117C21.4581 38.5917 21.447 38.5794 21.4303 38.575ZM20.2386 38.5783C20.2313 38.5739 20.2225 38.5724 20.2141 38.5743C20.2057 38.5762 20.1984 38.5812 20.1936 38.5883L20.1836 38.6117L20.127 39.635C20.1281 39.655 20.1375 39.6683 20.1553 39.675L20.1803 39.6717L20.5153 39.5167L20.532 39.5033L20.5386 39.485L20.567 38.7683L20.562 38.7483L20.5453 38.7317L20.2386 38.5783Z" fill="url(#paint0_linear_147_162)"/>
<path d="M21.6451 9.56667C22.2855 9.20342 22.7876 8.63837 23.0731 7.95971C23.3585 7.28106 23.4113 6.52699 23.2231 5.81521C23.0349 5.10342 22.6163 4.47397 22.0327 4.02511C21.4491 3.57624 20.7334 3.33322 19.9971 3.33396C19.2609 3.33471 18.5456 3.57919 17.9629 4.02924C17.3802 4.47929 16.9629 5.10959 16.7762 5.82175C16.5894 6.53392 16.6437 7.28788 16.9305 7.96595C17.2174 8.64402 17.7206 9.20805 18.3618 9.57L18.3451 9.6C17.2534 11.8783 15.7368 15.1417 13.3951 16.3667C11.4718 17.3717 8.71177 16.8667 6.66177 16.49C6.62889 16.0239 6.46601 15.5763 6.19162 15.198C5.91722 14.8197 5.5423 14.5259 5.1094 14.35C4.67649 14.174 4.20293 14.1229 3.74244 14.2024C3.28195 14.282 2.85298 14.489 2.50419 14.8C2.15539 15.111 1.90075 15.5135 1.76915 15.9619C1.63755 16.4103 1.63426 16.8866 1.75965 17.3368C1.88504 17.7869 2.1341 18.1929 2.47856 18.5087C2.82302 18.8245 3.24909 19.0374 3.70844 19.1233L8.62177 31.8067C8.98615 32.747 9.62632 33.5551 10.4583 34.125C11.2902 34.6949 12.275 34.9999 13.2834 35H26.7168C27.7252 34.9999 28.71 34.6949 29.5419 34.125C30.3739 33.5551 31.0141 32.747 31.3784 31.8067L36.2901 19.1233C36.7466 19.0384 37.1703 18.828 37.514 18.5158C37.8576 18.2035 38.1074 17.8018 38.2356 17.3555C38.3637 16.9093 38.3651 16.4361 38.2395 15.9892C38.1138 15.5422 37.8662 15.139 37.5244 14.8249C37.1826 14.5107 36.76 14.2979 36.304 14.2104C35.8481 14.1228 35.3767 14.164 34.9428 14.3293C34.509 14.4945 34.1297 14.7773 33.8475 15.146C33.5653 15.5147 33.3913 15.9547 33.3451 16.4167C31.2468 16.6883 28.5418 17.035 26.6051 16.0233C24.3101 14.8233 22.7718 11.785 21.6451 9.56667Z" fill="url(#paint1_linear_147_162)"/>
<defs>
<linearGradient id="paint0_linear_147_162" x1="21.5203" y1="38.8957" x2="20.4647" y2="39.7738" gradientUnits="userSpaceOnUse">
<stop stop-color="#FF4FB1"/>
<stop offset="1" stop-color="#4F6BFF"/>
</linearGradient>
<linearGradient id="paint1_linear_147_162" x1="38.3327" y1="12.4718" x2="8.87923" y2="35.2051" gradientUnits="userSpaceOnUse">
<stop stop-color="#FF4FB1"/>
<stop offset="1" stop-color="#4F6BFF"/>
</linearGradient>
</defs>
</svg>
