<svg width="19" height="16" viewBox="0 0 19 16" fill="none" xmlns="http://www.w3.org/2000/svg">
<path d="M9.98857 3.11635C10.3088 2.93473 10.5598 2.6522 10.7026 2.31288C10.8453 1.97355 10.8717 1.59652 10.7776 1.24062C10.6835 0.884731 10.4742 0.570006 10.1824 0.345573C9.89058 0.12114 9.53269 -0.000372869 9.16457 8.59514e-07C8.79645 0.000374588 8.43881 0.122614 8.14747 0.347639C7.85613 0.572664 7.64749 0.887813 7.55411 1.2439C7.46073 1.59998 7.48787 1.97696 7.63129 2.31599C7.7747 2.65503 8.02634 2.93704 8.3469 3.11802L8.33857 3.13302C7.79273 4.27219 7.0344 5.90385 5.86357 6.51635C4.9019 7.01885 3.5219 6.76635 2.4969 6.57802C2.48046 6.34495 2.39902 6.12115 2.26182 5.93201C2.12463 5.74288 1.93717 5.59599 1.72071 5.508C1.50426 5.42001 1.26748 5.39445 1.03724 5.43423C0.806992 5.474 0.592504 5.5775 0.418108 5.733C0.243713 5.8885 0.116392 6.08977 0.050591 6.31396C-0.0152095 6.53816 -0.016855 6.77631 0.0458412 7.0014C0.108537 7.22648 0.233065 7.42949 0.405295 7.58738C0.577525 7.74528 0.790562 7.85174 1.02023 7.89469L3.4769 14.2364C3.65909 14.7065 3.97918 15.1106 4.39515 15.3955C4.81112 15.6805 5.30353 15.833 5.80773 15.833H12.5244C13.0286 15.833 13.521 15.6805 13.937 15.3955C14.353 15.1106 14.673 14.7065 14.8552 14.2364L17.3111 7.89469C17.5393 7.85221 17.7512 7.74702 17.923 7.5909C18.0948 7.43479 18.2197 7.23391 18.2838 7.01078C18.3479 6.78765 18.3485 6.55109 18.2857 6.32761C18.2229 6.10412 18.0991 5.90254 17.9282 5.74545C17.7573 5.58836 17.546 5.48197 17.318 5.4382C17.09 5.39444 16.8544 5.41502 16.6374 5.49765C16.4205 5.58028 16.2309 5.72169 16.0898 5.90603C15.9487 6.09037 15.8617 6.31036 15.8386 6.54135C14.7894 6.67719 13.4369 6.85052 12.4686 6.34469C11.3211 5.74469 10.5519 4.22552 9.98857 3.11635Z" fill="url(#paint0_linear_3162_1884)"/>
<defs>
<linearGradient id="paint0_linear_3162_1884" x1="18.3324" y1="4.5689" x2="3.60563" y2="15.9356" gradientUnits="userSpaceOnUse">
<stop stop-color="#FF4FB1"/>
<stop offset="1" stop-color="#4F6BFF"/>
</linearGradient>
</defs>
</svg>
