<svg width="39" height="37" viewBox="0 0 39 37" fill="none" xmlns="http://www.w3.org/2000/svg">
<path d="M6.489 26.5185C6.74051 26.7721 6.93323 27.0784 7.05344 27.4154C7.17364 27.7524 7.21836 28.1119 7.18442 28.4683C7.01371 30.1176 6.69086 31.7474 6.22004 33.3368C9.60023 32.5505 11.6647 31.6401 12.6024 31.163C13.1343 30.8924 13.7468 30.8282 14.3228 30.9829C15.9736 31.4268 17.6757 31.6494 19.3846 31.645C29.0672 31.645 36.3462 24.8121 36.3462 17.0396C36.3462 9.26711 29.0672 2.43423 19.3846 2.43423C9.702 2.43423 2.42308 9.26954 2.42308 17.0396C2.42308 20.613 3.91812 23.9285 6.489 26.5185ZM5.29442 36.0242C4.72029 36.1383 4.14433 36.243 3.56677 36.3382C3.08215 36.4161 2.71385 35.9097 2.90527 35.457C3.11984 34.947 3.31703 34.4298 3.4965 33.9064L3.50377 33.882C4.10469 32.1294 4.59415 30.1138 4.77346 28.2371C1.80035 25.243 0 21.3238 0 17.0396C0 7.62887 8.67946 0 19.3846 0C30.0898 0 38.7692 7.62887 38.7692 17.0396C38.7692 26.4503 30.0898 34.0792 19.3846 34.0792C17.4646 34.0835 15.5524 33.833 13.6977 33.3343C12.4377 33.9745 9.72623 35.1405 5.29442 36.0242Z" fill="url(#paint0_linear_3141_331)"/>
<path d="M26.5005 14.9999C26.5007 14.7258 26.4366 14.4555 26.3132 14.2108C26.1898 13.966 26.0107 13.7537 25.7902 13.5908C25.5698 13.4279 25.3141 13.3192 25.0439 13.2732C24.7737 13.2272 24.4965 13.2454 24.2346 13.3262C23.9727 13.407 23.7334 13.5482 23.5361 13.7384C23.3387 13.9286 23.1888 14.1625 23.0984 14.4212C23.008 14.68 22.9796 14.9563 23.0156 15.228C23.0516 15.4998 23.1508 15.7592 23.3055 15.9856L21.6311 18.0481L20.1255 14.5874C20.4001 14.3563 20.597 14.0464 20.6895 13.6996C20.782 13.3528 20.7656 12.9859 20.6426 12.6488C20.5196 12.3116 20.2959 12.0204 20.0018 11.8146C19.7077 11.6089 19.3575 11.4985 18.9986 11.4985C18.6397 11.4985 18.2894 11.6089 17.9954 11.8146C17.7013 12.0204 17.4776 12.3116 17.3546 12.6488C17.2316 12.9859 17.2152 13.3528 17.3077 13.6996C17.4002 14.0464 17.5971 14.3563 17.8717 14.5874L16.3698 18.0462L14.6955 15.9837C14.9105 15.6685 15.0167 15.2917 14.9979 14.9106C14.979 14.5295 14.8361 14.165 14.5909 13.8727C14.3457 13.5803 14.0117 13.3761 13.6397 13.2911C13.2677 13.2062 12.8782 13.2451 12.5304 13.402C12.1826 13.5589 11.8956 13.8252 11.7131 14.1603C11.5306 14.4954 11.4627 14.8809 11.5196 15.2582C11.5765 15.6355 11.7552 15.9839 12.0284 16.2502C12.3016 16.5166 12.6543 16.6864 13.033 16.7337L13.938 22.1643C13.9769 22.3978 14.0973 22.6099 14.2779 22.7629C14.4585 22.9159 14.6875 22.9999 14.9242 22.9999H23.0767C23.3134 22.9999 23.5424 22.9159 23.723 22.7629C23.9036 22.6099 24.0241 22.3978 24.063 22.1643L24.9673 16.7362C25.3906 16.6833 25.7799 16.4777 26.0622 16.158C26.3446 15.8383 26.5004 15.4265 26.5005 14.9999ZM19.0005 12.4999C19.1488 12.4999 19.2938 12.5439 19.4171 12.6263C19.5405 12.7087 19.6366 12.8259 19.6934 12.9629C19.7501 13.1 19.765 13.2508 19.736 13.3963C19.7071 13.5417 19.6357 13.6754 19.5308 13.7803C19.4259 13.8852 19.2923 13.9566 19.1468 13.9855C19.0013 14.0145 18.8505 13.9996 18.7134 13.9428C18.5764 13.8861 18.4593 13.7899 18.3769 13.6666C18.2944 13.5433 18.2505 13.3983 18.2505 13.2499C18.2505 13.051 18.3295 12.8603 18.4701 12.7196C18.6108 12.579 18.8015 12.4999 19.0005 12.4999ZM12.5005 14.9999C12.5005 14.8516 12.5444 14.7066 12.6269 14.5833C12.7093 14.4599 12.8264 14.3638 12.9634 14.307C13.1005 14.2503 13.2513 14.2354 13.3968 14.2643C13.5423 14.2933 13.6759 14.3647 13.7808 14.4696C13.8857 14.5745 13.9571 14.7081 13.986 14.8536C14.015 14.9991 14.0001 15.1499 13.9434 15.2869C13.8866 15.424 13.7905 15.5411 13.6671 15.6235C13.5438 15.7059 13.3988 15.7499 13.2505 15.7499C13.0515 15.7499 12.8608 15.6709 12.7201 15.5303C12.5795 15.3896 12.5005 15.1988 12.5005 14.9999ZM24.7505 15.7499C24.6021 15.7499 24.4571 15.7059 24.3338 15.6235C24.2104 15.5411 24.1143 15.424 24.0575 15.2869C24.0008 15.1499 23.9859 14.9991 24.0149 14.8536C24.0438 14.7081 24.1152 14.5745 24.2201 14.4696C24.325 14.3647 24.4587 14.2933 24.6041 14.2643C24.7496 14.2354 24.9004 14.2503 25.0375 14.307C25.1745 14.3638 25.2916 14.4599 25.3741 14.5833C25.4565 14.7066 25.5005 14.8516 25.5005 14.9999C25.5005 15.1988 25.4214 15.3896 25.2808 15.5303C25.1401 15.6709 24.9494 15.7499 24.7505 15.7499Z" fill="url(#paint1_linear_3141_331)"/>
<defs>
<linearGradient id="paint0_linear_3141_331" x1="38.7692" y1="10.4883" x2="5.76054" y2="33.9592" gradientUnits="userSpaceOnUse">
<stop stop-color="#FF4FB1"/>
<stop offset="1" stop-color="#4F6BFF"/>
</linearGradient>
<linearGradient id="paint1_linear_3141_331" x1="26.5005" y1="14.8175" x2="15.5493" y2="24.3385" gradientUnits="userSpaceOnUse">
<stop stop-color="#FF4FB1"/>
<stop offset="1" stop-color="#4F6BFF"/>
</linearGradient>
</defs>
</svg>
