<svg width="40" height="40" viewBox="0 0 40 40" fill="none" xmlns="http://www.w3.org/2000/svg">
<g clip-path="url(#clip0_1314_1761)">
<path d="M34.5267 21.7667C34.9948 21.2979 35.2578 20.6625 35.2578 20C35.2578 19.3375 34.9948 18.7021 34.5267 18.2333L25.1 8.80168C24.631 8.33269 23.9949 8.06921 23.3317 8.06921C22.6684 8.06921 22.0323 8.33269 21.5633 8.80168C21.0944 9.27067 20.8309 9.90676 20.8309 10.57C20.8309 11.2333 21.0944 11.8694 21.5633 12.3383L26.7233 17.5H7.49835C6.83531 17.5 6.19942 17.7634 5.73058 18.2322C5.26174 18.7011 4.99835 19.337 4.99835 20C4.99835 20.6631 5.26174 21.2989 5.73058 21.7678C6.19942 22.2366 6.83531 22.5 7.49835 22.5H26.7233L21.5633 27.66C21.3311 27.8922 21.1469 28.1679 21.0212 28.4713C20.8956 28.7747 20.8309 29.0999 20.8309 29.4283C20.8309 29.7568 20.8956 30.082 21.0212 30.3854C21.1469 30.6888 21.3311 30.9645 21.5633 31.1967C21.7956 31.4289 22.0713 31.6131 22.3747 31.7388C22.6781 31.8645 23.0033 31.9291 23.3317 31.9291C23.6601 31.9291 23.9853 31.8645 24.2887 31.7388C24.5921 31.6131 24.8678 31.4289 25.1 31.1967L34.5267 21.7667Z" fill="#FF4FB1"/>
</g>
<defs>
<clipPath id="clip0_1314_1761">
<rect width="40" height="40" fill="white" transform="matrix(0 1 -1 0 40 0)"/>
</clipPath>
</defs>
</svg>
