<svg width="43" height="40" viewBox="0 0 43 40" fill="none" xmlns="http://www.w3.org/2000/svg">
<path fill-rule="evenodd" clip-rule="evenodd" d="M15 0C6.83 0 0 6.0475 0 13.75C0 16.805 1.0875 19.6175 2.905 21.8875L1.295 27.795C1.23768 28.02 1.24365 28.2565 1.31224 28.4783C1.38084 28.7001 1.50939 28.8987 1.68371 29.052C1.85803 29.2054 2.07134 29.3076 2.30009 29.3474C2.52884 29.3872 2.76413 29.363 2.98 29.2775L9.98 26.3625C10.286 26.2349 10.5288 25.9909 10.6549 25.6843C10.781 25.3777 10.7801 25.0335 10.6525 24.7275C10.5249 24.4215 10.2809 24.1787 9.97428 24.0526C9.66766 23.9265 9.32349 23.9274 9.0175 24.055L4.3775 25.9875L5.49 21.9125C5.5446 21.7123 5.54851 21.5017 5.50138 21.2996C5.45424 21.0975 5.35754 20.9104 5.22 20.755C3.5075 18.82 2.5 16.3875 2.5 13.75C2.5 7.6475 7.9825 2.5 15 2.5C20.775 2.5 25.525 5.995 27.0125 10.6325C19.0625 10.8675 12.5 16.825 12.5 24.375C12.5 32.0775 19.33 38.125 27.5 38.125C29.3674 38.1272 31.2212 37.8075 32.98 37.18L39.52 39.905C40.46 40.295 41.475 39.405 41.205 38.42L39.595 32.5125C41.4664 30.2126 42.4918 27.3401 42.5 24.375C42.5 17.3575 36.8325 11.715 29.645 10.765C28.145 4.535 22.0875 0 15 0ZM15 24.375C15 18.2725 20.4825 13.125 27.5 13.125C34.5175 13.125 40 18.2725 40 24.375C40 27.0125 38.9925 29.445 37.28 31.38C37.1425 31.5354 37.0458 31.7225 36.9986 31.9246C36.9515 32.1267 36.9554 32.3373 37.01 32.5375L38.1225 36.6125L33.4825 34.68C33.1813 34.5546 32.8431 34.5519 32.54 34.6725C30.9346 35.3033 29.2249 35.6264 27.5 35.625C20.4825 35.625 15 30.48 15 24.375Z" fill="black" fill-opacity="0.5"/>
</svg>
