<svg width="30" height="30" viewBox="0 0 30 30" fill="none" xmlns="http://www.w3.org/2000/svg">
<path d="M13.1241 2.5C15.1191 2.49987 17.0737 3.06138 18.7645 4.12029C20.4552 5.1792 21.8137 6.69271 22.6844 8.48762C23.5551 10.2825 23.9029 12.2863 23.688 14.2697C23.473 16.253 22.7041 18.1358 21.4691 19.7025L26.0341 24.2675C26.2618 24.5033 26.3878 24.819 26.3849 25.1468C26.3821 25.4745 26.2506 25.788 26.0189 26.0198C25.7871 26.2515 25.4736 26.383 25.1458 26.3858C24.8181 26.3887 24.5023 26.2627 24.2666 26.035L19.7016 21.47C18.3709 22.5187 16.8087 23.234 15.1454 23.5561C13.482 23.8783 11.7657 23.798 10.1397 23.322C8.51373 22.846 7.02513 21.988 5.79814 20.8197C4.57115 19.6513 3.64136 18.2065 3.08632 16.6057C2.53128 15.005 2.3671 13.2947 2.60748 11.6176C2.84786 9.94043 3.48582 8.34511 4.46814 6.96469C5.45046 5.58427 6.74866 4.45878 8.25442 3.68212C9.76018 2.90546 11.4298 2.50014 13.1241 2.5ZM13.1241 5C10.9692 5 8.90259 5.85602 7.37885 7.37976C5.85512 8.90349 4.9991 10.9701 4.9991 13.125C4.9991 15.2799 5.85512 17.3465 7.37885 18.8702C8.90259 20.394 10.9692 21.25 13.1241 21.25C15.279 21.25 17.3456 20.394 18.8693 18.8702C20.3931 17.3465 21.2491 15.2799 21.2491 13.125C21.2491 10.9701 20.3931 8.90349 18.8693 7.37976C17.3456 5.85602 15.279 5 13.1241 5ZM13.1241 6.25C14.9475 6.25 16.6961 6.97433 17.9855 8.26364C19.2748 9.55295 19.9991 11.3016 19.9991 13.125C19.9991 14.9484 19.2748 16.697 17.9855 17.9864C16.6961 19.2757 14.9475 20 13.1241 20C11.3007 20 9.55205 19.2757 8.26274 17.9864C6.97342 16.697 6.2491 14.9484 6.2491 13.125C6.2491 11.3016 6.97342 9.55295 8.26274 8.26364C9.55205 6.97433 11.3007 6.25 13.1241 6.25Z" fill="black" fill-opacity="0.5"/>
</svg>
