<svg width="48" height="48" viewBox="0 0 48 48" fill="none" xmlns="http://www.w3.org/2000/svg">
<path d="M24 0.75C27.0532 0.75 30.0767 1.35112 32.8975 2.51953C35.7183 3.68795 38.2815 5.40061 40.4404 7.55957C42.5994 9.71853 44.312 12.2817 45.4805 15.1025C46.6489 17.9233 47.25 20.9468 47.25 24C47.25 27.0532 46.6489 30.0767 45.4805 32.8975C44.312 35.7183 42.5994 38.2815 40.4404 40.4404C38.2815 42.5994 35.7183 44.312 32.8975 45.4805C30.0767 46.6489 27.0532 47.25 24 47.25C17.8337 47.25 11.9198 44.8006 7.55957 40.4404C3.19935 36.0802 0.75 30.1663 0.75 24C0.75 17.8337 3.19935 11.9198 7.55957 7.55957C11.9198 3.19935 17.8337 0.75 24 0.75ZM19.4717 14.3477C19.0799 14.3526 18.6961 14.4594 18.3584 14.6582C18.0206 14.8571 17.7403 15.141 17.5459 15.4814C17.3515 15.8219 17.2496 16.2076 17.25 16.5996V31.4004L17.2549 31.5469C17.2768 31.8881 17.3758 32.2206 17.5459 32.5186C17.7403 32.859 18.0206 33.1429 18.3584 33.3418C18.6961 33.5406 19.0799 33.6474 19.4717 33.6523C19.8636 33.6572 20.2502 33.5596 20.5928 33.3691L34.7031 25.5293L34.8027 25.4697C35.0312 25.3221 35.2228 25.123 35.3613 24.8877C35.5195 24.6188 35.6025 24.312 35.6025 24L35.5986 23.8838C35.5806 23.6123 35.4998 23.3477 35.3613 23.1123C35.2228 22.877 35.0312 22.6779 34.8027 22.5303L34.7031 22.4707L20.5928 14.6309C20.2501 14.4404 19.8636 14.3428 19.4717 14.3477Z" fill="#FF4FB1" stroke="#F4FDFF" stroke-width="1.5"/>
</svg>
