<svg width="8" height="12" viewBox="0 0 8 12" fill="none" xmlns="http://www.w3.org/2000/svg">
<path d="M7.5 9.375C7.5 10.4107 5.82075 11.25 3.75 11.25C1.67925 11.25 0 10.4107 0 9.375V7.875H7.5V9.375Z" fill="url(#paint0_linear_3001_1648)"/>
<path d="M7.5 7.875C7.5 8.91 5.82075 9.75 3.75 9.75C1.67925 9.75 0 8.91 0 7.875C0 6.84 1.67925 6 3.75 6C5.82075 6 7.5 6.84 7.5 7.875Z" fill="url(#paint1_linear_3001_1648)"/>
<path d="M7.5 6.375C7.5 7.41075 5.82075 8.25 3.75 8.25C1.67925 8.25 0 7.41075 0 6.375V4.875H7.5V6.375Z" fill="url(#paint2_linear_3001_1648)"/>
<path d="M7.5 4.875C7.5 5.91 5.82075 6.75 3.75 6.75C1.67925 6.75 0 5.91 0 4.875C0 3.84 1.67925 3 3.75 3C5.82075 3 7.5 3.84 7.5 4.875Z" fill="url(#paint3_linear_3001_1648)"/>
<path d="M7.5 3.375C7.5 4.41075 5.82075 5.25 3.75 5.25C1.67925 5.25 0 4.41075 0 3.375V1.875H7.5V3.375Z" fill="url(#paint4_linear_3001_1648)"/>
<path d="M7.5 1.875C7.5 2.91 5.82075 3.75 3.75 3.75C1.67925 3.75 0 2.91 0 1.875C0 0.84 1.67925 0 3.75 0C5.82075 0 7.5 0.84 7.5 1.875Z" fill="url(#paint5_linear_3001_1648)"/>
<defs>
<linearGradient id="paint0_linear_3001_1648" x1="1.989" y1="8.703" x2="3.2265" y2="11.4555" gradientUnits="userSpaceOnUse">
<stop stop-color="#FFA43D"/>
<stop offset="1" stop-color="#FB5937"/>
</linearGradient>
<linearGradient id="paint1_linear_3001_1648" x1="7.5105" y1="9.7485" x2="4.2765" y2="4.45725" gradientUnits="userSpaceOnUse">
<stop stop-color="#FF8A69"/>
<stop offset="1" stop-color="#FFCD0F"/>
</linearGradient>
<linearGradient id="paint2_linear_3001_1648" x1="1.989" y1="5.703" x2="3.2265" y2="8.4555" gradientUnits="userSpaceOnUse">
<stop stop-color="#FFA43D"/>
<stop offset="1" stop-color="#FB5937"/>
</linearGradient>
<linearGradient id="paint3_linear_3001_1648" x1="7.5105" y1="6.7485" x2="4.2765" y2="1.45725" gradientUnits="userSpaceOnUse">
<stop stop-color="#FF8A69"/>
<stop offset="1" stop-color="#FFCD0F"/>
</linearGradient>
<linearGradient id="paint4_linear_3001_1648" x1="1.989" y1="2.703" x2="3.2265" y2="5.4555" gradientUnits="userSpaceOnUse">
<stop stop-color="#FFA43D"/>
<stop offset="1" stop-color="#FB5937"/>
</linearGradient>
<linearGradient id="paint5_linear_3001_1648" x1="7.5105" y1="3.7485" x2="4.2765" y2="-1.54275" gradientUnits="userSpaceOnUse">
<stop stop-color="#FF8A69"/>
<stop offset="1" stop-color="#FFCD0F"/>
</linearGradient>
</defs>
</svg>
