<svg width="60" height="60" viewBox="0 0 60 60" fill="none" xmlns="http://www.w3.org/2000/svg">
<path d="M7.5 22.001C7.5 21.3379 7.76339 20.7021 8.23223 20.2332C8.70107 19.7644 9.33696 19.501 10 19.501H50C50.663 19.501 51.2989 19.7644 51.7678 20.2332C52.2366 20.7021 52.5 21.3379 52.5 22.001V27.001C52.5 27.664 52.2366 28.2999 51.7678 28.7687C51.2989 29.2376 50.663 29.501 50 29.501H10C9.33696 29.501 8.70107 29.2376 8.23223 28.7687C7.76339 28.2999 7.5 27.664 7.5 27.001V22.001ZM30 19.501V52.001Z" fill="url(#paint0_linear_3001_1547)"/>
<path d="M30 19.501V52.001M7.5 22.001C7.5 21.3379 7.76339 20.7021 8.23223 20.2332C8.70107 19.7644 9.33696 19.501 10 19.501H50C50.663 19.501 51.2989 19.7644 51.7678 20.2332C52.2366 20.7021 52.5 21.3379 52.5 22.001V27.001C52.5 27.664 52.2366 28.2999 51.7678 28.7687C51.2989 29.2376 50.663 29.501 50 29.501H10C9.33696 29.501 8.70107 29.2376 8.23223 28.7687C7.76339 28.2999 7.5 27.664 7.5 27.001V22.001Z" stroke="#FF4FB1" stroke-width="3.6" stroke-linecap="round" stroke-linejoin="round"/>
<path d="M47.5 29.5011V47.0011C47.5 48.3272 46.9732 49.5989 46.0355 50.5366C45.0979 51.4743 43.8261 52.0011 42.5 52.0011H17.5C16.1739 52.0011 14.9021 51.4743 13.9645 50.5366C13.0268 49.5989 12.5 48.3272 12.5 47.0011V29.5011M18.75 19.5011C17.0924 19.5011 15.5027 18.8426 14.3306 17.6705C13.1585 16.4984 12.5 14.9087 12.5 13.2511C12.5 11.5935 13.1585 10.0038 14.3306 8.83168C15.5027 7.65957 17.0924 7.00109 18.75 7.00109C21.1617 6.95907 23.5251 8.12924 25.5318 10.359C27.5386 12.5887 29.0957 15.7746 30 19.5011C30.9043 15.7746 32.4614 12.5887 34.4682 10.359C36.4749 8.12924 38.8383 6.95907 41.25 7.00109C42.9076 7.00109 44.4973 7.65957 45.6694 8.83168C46.8415 10.0038 47.5 11.5935 47.5 13.2511C47.5 14.9087 46.8415 16.4984 45.6694 17.6705C44.4973 18.8426 42.9076 19.5011 41.25 19.5011" fill="url(#paint1_linear_3001_1547)"/>
<path d="M47.5 29.5011V47.0011C47.5 48.3272 46.9732 49.5989 46.0355 50.5366C45.0979 51.4743 43.8261 52.0011 42.5 52.0011H17.5C16.1739 52.0011 14.9021 51.4743 13.9645 50.5366C13.0268 49.5989 12.5 48.3272 12.5 47.0011V29.5011M18.75 19.5011C17.0924 19.5011 15.5027 18.8426 14.3306 17.6705C13.1585 16.4984 12.5 14.9087 12.5 13.2511C12.5 11.5935 13.1585 10.0038 14.3306 8.83168C15.5027 7.65957 17.0924 7.00109 18.75 7.00109C21.1617 6.95907 23.5251 8.12924 25.5318 10.359C27.5386 12.5887 29.0957 15.7746 30 19.5011C30.9043 15.7746 32.4614 12.5887 34.4682 10.359C36.4749 8.12924 38.8383 6.95907 41.25 7.00109C42.9076 7.00109 44.4973 7.65957 45.6694 8.83168C46.8415 10.0038 47.5 11.5935 47.5 13.2511C47.5 14.9087 46.8415 16.4984 45.6694 17.6705C44.4973 18.8426 42.9076 19.5011 41.25 19.5011" stroke="#FF4FB1" stroke-width="3.2" stroke-linecap="round" stroke-linejoin="round"/>
<defs>
<linearGradient id="paint0_linear_3001_1547" x1="7.5" y1="64.0724" x2="57.3264" y2="59.4496" gradientUnits="userSpaceOnUse">
<stop stop-color="#E7C577"/>
<stop offset="0.5" stop-color="#FFE9B1"/>
<stop offset="0.75" stop-color="#F4D796"/>
<stop offset="1" stop-color="#D8B66D"/>
</linearGradient>
<linearGradient id="paint1_linear_3001_1547" x1="12.5" y1="68.7158" x2="51.4816" y2="66.6842" gradientUnits="userSpaceOnUse">
<stop stop-color="#E7C577"/>
<stop offset="0.5" stop-color="#FFE9B1"/>
<stop offset="0.75" stop-color="#F4D796"/>
<stop offset="1" stop-color="#D8B66D"/>
</linearGradient>
</defs>
</svg>
