<svg width="43" height="47" viewBox="0 0 43 47" fill="none" xmlns="http://www.w3.org/2000/svg">
<path d="M8.96695 0.000764975C8.19938 0.0144759 7.50797 0.204203 6.93375 0.576156C6.05895 1.14334 5.55504 2.08834 5.40293 3.07694C5.09883 5.05436 5.95922 7.33729 7.73051 9.20702C9.50156 11.0765 12.2629 12.4953 15.8203 12.4953H16.106L15.0375 10.3585C12.4366 10.1764 10.5305 9.09557 9.26168 7.75635C7.86891 6.28623 7.32305 4.4676 7.4877 3.39815C7.56996 2.8633 7.76918 2.54854 8.0809 2.34651C8.39262 2.14448 8.91445 2.00959 9.81012 2.19112C11.3427 2.50166 13.8218 3.82565 17.0998 6.79471L17.2582 6.63592H20.0013C15.8634 2.5578 12.7105 0.626781 10.2291 0.123812C9.92297 0.0607591 9.61249 0.0213464 9.30035 0.00592197C9.18777 0.000609469 9.07664 -0.00118815 8.96695 0.000764975ZM33.9237 0.000764975C33.814 -0.0010319 33.7029 0.000687594 33.5903 0.00592197C33.29 0.0199845 32.9797 0.0592419 32.6617 0.123812C30.1801 0.626781 27.0271 2.5578 22.8894 6.63592H25.6323L25.7907 6.79459C29.0687 3.82553 31.5478 2.50166 33.0804 2.191C33.9761 2.00936 34.4979 2.14436 34.8096 2.34639C35.1213 2.54842 35.3205 2.86319 35.4028 3.39791C35.5675 4.46737 35.0216 6.286 33.6288 7.75612C32.36 9.09557 30.4539 10.1763 27.853 10.3584L26.7846 12.4953H27.0703C30.6278 12.4953 33.3891 11.0766 35.1601 9.20702C36.9314 7.33729 37.7918 5.05436 37.4877 3.07694C37.3356 2.08834 36.8317 1.14334 35.9569 0.576156C35.3827 0.204203 34.6912 0.0144759 33.9237 0.000764975ZM18.1324 8.7453L17.1035 9.77385L18.3473 12.2609H24.5436L25.787 9.77385L24.7584 8.7453H18.1327H18.1324ZM0 14.3703V19.7609H16.6406V14.3703H0ZM18.75 14.3703V46.0109H24.1406V14.3703H18.75ZM26.25 14.3703V19.7609H42.8906V14.3703H26.25ZM3.75 21.8703V46.0109H16.6406V21.8703H3.75ZM26.25 21.8703V46.0109H39.1406V21.8703H26.25Z" fill="#9B7AE6"/>
</svg>
