<svg width="40" height="40" viewBox="0 0 40 40" fill="none" xmlns="http://www.w3.org/2000/svg">
<rect x="0.2" y="0.2" width="39.6" height="39.6" rx="9.8" fill="#F1E7FF"/>
<rect x="0.2" y="0.2" width="39.6" height="39.6" rx="9.8" stroke="#9B7AE6" stroke-width="0.4"/>
<path d="M15.8405 13.0618C15.5847 13.0663 15.3542 13.1296 15.1628 13.2536C14.8712 13.4426 14.7032 13.7576 14.6525 14.0871C14.5512 14.7463 14.838 15.5073 15.4284 16.1305C16.0187 16.7537 16.9392 17.2266 18.125 17.2266H18.2202L17.8641 16.5143C16.9971 16.4536 16.3617 16.0934 15.9388 15.6469C15.4745 15.1569 15.2926 14.5507 15.3475 14.1942C15.3749 14.0159 15.4413 13.911 15.5452 13.8437C15.6491 13.7763 15.823 13.7314 16.1216 13.7919C16.6325 13.8954 17.4588 14.3367 18.5515 15.3264L18.6043 15.2735H19.5187C18.1394 13.9141 17.0884 13.2704 16.2612 13.1028C16.1592 13.0818 16.0557 13.0686 15.9517 13.0635C15.9142 13.0617 15.8771 13.0611 15.8405 13.0618ZM24.1595 13.0618C24.1229 13.0612 24.0858 13.0617 24.0483 13.0635C23.9482 13.0682 23.8448 13.0812 23.7388 13.1028C22.9116 13.2704 21.8606 13.9141 20.4814 15.2735H21.3957L21.4485 15.3264C22.5411 14.3367 23.3675 13.8954 23.8784 13.7918C24.1769 13.7313 24.3509 13.7763 24.4548 13.8436C24.5587 13.911 24.6251 14.0159 24.6525 14.1941C24.7074 14.5506 24.5254 15.1568 24.0612 15.6469C23.6382 16.0934 23.0029 16.4536 22.1359 16.5143L21.7798 17.2266H21.875C23.0608 17.2266 23.9812 16.7537 24.5716 16.1305C25.162 15.5073 25.4488 14.7463 25.3475 14.0871C25.2968 13.7576 25.1288 13.4426 24.8372 13.2536C24.6458 13.1296 24.4153 13.0663 24.1595 13.0618ZM18.8957 15.9766L18.5527 16.3194L18.9673 17.1485H21.0328L21.4472 16.3194L21.1044 15.9766H18.8958H18.8957ZM12.8516 17.8516V19.6485H18.3984V17.8516H12.8516ZM19.1016 17.8516V28.3985H20.8984V17.8516H19.1016ZM21.6016 17.8516V19.6485H27.1484V17.8516H21.6016ZM14.1016 20.3516V28.3985H18.3984V20.3516H14.1016ZM21.6016 20.3516V28.3985H25.8984V20.3516H21.6016Z" fill="#9B7AE6"/>
</svg>
