<svg width="41" height="41" viewBox="0 0 41 41" fill="none" xmlns="http://www.w3.org/2000/svg">
<g clip-path="url(#clip0_864_1501)">
<path d="M38.2395 14.34C36.2886 13.4176 34.229 12.7456 32.1095 12.34C30.5162 12.0247 28.9018 11.8275 27.2795 11.75C26.7205 10.3302 26.0518 8.95602 25.2795 7.64C24.2534 5.74349 22.9936 3.9831 21.5295 2.4C21.0716 1.97042 20.4673 1.73133 19.8395 1.73133C19.2117 1.73133 18.6074 1.97042 18.1495 2.4C16.686 3.99815 15.4263 5.77169 14.3995 7.68C13.6637 9.01301 13.0156 10.3926 12.4595 11.81C10.9257 11.8923 9.40095 12.0962 7.8995 12.42C5.78041 12.8149 3.71816 13.4699 1.7595 14.37C1.21938 14.6835 0.816792 15.1886 0.631568 15.785C0.446343 16.3814 0.492005 17.0257 0.759499 17.59C1.80957 19.4712 3.08938 21.2145 4.5695 22.78C5.62692 23.9082 6.75592 24.967 7.9495 25.95C7.49681 27.537 7.17901 29.1595 6.9995 30.8C6.73345 32.9351 6.73345 35.0949 6.9995 37.23C7.11672 37.8491 7.46516 38.4003 7.97406 38.7717C8.48297 39.1432 9.11417 39.3071 9.7395 39.23C11.8511 38.8187 13.9034 38.1469 15.8495 37.23C17.2273 36.5732 18.5632 35.8318 19.8495 35.01C21.133 35.8364 22.4692 36.578 23.8495 37.23C25.7956 38.1469 27.8479 38.8187 29.9595 39.23C30.5848 39.3071 31.216 39.1432 31.7249 38.7717C32.2338 38.4003 32.5823 37.8491 32.6995 37.23C32.9656 35.0949 32.9656 32.9351 32.6995 30.8C32.5356 29.2298 32.2481 27.675 31.8395 26.15C33.1484 25.1234 34.3632 23.9822 35.4695 22.74C36.9485 21.1712 38.2312 19.4284 39.2895 17.55C39.5548 16.9816 39.5939 16.3336 39.3989 15.7375C39.2039 15.1414 38.7894 14.6417 38.2395 14.34Z" fill="#FFE236" stroke="#FFA722" stroke-width="1.8" stroke-miterlimit="10"/>
<path d="M21.5195 6.34C22.4798 7.68144 23.3102 9.11121 23.9995 10.61" stroke="white" stroke-width="1.8" stroke-miterlimit="10" stroke-linecap="round"/>
</g>
<defs>
<clipPath id="clip0_864_1501">
<rect width="41" height="41" fill="white"/>
</clipPath>
</defs>
</svg>
