<svg width="40" height="40" viewBox="0 0 40 40" fill="none" xmlns="http://www.w3.org/2000/svg">
<rect x="0.2" y="0.2" width="39.6" height="39.6" rx="9.8" fill="#FCE9E9"/>
<rect x="0.2" y="0.2" width="39.6" height="39.6" rx="9.8" stroke="#9B7AE6" stroke-width="0.4"/>
<g clip-path="url(#clip0_869_2207)">
<path d="M28.6539 16.9953C27.7022 16.5454 26.6975 16.2176 25.6636 16.0197C24.8864 15.8659 24.0989 15.7697 23.3075 15.7319C23.0349 15.0393 22.7087 14.369 22.3319 13.727C21.8314 12.8019 21.2168 11.9431 20.5027 11.1709C20.2793 10.9614 19.9845 10.8447 19.6783 10.8447C19.372 10.8447 19.0772 10.9614 18.8539 11.1709C18.14 11.9505 17.5255 12.8156 17.0246 13.7465C16.6657 14.3968 16.3496 15.0697 16.0783 15.7611C15.3301 15.8013 14.5863 15.9008 13.8539 16.0587C12.8202 16.2514 11.8142 16.5709 10.8588 17.0099C10.5953 17.1629 10.3989 17.4092 10.3086 17.7002C10.2182 17.9911 10.2405 18.3054 10.371 18.5807C10.8832 19.4983 11.5075 20.3487 12.2295 21.1124C12.7453 21.6627 13.296 22.1792 13.8783 22.6587C13.6575 23.4329 13.5024 24.2243 13.4149 25.0246C13.2851 26.0661 13.2851 27.1196 13.4149 28.1611C13.472 28.4631 13.642 28.732 13.8903 28.9132C14.1385 29.0944 14.4464 29.1743 14.7515 29.1368C15.7815 28.9361 16.7826 28.6084 17.7319 28.1611C18.4041 27.8408 19.0557 27.4791 19.6832 27.0782C20.3093 27.4814 20.9611 27.8431 21.6344 28.1611C22.5837 28.6084 23.5848 28.9361 24.6149 29.1368C24.9199 29.1743 25.2278 29.0944 25.4761 28.9132C25.7243 28.732 25.8943 28.4631 25.9515 28.1611C26.0812 27.1196 26.0812 26.0661 25.9515 25.0246C25.8715 24.2586 25.7312 23.5002 25.5319 22.7563C26.1704 22.2555 26.763 21.6988 27.3027 21.0929C28.0241 20.3276 28.6498 19.4775 29.1661 18.5611C29.2955 18.2839 29.3146 17.9678 29.2194 17.677C29.1243 17.3862 28.9221 17.1425 28.6539 16.9953Z" fill="#FFE236" stroke="#FFA722" stroke-width="1.8" stroke-miterlimit="10"/>
<path d="M20.498 13.0928C20.9665 13.7471 21.3715 14.4446 21.7078 15.1757" stroke="white" stroke-width="1.8" stroke-miterlimit="10" stroke-linecap="round"/>
</g>
<defs>
<clipPath id="clip0_869_2207">
<rect width="20" height="20" fill="white" transform="translate(10 10)"/>
</clipPath>
</defs>
</svg>
