<svg width="18" height="18" viewBox="0 0 18 18" fill="none" xmlns="http://www.w3.org/2000/svg">
<path fill-rule="evenodd" clip-rule="evenodd" d="M8.99999 1.5C13.1422 1.5 16.5 4.85784 16.5 8.99999C16.5 13.1421 13.1422 16.5 8.99999 16.5C4.85788 16.5 1.5 13.1421 1.5 8.99999C1.5 4.85784 4.85788 1.5 8.99999 1.5ZM9.75163 8.25H8.25165V12.75H9.75163V8.25ZM9.00762 5.06249C8.4608 5.06249 8.06413 5.45694 8.06413 5.98959C8.06413 6.5438 8.45036 6.93751 9.00762 6.93751C9.54322 6.93751 9.93915 6.54376 9.93915 6C9.93915 5.45698 9.54322 5.06249 9.00762 5.06249Z" fill="black"/>
</svg>
