<svg width="46" height="36" viewBox="0 0 46 36" fill="none" xmlns="http://www.w3.org/2000/svg">
<path d="M0.5 17.8934C0.500075 17.0324 0.841882 16.2067 1.4502 15.5975L15.5898 1.45197C15.8916 1.15021 16.2503 0.911247 16.6445 0.747864C17.039 0.584475 17.4627 0.499817 17.8896 0.499817C18.3164 0.499876 18.7395 0.584532 19.1338 0.747864C19.528 0.911248 19.8867 1.15019 20.1885 1.45197C20.4903 1.75376 20.7292 2.11237 20.8926 2.50665C21.0559 2.901 21.1406 3.32396 21.1406 3.75079C21.1406 4.17767 21.0559 4.60054 20.8926 4.99493C20.7293 5.38921 20.4902 5.7478 20.1885 6.04962L11.5947 14.6434L41.6396 14.6434C42.5014 14.6435 43.3281 14.9861 43.9375 15.5955C44.5469 16.2049 44.8896 17.0316 44.8896 17.8934C44.8896 18.7553 44.547 19.5827 43.9375 20.1922C43.3281 20.8015 42.5014 21.1433 41.6396 21.1434H11.5947L12.4482 21.9969L20.1885 29.7401C20.798 30.3497 21.1406 31.1768 21.1406 32.0389C21.1406 32.901 20.7981 33.7281 20.1885 34.3377C19.5789 34.9473 18.7518 35.2897 17.8896 35.2899C17.0275 35.2899 16.1995 34.9482 15.5898 34.3387L15.5908 34.3377L1.4502 20.1902C0.841687 19.5809 0.5 18.7545 0.5 17.8934Z" fill="black" stroke="black"/>
</svg>
