<svg width="26" height="26" viewBox="0 0 26 26" fill="none" xmlns="http://www.w3.org/2000/svg">
<path d="M8.60327 2.65845C8.2986 2.96318 8.12744 3.37645 8.12744 3.80737C8.12744 4.23829 8.2986 4.65156 8.60327 4.9563L16.647 13L8.60327 21.0438C8.31657 21.3518 8.16051 21.7589 8.16791 22.1796C8.17532 22.6003 8.34562 23.0018 8.64298 23.2994C8.94034 23.5971 9.34158 23.7679 9.76227 23.7758C10.183 23.7836 10.5903 23.628 10.8986 23.3417L20.0925 14.1502C20.3972 13.8455 20.5684 13.4322 20.5684 13.0013C20.5684 12.5704 20.3972 12.1571 20.0925 11.8524L10.9011 2.65845C10.5964 2.35377 10.1831 2.18262 9.7522 2.18262C9.32128 2.18262 8.90801 2.35377 8.60327 2.65845Z" fill="black" fill-opacity="0.5"/>
</svg>
