<svg width="18" height="18" viewBox="0 0 18 18" fill="none" xmlns="http://www.w3.org/2000/svg">
<path d="M9 12.75C9.2125 12.75 9.39075 12.678 9.53475 12.534C9.67875 12.39 9.7505 12.212 9.75 12C9.7495 11.788 9.6775 11.61 9.534 11.466C9.3905 11.322 9.2125 11.25 9 11.25C8.7875 11.25 8.6095 11.322 8.466 11.466C8.3225 11.61 8.2505 11.788 8.25 12C8.2495 12.212 8.3215 12.3902 8.466 12.5347C8.6105 12.6792 8.7885 12.751 9 12.75ZM8.25 9.75H9.75V5.25H8.25V9.75ZM6.1875 15.75L2.25 11.8125V6.1875L6.1875 2.25H11.8125L15.75 6.1875V11.8125L11.8125 15.75H6.1875ZM6.825 14.25H11.175L14.25 11.175V6.825L11.175 3.75H6.825L3.75 6.825V11.175L6.825 14.25Z" fill="black"/>
</svg>
