<svg width="13" height="13" viewBox="0 0 13 13" fill="none" xmlns="http://www.w3.org/2000/svg">
<path d="M6.09375 9.47917C6.28559 9.47917 6.44651 9.41417 6.57651 9.28417C6.70651 9.15417 6.77128 8.99347 6.77083 8.80208C6.77038 8.61069 6.70538 8.45 6.57583 8.32C6.44628 8.19 6.28559 8.125 6.09375 8.125C5.90191 8.125 5.74121 8.19 5.61167 8.32C5.48212 8.45 5.41712 8.61069 5.41667 8.80208C5.41621 8.99347 5.48121 9.15439 5.61167 9.28484C5.74212 9.41529 5.90281 9.48007 6.09375 9.47917ZM5.41667 6.77083H6.77083V2.70833H5.41667V6.77083ZM3.55469 12.1875L0 8.63281V3.55469L3.55469 0H8.63281L12.1875 3.55469V8.63281L8.63281 12.1875H3.55469ZM4.13021 10.8333H8.05729L10.8333 8.05729V4.13021L8.05729 1.35417H4.13021L1.35417 4.13021V8.05729L4.13021 10.8333Z" fill="black"/>
</svg>
