<svg width="18" height="18" viewBox="0 0 18 18" fill="none" xmlns="http://www.w3.org/2000/svg">
<path d="M4.56836 7.66895C5.08101 6.97472 5.74869 6.40979 6.51822 6.01917C7.28775 5.62854 8.13787 5.42301 9.00086 5.41895C9.8639 5.42272 10.7141 5.62812 11.4837 6.01877C12.2533 6.40942 12.9209 6.9745 13.4334 7.66895M6.15461 8.86145C6.4779 8.40546 6.90405 8.03204 7.39855 7.77144C7.89304 7.51084 8.44197 7.37038 9.00086 7.36145C9.55975 7.37038 10.1087 7.51084 10.6032 7.77144C11.0977 8.03204 11.5238 8.40546 11.8471 8.86145M7.63211 9.9677C7.79136 9.75503 7.99798 9.58241 8.23556 9.4635C8.47315 9.3446 8.73518 9.28269 9.00086 9.28269C9.26654 9.28269 9.52857 9.3446 9.76615 9.4635C10.0037 9.58241 10.2104 9.75503 10.3696 9.9677" stroke="black" stroke-width="0.5" stroke-linecap="round" stroke-linejoin="round"/>
<path d="M9 16.3125C9.63375 16.3125 14.7188 13.3987 14.7188 9.95996V2.45996C13.2188 2.45996 9 1.70996 9 1.70996C9 1.70996 4.7775 2.45996 3.28125 2.45996V9.95996C3.28125 13.3987 8.36625 16.3125 9 16.3125Z" stroke="black" stroke-width="0.5" stroke-linecap="round" stroke-linejoin="round"/>
</svg>
