<svg width="60" height="60" viewBox="0 0 60 60" fill="none" xmlns="http://www.w3.org/2000/svg">
<rect x="0.75" y="0.75" width="58.5" height="58.5" rx="29.25" stroke="black" stroke-width="1.5"/>
<path fill-rule="evenodd" clip-rule="evenodd" d="M13.6733 13.675C14.0249 13.3239 14.5015 13.1266 14.9984 13.1266C15.4952 13.1266 15.9718 13.3239 16.3234 13.675L46.3234 43.675C46.5076 43.8467 46.6553 44.0537 46.7578 44.2837C46.8603 44.5137 46.9154 44.7619 46.9198 45.0137C46.9243 45.2655 46.878 45.5155 46.7837 45.749C46.6894 45.9825 46.549 46.1945 46.3709 46.3726C46.1929 46.5506 45.9808 46.691 45.7473 46.7853C45.5139 46.8796 45.2638 46.9259 45.012 46.9215C44.7603 46.917 44.512 46.8619 44.282 46.7595C44.052 46.657 43.845 46.5092 43.6734 46.325L13.6733 16.325C13.3222 15.9734 13.125 15.4969 13.125 15C13.125 14.5031 13.3222 14.0266 13.6733 13.675Z" fill="black"/>
<path fill-rule="evenodd" clip-rule="evenodd" d="M46.3251 13.675C46.6762 14.0266 46.8735 14.5031 46.8735 15C46.8735 15.4969 46.6762 15.9734 46.3251 16.325L16.3251 46.325C15.9697 46.6562 15.4996 46.8365 15.0138 46.8279C14.528 46.8194 14.0646 46.6226 13.721 46.2791C13.3775 45.9355 13.1807 45.4721 13.1722 44.9863C13.1636 44.5006 13.3439 44.0304 13.6751 43.675L43.6751 13.675C44.0267 13.3239 44.5032 13.1266 45.0001 13.1266C45.497 13.1266 45.9735 13.3239 46.3251 13.675Z" fill="black"/>
</svg>
