<svg width="70" height="70" viewBox="0 0 70 70" fill="none" xmlns="http://www.w3.org/2000/svg">
<path fill-rule="evenodd" clip-rule="evenodd" d="M58.3346 11.6666H11.668C10.8944 11.6666 10.1526 11.9739 9.60557 12.5209C9.05859 13.0679 8.7513 13.8098 8.7513 14.5833V55.4166C8.7513 56.1902 9.05859 56.9321 9.60557 57.479C10.1526 58.026 10.8944 58.3333 11.668 58.3333H58.3346C59.1082 58.3333 59.85 58.026 60.397 57.479C60.944 56.9321 61.2513 56.1902 61.2513 55.4166V14.5833C61.2513 13.8098 60.944 13.0679 60.397 12.5209C59.85 11.9739 59.1082 11.6666 58.3346 11.6666ZM11.668 5.83331C9.34732 5.83331 7.12173 6.75519 5.48078 8.39613C3.83984 10.0371 2.91797 12.2627 2.91797 14.5833V55.4166C2.91797 57.7373 3.83984 59.9629 5.48078 61.6038C7.12173 63.2448 9.34732 64.1666 11.668 64.1666H58.3346C60.6553 64.1666 62.8809 63.2448 64.5218 61.6038C66.1628 59.9629 67.0846 57.7373 67.0846 55.4166V14.5833C67.0846 12.2627 66.1628 10.0371 64.5218 8.39613C62.8809 6.75519 60.6553 5.83331 58.3346 5.83331H11.668ZM17.5013 20.4166H23.3346V26.25H17.5013V20.4166ZM32.0846 20.4166C31.3111 20.4166 30.5692 20.7239 30.0222 21.2709C29.4753 21.8179 29.168 22.5598 29.168 23.3333C29.168 24.1069 29.4753 24.8487 30.0222 25.3957C30.5692 25.9427 31.3111 26.25 32.0846 26.25H49.5846C50.3582 26.25 51.1 25.9427 51.647 25.3957C52.194 24.8487 52.5013 24.1069 52.5013 23.3333C52.5013 22.5598 52.194 21.8179 51.647 21.2709C51.1 20.7239 50.3582 20.4166 49.5846 20.4166H32.0846ZM23.3346 32.0833H17.5013V37.9166H23.3346V32.0833ZM29.168 35C29.168 34.2264 29.4753 33.4846 30.0222 32.9376C30.5692 32.3906 31.3111 32.0833 32.0846 32.0833H49.5846C50.3582 32.0833 51.1 32.3906 51.647 32.9376C52.194 33.4846 52.5013 34.2264 52.5013 35C52.5013 35.7735 52.194 36.5154 51.647 37.0624C51.1 37.6094 50.3582 37.9166 49.5846 37.9166H32.0846C31.3111 37.9166 30.5692 37.6094 30.0222 37.0624C29.4753 36.5154 29.168 35.7735 29.168 35ZM23.3346 43.75H17.5013V49.5833H23.3346V43.75ZM29.168 46.6666C29.168 45.8931 29.4753 45.1512 30.0222 44.6043C30.5692 44.0573 31.3111 43.75 32.0846 43.75H49.5846C50.3582 43.75 51.1 44.0573 51.647 44.6043C52.194 45.1512 52.5013 45.8931 52.5013 46.6666C52.5013 47.4402 52.194 48.1821 51.647 48.729C51.1 49.276 50.3582 49.5833 49.5846 49.5833H32.0846C31.3111 49.5833 30.5692 49.276 30.0222 48.729C29.4753 48.1821 29.168 47.4402 29.168 46.6666Z" fill="black"/>
</svg>
