<svg width="8" height="9" viewBox="0 0 8 9" fill="none" xmlns="http://www.w3.org/2000/svg">
<path d="M6.48056 0.299805H0.862579C0.713581 0.299805 0.570686 0.365653 0.465328 0.482863C0.359971 0.600073 0.300781 0.759044 0.300781 0.924805V7.1748C0.300781 7.34056 0.359971 7.49954 0.465328 7.61675C0.570686 7.73396 0.713581 7.7998 0.862579 7.7998H6.48056C6.62955 7.7998 6.77245 7.73396 6.87781 7.61675C6.98316 7.49954 7.04235 7.34056 7.04235 7.1748V0.924805C7.04235 0.759044 6.98316 0.600073 6.87781 0.482863C6.77245 0.365653 6.62955 0.299805 6.48056 0.299805Z" stroke="black" stroke-width="0.6" stroke-linecap="round" stroke-linejoin="round"/>
<path d="M0.300781 2.1748H7.04235M5.35696 0.299805L4.23337 2.1748M3.10977 0.299805L1.98617 2.1748M3.01614 4.88314V3.62022L3.99928 4.25147L4.98243 4.88314L3.99928 5.5146L3.01614 6.14605V4.88314Z" stroke="black" stroke-width="0.6" stroke-linecap="round" stroke-linejoin="round"/>
</svg>
