<svg width="16" height="16" viewBox="0 0 16 16" fill="none" xmlns="http://www.w3.org/2000/svg">
<path d="M3.05013 3.04967C0.316623 5.78317 0.316623 10.2162 3.05013 12.9502C5.78364 15.6841 10.2157 15.6827 12.9492 12.9492C15.6827 10.2157 15.6841 5.78364 12.9502 3.05013C10.2167 0.316623 5.78457 0.316159 3.05013 3.04967ZM12.622 3.37824C12.9975 3.7588 13.3252 4.18363 13.598 4.64336L11.7045 6.53686C11.5056 6.02896 11.2034 5.56784 10.8172 5.18264C10.4318 4.79613 9.97031 4.49382 9.46204 4.29483L11.3555 2.40133C11.816 2.6743 12.241 3.00236 12.622 3.37824ZM5.51214 10.4881C4.85269 9.82785 4.48221 8.93285 4.48203 7.99964C4.48186 7.06643 4.85201 6.1713 5.51122 5.51075C6.17164 4.85142 7.06671 4.4811 7.99991 4.4811C8.93312 4.4811 9.82819 4.85142 10.4886 5.51075C11.1472 6.17145 11.5171 7.06631 11.5171 7.99922C11.5171 8.93212 11.1472 9.82698 10.4886 10.4877C9.82833 11.147 8.93343 11.5174 8.00034 11.5176C7.06724 11.5177 6.1722 11.1477 5.51168 10.4886L5.51214 10.4881ZM3.37778 12.622C3.0019 12.241 2.67384 11.8155 2.40086 11.3551L4.29436 9.46157C4.4946 9.96904 4.79697 10.4299 5.18273 10.8157C5.56848 11.2015 6.02939 11.5038 6.53686 11.7041L4.64243 13.5976C4.19226 13.3284 3.7653 13.0082 3.37732 12.6216L3.37778 12.622ZM4.64383 2.39994L6.53825 4.29436C6.03055 4.49406 5.56942 4.79619 5.1836 5.18193C4.79779 5.56766 4.49556 6.02873 4.29576 6.5364L2.40133 4.6429C2.6705 4.19273 2.99073 3.76576 3.37824 3.37685C3.75904 3.00103 4.18418 2.67298 4.64429 2.39994H4.64383ZM11.3565 13.5976L9.46204 11.7031C9.96984 11.5037 10.4311 11.2018 10.8169 10.8161C11.2028 10.4304 11.5049 9.96929 11.7045 9.46157L13.599 11.3551C13.3298 11.8052 13.0096 12.2331 12.622 12.622C12.2412 12.9975 11.8161 13.3253 11.356 13.598L11.3565 13.5976Z" fill="black"/>
</svg>
