<svg width="60" height="60" viewBox="0 0 60 60" fill="none" xmlns="http://www.w3.org/2000/svg">
<g clip-path="url(#clip0_583_1176)">
<path d="M22 2H6C4.93913 2 3.92172 2.42143 3.17157 3.17157C2.42143 3.92172 2 4.93913 2 6V22C2 23.0609 2.42143 24.0783 3.17157 24.8284C3.92172 25.5786 4.93913 26 6 26H22C23.0609 26 24.0783 25.5786 24.8284 24.8284C25.5786 24.0783 26 23.0609 26 22V6C26 4.93913 25.5786 3.92172 24.8284 3.17157C24.0783 2.42143 23.0609 2 22 2ZM54 2H38C36.9391 2 35.9217 2.42143 35.1716 3.17157C34.4214 3.92172 34 4.93913 34 6V22C34 23.0609 34.4214 24.0783 35.1716 24.8284C35.9217 25.5786 36.9391 26 38 26H54C55.0609 26 56.0783 25.5786 56.8284 24.8284C57.5786 24.0783 58 23.0609 58 22V6C58 4.93913 57.5786 3.92172 56.8284 3.17157C56.0783 2.42143 55.0609 2 54 2ZM54 34H38C36.9391 34 35.9217 34.4214 35.1716 35.1716C34.4214 35.9217 34 36.9391 34 38V54C34 55.0609 34.4214 56.0783 35.1716 56.8284C35.9217 57.5786 36.9391 58 38 58H54C55.0609 58 56.0783 57.5786 56.8284 56.8284C57.5786 56.0783 58 55.0609 58 54V38C58 36.9391 57.5786 35.9217 56.8284 35.1716C56.0783 34.4214 55.0609 34 54 34ZM22 34H6C4.93913 34 3.92172 34.4214 3.17157 35.1716C2.42143 35.9217 2 36.9391 2 38V54C2 55.0609 2.42143 56.0783 3.17157 56.8284C3.92172 57.5786 4.93913 58 6 58H22C23.0609 58 24.0783 57.5786 24.8284 56.8284C25.5786 56.0783 26 55.0609 26 54V38C26 36.9391 25.5786 35.9217 24.8284 35.1716C24.0783 34.4214 23.0609 34 22 34Z" stroke="black" stroke-width="4"/>
</g>
<defs>
<clipPath id="clip0_583_1176">
<rect width="60" height="60" fill="white"/>
</clipPath>
</defs>
</svg>
