<svg width="18" height="18" viewBox="0 0 18 18" fill="none" xmlns="http://www.w3.org/2000/svg">
<g clip-path="url(#clip0_3021_2301)">
<g filter="url(#filter0_d_3021_2301)">
<path d="M6 7.5V5.25C6 3.5925 7.3425 2.25 9 2.25C10.6575 2.25 12 3.5925 12 5.25V7.5M9 11.25C9.19891 11.25 9.38968 11.171 9.53033 11.0303C9.67098 10.8897 9.75 10.6989 9.75 10.5C9.75 10.3011 9.67098 10.1103 9.53033 9.96967C9.38968 9.82902 9.19891 9.75 9 9.75C8.80109 9.75 8.61032 9.82902 8.46967 9.96967C8.32902 10.1103 8.25 10.3011 8.25 10.5C8.25 10.6989 8.32902 10.8897 8.46967 11.0303C8.61032 11.171 8.80109 11.25 9 11.25ZM9 11.25V13.5M4.95 7.5H13.05C13.71 7.5 14.25 8.04 14.25 8.7V13.95C14.25 14.94 13.44 15.75 12.45 15.75H5.55C4.56 15.75 3.75 14.94 3.75 13.95V8.7C3.75 8.04 4.29 7.5 4.95 7.5Z" stroke="black" stroke-width="1.5" stroke-miterlimit="10" stroke-linecap="round" stroke-linejoin="round" shape-rendering="crispEdges"/>
</g>
</g>
<defs>
<filter id="filter0_d_3021_2301" x="-1" y="1.5" width="20" height="23" filterUnits="userSpaceOnUse" color-interpolation-filters="sRGB">
<feFlood flood-opacity="0" result="BackgroundImageFix"/>
<feColorMatrix in="SourceAlpha" type="matrix" values="0 0 0 0 0 0 0 0 0 0 0 0 0 0 0 0 0 0 127 0" result="hardAlpha"/>
<feOffset dy="4"/>
<feGaussianBlur stdDeviation="2"/>
<feComposite in2="hardAlpha" operator="out"/>
<feColorMatrix type="matrix" values="0 0 0 0 0 0 0 0 0 0 0 0 0 0 0 0 0 0 0.25 0"/>
<feBlend mode="normal" in2="BackgroundImageFix" result="effect1_dropShadow_3021_2301"/>
<feBlend mode="normal" in="SourceGraphic" in2="effect1_dropShadow_3021_2301" result="shape"/>
</filter>
<clipPath id="clip0_3021_2301">
<rect width="18" height="18" fill="white"/>
</clipPath>
</defs>
</svg>
