<svg width="18" height="18" viewBox="0 0 18 18" fill="none" xmlns="http://www.w3.org/2000/svg">
<path d="M9 16.5C13.1422 16.5 16.5 13.1422 16.5 9C16.5 8.65275 15.9795 8.595 15.8002 8.89275C15.4179 9.526 14.8965 10.064 14.2755 10.4658C13.6545 10.8677 12.9502 11.1231 12.2159 11.2124C11.4816 11.3018 10.7366 11.2229 10.0373 10.9817C9.338 10.7405 8.70277 10.3433 8.17971 9.82029C7.65665 9.29723 7.25949 8.662 7.01829 7.96271C6.7771 7.26343 6.6982 6.51842 6.78757 5.78413C6.87695 5.04983 7.13225 4.3455 7.53415 3.72449C7.93605 3.10348 8.47399 2.58207 9.10725 2.19975C9.405 2.01975 9.34725 1.5 9 1.5C4.85775 1.5 1.5 4.85775 1.5 9C1.5 13.1422 4.85775 16.5 9 16.5Z" fill="black"/>
</svg>
