<svg width="10" height="10" viewBox="0 0 10 10" fill="none" xmlns="http://www.w3.org/2000/svg">
<path d="M4.99961 8.39961C3.11961 8.39961 1.59961 6.87961 1.59961 4.99961C1.59961 3.11961 3.11961 1.59961 4.99961 1.59961C6.87961 1.59961 8.39961 3.11961 8.39961 4.99961C8.39961 6.87961 6.87961 8.39961 4.99961 8.39961ZM4.99961 1.99961C3.33961 1.99961 1.99961 3.33961 1.99961 4.99961C1.99961 6.65961 3.33961 7.99961 4.99961 7.99961C6.65961 7.99961 7.99961 6.65961 7.99961 4.99961C7.99961 3.33961 6.65961 1.99961 4.99961 1.99961Z" fill="black"/>
<path d="M3.19922 4.7998H6.79922V5.1998H3.19922V4.7998Z" fill="black"/>
<path d="M4.80078 3.2002H5.20078V6.8002H4.80078V3.2002Z" fill="black"/>
</svg>
