<svg width="18" height="18" viewBox="0 0 18 18" fill="none" xmlns="http://www.w3.org/2000/svg">
<path d="M6.93789 16.5L6.63789 14.1C6.47539 14.0375 6.32239 13.9625 6.17889 13.875C6.03539 13.7875 5.89464 13.6937 5.75664 13.5937L3.52539 14.5312L1.46289 10.9687L3.39414 9.50625C3.38164 9.41875 3.37539 9.3345 3.37539 9.2535V8.74725C3.37539 8.66575 3.38164 8.58125 3.39414 8.49375L1.46289 7.03125L3.52539 3.46875L5.75664 4.40625C5.89414 4.30625 6.03789 4.2125 6.18789 4.125C6.33789 4.0375 6.48789 3.9625 6.63789 3.9L6.93789 1.5H11.0629L11.3629 3.9C11.5254 3.9625 11.6786 4.0375 11.8226 4.125C11.9666 4.2125 12.1071 4.30625 12.2441 4.40625L14.4754 3.46875L16.5379 7.03125L14.6066 8.49375C14.6191 8.58125 14.6254 8.66575 14.6254 8.74725V9.25275C14.6254 9.33425 14.6129 9.41875 14.5879 9.50625L16.5191 10.9687L14.4566 14.5312L12.2441 13.5937C12.1066 13.6937 11.9629 13.7875 11.8129 13.875C11.6629 13.9625 11.5129 14.0375 11.3629 14.1L11.0629 16.5H6.93789ZM9.03789 11.625C9.76289 11.625 10.3816 11.3687 10.8941 10.8562C11.4066 10.3438 11.6629 9.725 11.6629 9C11.6629 8.275 11.4066 7.65625 10.8941 7.14375C10.3816 6.63125 9.76289 6.375 9.03789 6.375C8.30039 6.375 7.67839 6.63125 7.17189 7.14375C6.66539 7.65625 6.41239 8.275 6.41289 9C6.41339 9.725 6.66664 10.3438 7.17264 10.8562C7.67864 11.3687 8.30039 11.625 9.03789 11.625Z" fill="black"/>
</svg>
