<svg width="16" height="16" viewBox="0 0 16 16" fill="none" xmlns="http://www.w3.org/2000/svg">
<path fill-rule="evenodd" clip-rule="evenodd" d="M2.85714 1.42857C2.73943 1.42857 2.62857 1.47429 2.54857 1.552C2.51084 1.58898 2.48082 1.63306 2.46022 1.68171C2.43962 1.73036 2.42887 1.7826 2.42857 1.83543V14.1646C2.42857 14.2674 2.47086 14.3703 2.54971 14.4469C2.63167 14.5274 2.74222 14.5722 2.85714 14.5714H13.1429C13.2606 14.5714 13.3714 14.5257 13.4514 14.4469C13.489 14.41 13.519 14.3661 13.5396 14.3177C13.5602 14.2692 13.571 14.2172 13.5714 14.1646V5.67771C13.5714 5.56343 13.5257 5.45257 13.4434 5.37143L9.54743 1.55086C9.4668 1.47279 9.35908 1.42897 9.24686 1.42857H2.85714ZM1.54857 0.532571C1.89829 0.189714 2.36914 0 2.85714 0H9.24686C9.73371 0 10.2011 0.190857 10.5474 0.531429L14.4434 4.352C14.7989 4.70057 15 5.17943 15 5.67771V14.1646C15 14.656 14.8011 15.1246 14.4514 15.4674C14.1017 15.8103 13.6309 16 13.1429 16H2.85714C2.36914 16 1.89714 15.8103 1.54857 15.4674C1.2 15.1246 1 14.656 1 14.1646V1.83543C1 1.344 1.19886 0.875429 1.54857 0.532571ZM8.21029 7.29943C8.21029 6.90514 8.53029 6.58514 8.92457 6.58514H11.496C11.6854 6.58514 11.8671 6.6604 12.0011 6.79435C12.135 6.92831 12.2103 7.10999 12.2103 7.29943C12.2103 7.48887 12.135 7.67055 12.0011 7.80451C11.8671 7.93846 11.6854 8.01371 11.496 8.01371H8.92457C8.73513 8.01371 8.55345 7.93846 8.4195 7.80451C8.28554 7.67055 8.21029 7.48887 8.21029 7.29943ZM8.92457 10.7531C8.73513 10.7531 8.55345 10.8284 8.4195 10.9624C8.28554 11.0963 8.21029 11.278 8.21029 11.4674C8.21029 11.6569 8.28554 11.8386 8.4195 11.9725C8.55345 12.1065 8.73513 12.1817 8.92457 12.1817H11.496C11.6854 12.1817 11.8671 12.1065 12.0011 11.9725C12.135 11.8386 12.2103 11.6569 12.2103 11.4674C12.2103 11.278 12.135 11.0963 12.0011 10.9624C11.8671 10.8284 11.6854 10.7531 11.496 10.7531H8.92457ZM7.27657 9.45943C7.36762 9.52567 7.44472 9.60921 7.50347 9.70526C7.56223 9.80131 7.60148 9.90799 7.61899 10.0192C7.63651 10.1304 7.63193 10.244 7.60553 10.3535C7.57914 10.4629 7.53143 10.5661 7.46514 10.6571L5.86971 12.848C5.79725 12.9476 5.70415 13.0305 5.59677 13.0909C5.48939 13.1513 5.37024 13.1878 5.24746 13.198C5.12468 13.2082 5.00114 13.1918 4.88527 13.15C4.7694 13.1081 4.66391 13.0417 4.576 12.9554L3.61829 12.016C3.5335 11.9383 3.46523 11.8443 3.41753 11.7396C3.36983 11.635 3.34369 11.5218 3.34065 11.4068C3.33761 11.2918 3.35774 11.1774 3.39984 11.0704C3.44194 10.9634 3.50515 10.8659 3.58571 10.7838C3.66626 10.7017 3.76252 10.6367 3.86874 10.5926C3.97495 10.5485 4.08896 10.5262 4.20397 10.527C4.31899 10.5279 4.43265 10.5519 4.53818 10.5976C4.64372 10.6434 4.73898 10.7098 4.81829 10.7931L5.06743 11.0366L6.08 9.648C6.21377 9.46445 6.41492 9.3415 6.63927 9.30614C6.86362 9.27078 7.09284 9.32592 7.27657 9.45943ZM7.46514 6.41829C7.53473 6.32756 7.58546 6.22383 7.61435 6.1132C7.64324 6.00257 7.6497 5.88727 7.63335 5.77411C7.61701 5.66094 7.57819 5.55219 7.51917 5.45426C7.46016 5.35632 7.38215 5.27119 7.28974 5.20386C7.19732 5.13653 7.09237 5.08837 6.98106 5.06222C6.86975 5.03607 6.75434 5.03245 6.64161 5.05158C6.52888 5.07071 6.42112 5.1122 6.32467 5.1736C6.22822 5.23501 6.14503 5.3151 6.08 5.40914L5.06743 6.79771L4.81943 6.55429C4.74012 6.47099 4.64486 6.4045 4.53933 6.35878C4.43379 6.31307 4.32013 6.28906 4.20512 6.28819C4.09011 6.28732 3.9761 6.3096 3.86988 6.35372C3.76366 6.39783 3.66741 6.46287 3.58685 6.54496C3.50629 6.62705 3.44308 6.72451 3.40098 6.83155C3.35888 6.93858 3.33875 7.05299 3.34179 7.16796C3.34483 7.28294 3.37098 7.39612 3.41867 7.50078C3.46637 7.60544 3.53465 7.69942 3.61943 7.77714L4.576 8.71657C4.66391 8.80289 4.7694 8.86924 4.88527 8.91111C5.00114 8.95298 5.12468 8.96937 5.24746 8.95917C5.37024 8.94898 5.48939 8.91243 5.59677 8.85203C5.70415 8.79162 5.79725 8.70878 5.86971 8.60914L7.46514 6.41829Z" fill="black"/>
</svg>
