<svg width="18" height="18" viewBox="0 0 18 18" fill="none" xmlns="http://www.w3.org/2000/svg">
<path d="M14.25 12V10.5C14.25 10.1022 14.092 9.72064 13.8107 9.43934C13.5294 9.15804 13.1478 9 12.75 9C12.3522 9 11.9706 9.15804 11.6893 9.43934C11.408 9.72064 11.25 10.1022 11.25 10.5V12M7.125 11.25H5.25C4.45435 11.25 3.69129 11.5661 3.12868 12.1287C2.56607 12.6913 2.25 13.4544 2.25 14.25V15.75" stroke="black" stroke-width="2" stroke-linecap="round" stroke-linejoin="round"/>
<path d="M7.5 8.25C9.15685 8.25 10.5 6.90685 10.5 5.25C10.5 3.59315 9.15685 2.25 7.5 2.25C5.84315 2.25 4.5 3.59315 4.5 5.25C4.5 6.90685 5.84315 8.25 7.5 8.25Z" stroke="black" stroke-width="2" stroke-linecap="round" stroke-linejoin="round"/>
<path d="M15.0757 12H10.4243C10.0519 12 9.75 12.3019 9.75 12.6743V15.0757C9.75 15.4481 10.0519 15.75 10.4243 15.75H15.0757C15.4481 15.75 15.75 15.4481 15.75 15.0757V12.6743C15.75 12.3019 15.4481 12 15.0757 12Z" stroke="black" stroke-width="2" stroke-linecap="round" stroke-linejoin="round"/>
</svg>
