<svg width="10" height="10" viewBox="0 0 10 10" fill="none" xmlns="http://www.w3.org/2000/svg">
<path d="M7.08398 2.29199H1.25065C1.02053 2.29199 0.833984 2.47854 0.833984 2.70866V7.29199C0.833984 7.52211 1.02053 7.70866 1.25065 7.70866H7.08398C7.3141 7.70866 7.50065 7.52211 7.50065 7.29199V2.70866C7.50065 2.47854 7.3141 2.29199 7.08398 2.29199Z" stroke="black" stroke-width="0.5"/>
<path d="M4.16797 6.25C4.85832 6.25 5.41797 5.69036 5.41797 5C5.41797 4.30964 4.85832 3.75 4.16797 3.75C3.47761 3.75 2.91797 4.30964 2.91797 5C2.91797 5.69036 3.47761 6.25 4.16797 6.25Z" fill="black" stroke="black" stroke-width="0.5" stroke-linecap="round" stroke-linejoin="round"/>
<path d="M7.5 6.04167L9.16667 6.875V3.125L7.5 3.95833" stroke="black" stroke-width="0.5" stroke-linecap="round" stroke-linejoin="round"/>
</svg>
