<svg width="15" height="15" viewBox="0 0 15 15" fill="none" xmlns="http://www.w3.org/2000/svg">
<path d="M7.80938 11.098L7.80508 11.0988L7.77734 11.1124L7.76953 11.1139L7.76406 11.1124L7.73633 11.0988C7.73216 11.0975 7.72904 11.0981 7.72695 11.1007L7.72539 11.1046L7.71875 11.2711L7.7207 11.2788L7.72461 11.2839L7.76523 11.3127L7.77109 11.3142L7.77578 11.3127L7.81641 11.2839L7.82109 11.2777L7.82266 11.2711L7.81602 11.105C7.81497 11.1009 7.81276 11.0985 7.80938 11.098ZM7.91289 11.0541L7.90781 11.0548L7.83555 11.091L7.83164 11.0949L7.83047 11.0992L7.8375 11.2664L7.83945 11.2711L7.84258 11.2738L7.92109 11.3099C7.92604 11.3112 7.92982 11.3102 7.93242 11.3068L7.93398 11.3014L7.9207 11.0626C7.9194 11.0579 7.9168 11.0551 7.91289 11.0541ZM7.63359 11.0548C7.63187 11.0538 7.62981 11.0535 7.62785 11.0539C7.62588 11.0543 7.62416 11.0555 7.62305 11.0572L7.6207 11.0626L7.60742 11.3014C7.60768 11.3061 7.6099 11.3092 7.61406 11.3107L7.61992 11.3099L7.69844 11.2738L7.70234 11.2707L7.70391 11.2664L7.71055 11.0992L7.70937 11.0945L7.70547 11.0906L7.63359 11.0548Z" fill="black"/>
<path d="M7.96339 4.28535C8.11348 4.20059 8.23117 4.06875 8.29807 3.9104C8.36498 3.75204 8.37734 3.5761 8.33323 3.41001C8.28912 3.24393 8.19102 3.09706 8.05424 2.99232C7.91746 2.88759 7.7497 2.83088 7.57714 2.83106C7.40458 2.83123 7.23694 2.88827 7.10037 2.99329C6.96381 3.0983 6.86601 3.24537 6.82224 3.41154C6.77847 3.57771 6.79119 3.75363 6.85841 3.91185C6.92564 4.07007 7.04359 4.20168 7.19386 4.28613L7.18995 4.29313C6.93409 4.82474 6.57863 5.58619 6.0298 5.87202C5.57902 6.10652 4.93214 5.98869 4.45167 5.9008C4.44396 5.79203 4.40579 5.68759 4.34148 5.59933C4.27717 5.51107 4.1893 5.44252 4.08783 5.40145C3.98637 5.36039 3.87538 5.34847 3.76745 5.36703C3.65953 5.38559 3.55899 5.43389 3.47724 5.50646C3.39549 5.57902 3.33581 5.67295 3.30496 5.77757C3.27412 5.8822 3.27335 5.99333 3.30274 6.09837C3.33213 6.20341 3.3905 6.29815 3.47123 6.37183C3.55196 6.44552 3.65183 6.4952 3.75948 6.51524L4.91105 9.47469C4.99645 9.69409 5.14649 9.88265 5.34148 10.0156C5.53646 10.1486 5.76728 10.2198 6.00363 10.2198H9.15206C9.38841 10.2198 9.61923 10.1486 9.81421 10.0156C10.0092 9.88265 10.1592 9.69409 10.2446 9.47469L11.3958 6.51524C11.5028 6.49542 11.6021 6.44633 11.6827 6.37348C11.7632 6.30062 11.8218 6.20688 11.8518 6.10275C11.8818 5.99863 11.8821 5.88823 11.8527 5.78394C11.8233 5.67964 11.7652 5.58557 11.6851 5.51226C11.605 5.43896 11.5059 5.38931 11.3991 5.36888C11.2922 5.34846 11.1817 5.35806 11.08 5.39662C10.9784 5.43518 10.8895 5.50118 10.8233 5.5872C10.7572 5.67323 10.7164 5.77589 10.7056 5.88369C10.2138 5.94708 9.5798 6.02796 9.12589 5.79191C8.588 5.51191 8.22745 4.80296 7.96339 4.28535Z" fill="black"/>
<path d="M2.51062 10.2601C2.60793 10.3583 2.6825 10.4767 2.72901 10.6071C2.77552 10.7375 2.79282 10.8766 2.77969 11.0145C2.71364 11.6526 2.58873 12.2832 2.40656 12.8982C3.71438 12.5939 4.51313 12.2417 4.87594 12.0571C5.08172 11.9524 5.31871 11.9276 5.54156 11.9874C6.18028 12.1592 6.8388 12.2453 7.5 12.2436C11.2463 12.2436 14.0625 9.59992 14.0625 6.5927C14.0625 3.58549 11.2463 0.941815 7.5 0.941815C3.75375 0.941815 0.9375 3.58643 0.9375 6.5927C0.9375 7.97529 1.51594 9.25804 2.51062 10.2601ZM2.04844 13.9379C1.8263 13.9821 1.60346 14.0226 1.38 14.0594C1.1925 14.0895 1.05 13.8936 1.12406 13.7185C1.20708 13.5212 1.28338 13.3211 1.35281 13.1185L1.35563 13.1091C1.58812 12.431 1.7775 11.6512 1.84688 10.925C0.696563 9.76662 0 8.2503 0 6.5927C0 2.95165 3.35812 0 7.5 0C11.6419 0 15 2.95165 15 6.5927C15 10.2338 11.6419 13.1854 7.5 13.1854C6.75713 13.1871 6.0173 13.0902 5.29969 12.8972C4.81219 13.1449 3.76312 13.596 2.04844 13.9379Z" fill="black"/>
</svg>
